<svg xmlns="http://www.w3.org/2000/svg" version="1.1" xmlns:xlink="http://www.w3.org/1999/xlink" xmlns:svgjs="http://svgjs.dev/svgjs" width="2000" height="2000" viewBox="0 0 2000 2000"><g transform="matrix(1,0,0,1,0,0)"><svg viewBox="0 0 280 280" data-background-color="#000000" preserveAspectRatio="xMidYMid meet" height="2000" width="2000" xmlns="http://www.w3.org/2000/svg" xmlns:xlink="http://www.w3.org/1999/xlink"><g id="tight-bounds" transform="matrix(1,0,0,1,0,0)"><svg viewBox="0 0 280 280" height="280" width="280"><g><svg viewBox="0 0 280 280" height="280" width="280"><g transform="matrix(1,0,0,1,60.80404050710668,97.04822062119533)"><svg viewBox="0 0 158.39191898578665 85.90355875760935" height="85.90355875760935" width="158.39191898578665"><g><svg viewBox="0 0 158.39191898578665 85.90355875760935" height="85.90355875760935" width="158.39191898578665"><g transform="matrix(1,0,0,1,0,53.091845592059784)"><svg viewBox="0 0 158.39191898578665 32.81171316554957" height="32.81171316554957" width="158.39191898578665"><g id="textblocktransform"><svg viewBox="0 0 158.39191898578665 32.81171316554957" height="32.81171316554957" width="158.39191898578665" id="textblock"><g><svg viewBox="0 0 158.39191898578665 32.81171316554957" height="32.81171316554957" width="158.39191898578665"><g transform="matrix(1,0,0,1,0,0)"><svg width="158.39191898578665" viewBox="0.2 -35.1 173.29000000000002 35.9" height="32.81171316554957" data-palette-color="url(#2ed9f8b6-7b63-4c8b-9846-44c8469b3498)"></svg></g></svg></g></svg></g></svg></g><g transform="matrix(1,0,0,1,33.961991120820905,0)"><svg viewBox="0 0 90.46793674414484 45.345787594789506" height="45.345787594789506" width="90.46793674414484"><g><svg xmlns="http://www.w3.org/2000/svg" xmlns:xlink="http://www.w3.org/1999/xlink" xml:space="preserve" style="shape-rendering:geometricPrecision;text-rendering:geometricPrecision;image-rendering:optimizeQuality;" viewBox="0.0000020000000000575113 0.0000027841116459863258 14.727499 7.381952827609914" x="0" y="0" fill-rule="evenodd" clip-rule="evenodd" width="90.46793674414484" height="45.345787594789506" class="icon-icon-0" data-fill-palette-color="accent" id="icon-0"></svg></g></svg></g><g></g></svg></g></svg></g><g id="text-0"></g><g id="text-1"></g></svg></g><defs></defs><mask id="46bf3c61-672a-497c-bf57-2be4daf8570e"><g id="SvgjsG2122"><svg viewBox="0 0 280 280" height="280" width="280"><g><svg viewBox="0 0 280 280" height="280" width="280"><g transform="matrix(1,0,0,1,60.80404050710668,97.04822062119533)"><svg viewBox="0 0 158.39191898578665 85.90355875760935" height="85.90355875760935" width="158.39191898578665"><g><svg viewBox="0 0 158.39191898578665 85.90355875760935" height="85.90355875760935" width="158.39191898578665"><g transform="matrix(1,0,0,1,0,53.091845592059784)"><svg viewBox="0 0 158.39191898578665 32.81171316554957" height="32.81171316554957" width="158.39191898578665"><g id="SvgjsG2121"><svg viewBox="0 0 158.39191898578665 32.81171316554957" height="32.81171316554957" width="158.39191898578665" id="SvgjsSvg2120"><g><svg viewBox="0 0 158.39191898578665 32.81171316554957" height="32.81171316554957" width="158.39191898578665"><g transform="matrix(1,0,0,1,0,0)"><svg width="158.39191898578665" viewBox="0.2 -35.1 173.29000000000002 35.9" height="32.81171316554957" data-palette-color="url(#2ed9f8b6-7b63-4c8b-9846-44c8469b3498)"><path d="M12.25 0L0.2 0 0.4-1.05 0.95-1.2Q3-1.8 3.45-3.95L3.45-3.95 6-17.55Q6.55-20.25 7.05-23.08 7.55-25.9 8.1-29.1L8.1-29.1Q8.4-31.25 6.4-31.85L6.4-31.85 5.9-32 6.15-33.05 16.9-33.05Q23.25-33.05 26.15-30.58 29.05-28.1 29.05-24.1L29.05-24.1Q29.05-21.1 27.38-18.55 25.7-16 22.35-14.45 19-12.9 13.95-12.9L13.95-12.9 11.6-12.9Q11.25-10.9 10.85-8.65 10.45-6.4 10.05-4.05L10.05-4.05Q9.6-1.85 11.8-1.2L11.8-1.2 12.45-1.05 12.25 0ZM11.9-14.4L11.9-14.4 13.85-14.4Q17.8-14.4 20.13-17.03 22.45-19.65 22.45-24.2L22.45-24.2Q22.45-27.8 20.9-29.7 19.35-31.6 16.45-31.6L16.45-31.6 15.1-31.6Q14.3-27.3 13.5-23 12.7-18.7 11.9-14.4ZM35.25 0L29.5 0.35 29.1-0.05 33.7-22.05Q34.05-23.8 34.32-25.28 34.6-26.75 34.95-28.55L34.95-28.55Q35.35-30.7 33.2-31.3L33.2-31.3 32.5-31.55 32.65-32.4 41.8-35.1 42.25-34.7 38.9-18.9Q41.4-21.45 44.2-23.1 47-24.75 49.35-24.75L49.35-24.75Q50.95-24.75 51.95-23.78 52.95-22.8 52.95-20.8L52.95-20.8Q52.95-19.7 52.75-18.57 52.55-17.45 52.25-16.25L52.25-16.25 49.8-6.35Q49.6-5.4 49.42-4.73 49.25-4.05 49.25-3.65L49.25-3.65Q49.25-2.6 50.1-2.6L50.1-2.6Q51.35-2.6 53.5-4.65L53.5-4.65 54.15-4Q52.95-2.25 50.95-0.78 48.95 0.7 46.45 0.7L46.45 0.7Q44.85 0.7 43.97-0.05 43.1-0.8 43.1-2.1L43.1-2.1Q43.1-3.15 43.35-4.23 43.6-5.3 43.9-6.55L43.9-6.55 46.1-15.2Q46.45-16.5 46.7-17.6 46.95-18.7 46.95-19.5L46.95-19.5Q46.95-21.3 45.35-21.3L45.35-21.3Q42.8-21.3 38.7-17.35L38.7-17.35 37.25-10.65Q36.6-7.65 36.12-5.15 35.65-2.65 35.25 0L35.25 0ZM65.55 0.7L65.55 0.7Q61.85 0.7 59.52-1.7 57.2-4.1 57.2-8.65L57.2-8.65Q57.2-11.8 58.3-14.7 59.4-17.6 61.32-19.88 63.25-22.15 65.84-23.45 68.45-24.75 71.45-24.75L71.45-24.75Q74.55-24.75 76.17-23.35 77.8-21.95 77.8-19.6L77.8-19.6Q77.8-16.75 74.02-13.98 70.25-11.2 63.1-9.65L63.1-9.65Q63.25-6.4 64.65-4.9 66.05-3.4 68.5-3.4L68.5-3.4Q70.7-3.4 72.45-4.55 74.2-5.7 75.4-7.25L75.4-7.25 76.15-6.7Q75.15-4.8 73.57-3.1 72-1.4 70-0.35 68 0.7 65.55 0.7ZM70.95-23.05L70.95-23.05Q69.8-23.05 68.5-22.08 67.2-21.1 66.02-19.43 64.84-17.75 64.05-15.58 63.25-13.4 63.1-10.95L63.1-10.95Q68.7-12.6 70.97-15.05 73.25-17.5 73.25-20.25L73.25-20.25Q73.25-21.7 72.59-22.38 71.95-23.05 70.95-23.05ZM85.09 0L79.44 0.4 78.94-0.05 82.74-18.2Q83.19-20.2 81.24-21L81.24-21 80.49-21.3 80.59-22.15 89.44-24.8 89.99-24.3 88.89-18.65Q91.49-21.4 94.19-23.08 96.89-24.75 99.24-24.75L99.24-24.75Q100.84-24.75 101.87-23.78 102.89-22.8 102.89-20.8L102.89-20.8Q102.89-19.7 102.69-18.57 102.49-17.45 102.19-16.25L102.19-16.25 99.64-6Q99.44-5.2 99.32-4.63 99.19-4.05 99.19-3.65L99.19-3.65Q99.19-2.6 100.04-2.6L100.04-2.6Q101.34-2.6 103.34-4.7L103.34-4.7 104.04-4Q102.79-2.15 100.79-0.73 98.79 0.7 96.34 0.7L96.34 0.7Q94.79 0.7 93.89-0.05 92.99-0.8 92.99-2.1L92.99-2.1Q92.99-3.15 93.24-4.23 93.49-5.3 93.84-6.55L93.84-6.55 95.79-14.45Q96.19-15.95 96.44-17.15 96.69-18.35 96.69-19.3L96.69-19.3Q96.69-20.3 96.27-20.68 95.84-21.05 95.14-21.05L95.14-21.05Q93.94-21.05 92.27-20.03 90.59-19 88.49-16.8L88.49-16.8 87.14-10.65Q86.59-8 86.09-5.35 85.59-2.7 85.09 0L85.09 0ZM115.09-27.7L115.09-27.7Q113.69-27.7 112.69-28.6 111.69-29.5 111.69-31.05L111.69-31.05Q111.69-32.7 112.89-33.8 114.09-34.9 115.59-34.9L115.59-34.9Q117.04-34.9 117.99-33.98 118.94-33.05 118.94-31.6L118.94-31.6Q118.94-30 117.77-28.85 116.59-27.7 115.09-27.7ZM110.49 0.7L110.49 0.7Q108.99 0.7 108.02-0.08 107.04-0.85 107.04-2.35L107.04-2.35Q107.04-3.2 107.24-4.4 107.44-5.6 107.69-6.85L107.69-6.85 110.04-18.15Q110.49-20.25 108.49-21L108.49-21 107.79-21.3 107.89-22.2 116.89-24.8 117.39-24.3 113.59-6.45Q113.39-5.6 113.29-4.98 113.19-4.35 113.19-3.8L113.19-3.8Q113.19-2.7 114.19-2.7L114.19-2.7Q115.39-2.7 117.34-4.6L117.34-4.6 117.99-3.95Q116.74-2.1 114.87-0.7 112.99 0.7 110.49 0.7ZM130.09 0.7L130.09 0.7Q127.54 0.7 125.44-0.3 123.34-1.3 122.09-3.38 120.84-5.45 120.84-8.6L120.84-8.6Q120.84-11.8 121.91-14.7 122.99-17.6 124.91-19.88 126.84-22.15 129.41-23.45 131.99-24.75 134.94-24.75L134.94-24.75Q138.89-24.75 141.49-22.48 144.09-20.2 144.09-15.45L144.09-15.45Q144.09-12.3 143.01-9.4 141.94-6.5 140.04-4.23 138.14-1.95 135.59-0.63 133.04 0.7 130.09 0.7ZM130.69-0.7L130.69-0.7Q132.29-0.7 133.59-2.08 134.89-3.45 135.84-5.7 136.79-7.95 137.31-10.73 137.84-13.5 137.84-16.25L137.84-16.25Q137.84-20.2 136.91-21.75 135.99-23.3 134.54-23.3L134.54-23.3Q132.94-23.3 131.56-21.98 130.19-20.65 129.19-18.4 128.19-16.15 127.64-13.43 127.09-10.7 127.09-7.9L127.09-7.9Q127.09-3.85 128.11-2.27 129.14-0.7 130.69-0.7ZM147.84 0.7L147.84 0.7Q146.39 0.7 145.26-0.15 144.14-1 144.14-2.55L144.14-2.55Q144.14-3.8 144.96-4.58 145.79-5.35 146.99-5.35L146.99-5.35Q148.49-5.35 149.64-3.9L149.64-3.9Q150.94-2.15 152.29-3.9L152.29-3.9Q153.34-5.25 154.44-6.8 155.54-8.35 156.69-10L156.69-10 154.19-17.7Q153.69-19.45 153.16-20.13 152.64-20.8 151.79-20.8L151.79-20.8Q151.29-20.8 150.56-20.5 149.84-20.2 149.04-19.2L149.04-19.2 148.29-20Q151.54-24.75 154.84-24.75L154.84-24.75Q156.74-24.75 157.66-23.65 158.59-22.55 159.34-20.2L159.34-20.2 160.89-15.45Q162.29-17.7 163.44-19.35 164.59-21 165.14-21.7L165.14-21.7Q166.59-23.5 167.84-24.13 169.09-24.75 170.34-24.75L170.34-24.75Q171.59-24.75 172.54-24 173.49-23.25 173.49-21.8L173.49-21.8Q173.49-20.5 172.69-19.73 171.89-18.95 170.84-18.95L170.84-18.95Q169.19-18.95 168.19-20.25L168.19-20.25Q167.64-20.95 167.16-21.03 166.69-21.1 165.99-20.25L165.99-20.25Q165.19-19.3 163.96-17.6 162.74-15.9 161.39-13.95L161.39-13.95 163.99-6Q164.54-4.2 165.06-3.6 165.59-3 166.39-3L166.39-3Q167.69-3 169.44-4.85L169.44-4.85 170.19-4.1Q168.84-2 167.11-0.6 165.39 0.8 163.44 0.8L163.44 0.8Q161.89 0.8 160.79-0.03 159.69-0.85 158.94-3.1L158.94-3.1 157.19-8.55Q155.84-6.45 154.71-4.8 153.59-3.15 152.64-1.95L152.64-1.95Q151.59-0.55 150.46 0.08 149.34 0.7 147.84 0.7Z" opacity="1" transform="matrix(1,0,0,1,0,0)" fill="white" class="wordmark-text-0" id="SvgjsPath2119"></path></svg></g></svg></g></svg></g></svg></g><g transform="matrix(1,0,0,1,33.961991120820905,0)"><svg viewBox="0 0 90.46793674414484 45.345787594789506" height="45.345787594789506" width="90.46793674414484"><g><svg xmlns="http://www.w3.org/2000/svg" xmlns:xlink="http://www.w3.org/1999/xlink" xml:space="preserve" style="shape-rendering:geometricPrecision;text-rendering:geometricPrecision;image-rendering:optimizeQuality;" viewBox="0.0000020000000000575113 0.0000027841116459863258 14.727499 7.381952827609914" x="0" y="0" fill-rule="evenodd" clip-rule="evenodd" width="90.46793674414484" height="45.345787594789506" class="icon-icon-0" data-fill-palette-color="accent" id="SvgjsSvg2118"><g fill="black"><path class="" d="M1.757 3.091c-0.313 0.444-0.296 1.331-0.417 1.95-0.153 0.784-0.711 1.203-1.34 1.534 0.188-0.771 0.348-1.542 0.412-2.313 0.078-0.953-0.06-0.891 0.767-1.575 1.159-0.961 3.04-1.741 5.848-2.29 2.456-0.406 5.049-0.453 7.701-0.351-0.89 1.809-3.733 1.961-7.203 1.581-1.811 0.02-3.495-0.488-5.768 1.464z m8.33 2.781c-3.895 2.038-7.803-2.284-9.165 0.688 2.104-1.831 5.079 3.183 9.165-0.688z m2.489-2.547c-4.49 2.72-9.502-0.792-10.907 1.859 3.412-1.235 7.765 2.753 10.907-1.859z m0.834-1.478c-3.944 1.761-10.043-1.402-11.565 2.239 3.106-1.808 8.446 1.438 11.565-2.239z" fill="black"></path></g></svg></g></svg></g><g></g></svg></g></svg></g><g id="SvgjsG2117"><path d="M29.824 99.581l-3.604 9.759-0.79-0.476 0.038-0.486c0.091-1.226-0.402-2.176-1.479-2.849v0l-10.249-6.131c-1.349-0.838-2.735-1.673-4.159-2.502-1.422-0.836-2.942-1.72-4.56-2.651v0c-1.105-0.596-2.017-0.412-2.735 0.554v0l-0.273 0.355-0.776-0.514 3.215-8.708c1.266-3.428 2.856-5.676 4.771-6.743 1.911-1.076 3.946-1.215 6.106-0.417v0c1.619 0.598 2.949 1.603 3.991 3.017 1.042 1.413 1.65 3.18 1.823 5.3 0.169 2.112-0.25 4.531-1.258 7.258v0l-0.702 1.902c1.013 0.591 2.084 1.219 3.215 1.882 1.137 0.666 2.3 1.342 3.488 2.027v0c1.096 0.68 2.039 0.489 2.829-0.573v0l0.318-0.48zM18.057 95.562v0l0.583-1.577c0.788-2.135 0.707-4.091-0.244-5.869-0.957-1.78-2.663-3.123-5.116-4.029v0c-1.943-0.718-3.582-0.849-4.917-0.393-1.337 0.462-2.293 1.474-2.869 3.035v0l-0.406 1.1c2.159 1.29 4.32 2.577 6.482 3.86 2.166 1.292 4.328 2.583 6.487 3.873z" fill="black"></path><path d="M53.247 59.79l-3.244 3.767-0.489 0.007-10.831-16.1c-0.578-0.848-1.116-1.623-1.615-2.328-0.499-0.704-1.05-1.492-1.652-2.364v0c-0.724-1.028-1.642-1.22-2.753-0.576v0l-0.58 0.288-0.433-0.607 3.839-7.284 0.519-0.035 7.759 11.586c-0.051-2.05 0.147-3.986 0.595-5.808 0.442-1.817 1.135-3.209 2.078-4.178v0c0.645-0.662 1.368-1 2.17-1.015 0.802-0.025 1.616 0.366 2.444 1.171v0c0.452 0.441 0.87 0.928 1.251 1.461 0.386 0.538 0.766 1.107 1.139 1.707v0l4.644 7.484c0.314 0.467 0.573 0.872 0.78 1.215 0.206 0.343 0.392 0.595 0.557 0.756v0c0.433 0.422 0.82 0.458 1.161 0.108v0c0.502-0.516 0.764-1.631 0.786-3.347v0l0.792-0.01c0.237 1.198 0.258 2.504 0.065 3.919-0.198 1.42-0.799 2.645-1.804 3.676v0c-0.64 0.657-1.289 1.016-1.945 1.078-0.667 0.062-1.268-0.168-1.803-0.69v0c-0.433-0.422-0.819-0.902-1.158-1.44-0.343-0.534-0.713-1.112-1.11-1.737v0l-4.02-6.577c-0.398-0.663-0.773-1.265-1.126-1.808-0.348-0.548-0.688-0.983-1.019-1.305v0c-0.744-0.725-1.439-0.757-2.083-0.095v0c-1.024 1.051-1.543 3.214-1.558 6.49v0l3.27 4.937c0.975 1.472 1.884 2.807 2.726 4.006 0.832 1.2 1.715 2.415 2.648 3.648z" fill="black"></path><path d="M96.477 30.26v0c-1.968 0.804-3.833 0.82-5.593 0.049-1.76-0.771-3.136-2.37-4.127-4.797v0c-0.686-1.679-1.05-3.408-1.095-5.188-0.047-1.786 0.198-3.496 0.734-5.131 0.529-1.632 1.345-3.077 2.445-4.333 1.101-1.257 2.45-2.211 4.048-2.864v0c1.654-0.675 3.068-0.816 4.241-0.422 1.165 0.39 2.002 1.211 2.513 2.463v0c0.621 1.522 0.228 3.433-1.181 5.732-1.403 2.297-3.841 4.635-7.316 7.015v0c0.79 1.702 1.72 2.801 2.788 3.297 1.074 0.493 2.263 0.474 3.564-0.057v0c1.176-0.48 2.105-1.215 2.787-2.206 0.679-0.996 1.171-2.037 1.476-3.123v0l0.771 0.192c-0.115 1.228-0.409 2.467-0.881 3.716-0.467 1.247-1.12 2.369-1.961 3.365-0.834 0.994-1.905 1.758-3.213 2.292zM93.047 9.517v0c-0.61 0.249-1.157 0.777-1.642 1.584-0.481 0.798-0.851 1.771-1.109 2.918-0.264 1.15-0.374 2.391-0.329 3.722 0.054 1.335 0.305 2.671 0.755 4.006v0c2.624-2.091 4.276-4.039 4.956-5.843 0.68-1.804 0.72-3.438 0.122-4.903v0c-0.313-0.767-0.717-1.263-1.212-1.486-0.492-0.217-1.006-0.217-1.541 0.002z" fill="black"></path><path d="M138.836 21.312l-4.888 0.23-0.429-0.398 3.654-15.588c0.292-1.141-0.12-1.956-1.236-2.445v0l-0.635-0.28 0.099-0.732 7.694-2.099 0.468 0.439-1.073 4.857c1.539-1.546 3.093-2.783 4.664-3.711 1.578-0.927 3.043-1.375 4.394-1.343v0c0.924 0.022 1.674 0.322 2.252 0.9 0.578 0.571 0.852 1.434 0.825 2.588v0c-0.015 0.632-0.088 1.268-0.219 1.911-0.131 0.649-0.293 1.315-0.486 1.996v0l-2.412 8.8c-0.126 0.452-0.227 0.844-0.303 1.175-0.083 0.331-0.127 0.612-0.132 0.842v0c-0.014 0.604 0.223 0.912 0.712 0.924v0c0.747 0.018 1.712-0.564 2.895-1.745v0l0.587 0.616c-0.745 1.049-1.702 1.971-2.869 2.765-1.174 0.787-2.464 1.164-3.869 1.13v0c-0.896-0.021-1.598-0.252-2.104-0.692-0.506-0.447-0.75-1.044-0.732-1.791v0c0.014-0.604 0.1-1.214 0.258-1.828 0.157-0.615 0.346-1.279 0.568-1.995v0l1.843-6.774c0.251-0.857 0.457-1.63 0.616-2.319 0.159-0.689 0.245-1.306 0.258-1.849v0c0.014-0.577-0.099-0.977-0.338-1.201-0.239-0.216-0.559-0.329-0.96-0.338v0c-0.693-0.017-1.528 0.256-2.507 0.816-0.978 0.568-2.084 1.472-3.316 2.714v0l-1.298 5.279c-0.349 1.514-0.687 3.031-1.016 4.552-0.322 1.514-0.643 3.046-0.965 4.594z" fill="black"></path><path d="M199.736 10.302v0c-0.736-0.318-1.266-0.829-1.591-1.531-0.325-0.703-0.31-1.466 0.046-2.289v0c0.375-0.867 1.007-1.455 1.897-1.767 0.887-0.305 1.726-0.286 2.517 0.057v0c0.761 0.329 1.287 0.849 1.579 1.559 0.288 0.702 0.267 1.436-0.064 2.204v0c-0.364 0.842-0.987 1.435-1.869 1.778-0.885 0.335-1.723 0.332-2.515-0.011zM186.368 31.23v0c-0.798-0.345-1.365-0.831-1.701-1.457-0.34-0.635-0.338-1.349 0.004-2.141v0c0.194-0.449 0.482-0.968 0.863-1.558 0.378-0.584 0.776-1.178 1.192-1.782v0l5.736-8.155c0.723-1.005 0.64-1.933-0.251-2.783v0l-0.446-0.482 0.382-0.679 8.025 1.029 0.223 0.562-9.13 12.848c-0.3 0.403-0.547 0.759-0.74 1.068-0.196 0.3-0.358 0.596-0.484 0.889v0c-0.251 0.58-0.111 0.984 0.419 1.214v0c0.636 0.275 1.685 0.133 3.148-0.426v0l0.292 0.737c-1.084 0.693-2.282 1.196-3.595 1.509-1.309 0.307-2.622 0.176-3.937-0.393z" fill="black"></path><path d="M222.294 56.002v0c-1.038-1.037-1.783-2.185-2.235-3.442-0.447-1.263-0.503-2.572-0.168-3.927 0.34-1.35 1.152-2.666 2.434-3.949v0c1.301-1.302 2.758-2.324 4.372-3.064 1.618-0.745 3.282-1.19 4.992-1.335 1.71-0.145 3.353 0.042 4.928 0.559 1.576 0.518 2.964 1.377 4.166 2.578v0c1.61 1.608 2.48 3.404 2.61 5.388 0.131 1.984-0.769 3.941-2.699 5.873v0c-1.282 1.283-2.732 2.297-4.35 3.042-1.614 0.74-3.27 1.188-4.971 1.343-1.7 0.154-3.338-0.018-4.914-0.517-1.576-0.499-2.964-1.348-4.165-2.549zM223.511 55.519v0c0.654 0.653 1.525 0.962 2.616 0.928 1.085-0.029 2.279-0.311 3.58-0.844 1.306-0.529 2.629-1.252 3.969-2.171 1.344-0.913 2.576-1.93 3.695-3.049v0c1.604-1.605 2.532-2.914 2.786-3.928 0.254-1.004 0.086-1.801-0.505-2.391v0c-0.649-0.648-1.523-0.984-2.623-1.008-1.1-0.014-2.31 0.232-3.631 0.737-1.325 0.51-2.653 1.209-3.983 2.098-1.33 0.88-2.566 1.891-3.709 3.035v0c-1.647 1.648-2.58 3.001-2.801 4.057-0.225 1.062-0.023 1.907 0.606 2.536z" fill="black"></path><path d="M245.972 89.894v0c-0.286-0.785-0.31-1.564-0.071-2.338 0.236-0.78 0.772-1.322 1.609-1.627v0c0.677-0.246 1.307-0.223 1.89 0.07 0.578 0.296 0.985 0.769 1.223 1.42v0c0.295 0.811 0.163 1.668-0.397 2.574v0c-0.686 1.053-0.425 1.771 0.785 2.154v0c0.941 0.301 1.938 0.595 2.99 0.884 1.052 0.289 2.139 0.583 3.261 0.883v0l5.512-4.307c0.845-0.619 1.398-1.135 1.659-1.548 0.261-0.413 0.309-0.85 0.141-1.309v0c-0.1-0.274-0.301-0.577-0.602-0.908-0.31-0.335-0.811-0.619-1.503-0.852v0l0.418-0.846c3.212 0.818 5.143 2.121 5.794 3.908v0c0.374 1.028 0.355 1.898-0.057 2.612-0.416 0.723-1.186 1.517-2.31 2.381v0l-3.391 2.657c1.496 0.315 2.801 0.624 3.916 0.926 1.119 0.294 1.922 0.522 2.407 0.685v0c1.26 0.423 2.183 0.911 2.768 1.464 0.585 0.553 1 1.168 1.246 1.845v0c0.246 0.677 0.258 1.344 0.036 2.003-0.214 0.663-0.713 1.138-1.498 1.425v0c-0.702 0.256-1.343 0.243-1.922-0.038-0.579-0.281-0.972-0.705-1.179-1.272v0c-0.323-0.887-0.229-1.731 0.281-2.532v0c0.267-0.437 0.374-0.79 0.319-1.06-0.048-0.272-0.371-0.512-0.968-0.721v0c-0.675-0.246-1.593-0.533-2.753-0.862-1.161-0.329-2.4-0.665-3.719-1.009v0l-5.685 4.457c-0.861 0.653-1.403 1.18-1.626 1.579-0.221 0.406-0.253 0.822-0.098 1.25v0c0.258 0.708 1.06 1.352 2.407 1.932v0l-0.393 0.827c-1.401-0.314-2.648-0.799-3.741-1.457-1.099-0.655-1.84-1.509-2.224-2.562v0c-0.307-0.842-0.345-1.642-0.115-2.398 0.231-0.756 0.881-1.561 1.951-2.414v0l3.898-3.025c-1.401-0.314-2.657-0.615-3.768-0.904-1.114-0.281-2.09-0.558-2.927-0.832v0c-0.96-0.294-1.721-0.685-2.282-1.174-0.559-0.483-0.986-1.13-1.282-1.941z" fill="black"></path><path d="M8.806 187.082l-3.889-10.338 0.961-0.165 0.31 0.417c0.786 1.047 1.84 1.467 3.162 1.259v0l12.498-2.197c1.662-0.27 3.354-0.565 5.077-0.887 1.729-0.324 3.569-0.671 5.519-1.042v0c1.292-0.29 1.894-1.072 1.807-2.345v0l-0.028-0.479 0.975-0.128 3.473 9.232c1.366 3.63 1.652 6.542 0.858 8.734-0.787 2.19-2.325 3.716-4.614 4.577v0c-1.717 0.646-3.487 0.764-5.31 0.354-1.815-0.406-3.528-1.402-5.141-2.987-1.604-1.581-2.949-3.818-4.037-6.711v0l-0.757-2.012c-1.221 0.227-2.52 0.469-3.897 0.725-1.37 0.254-2.773 0.52-4.206 0.799v0c-1.355 0.219-1.979 1.028-1.875 2.425v0l0.075 0.603zM21.054 182.137v0l0.628 1.669c0.851 2.263 2.277 3.777 4.277 4.542 2 0.764 4.304 0.656 6.911-0.325v0c2.06-0.775 3.467-1.809 4.222-3.101 0.752-1.299 0.816-2.778 0.192-4.438v0l-0.434-1.154c-2.633 0.468-5.265 0.936-7.898 1.404-2.633 0.468-5.265 0.936-7.898 1.403z" fill="black"></path><path d="M37.274 234.48l-3.926-3.541-0.003-0.512 17.34-11.141c0.918-0.598 1.755-1.15 2.513-1.658 0.758-0.517 1.606-1.084 2.543-1.701v0c1.111-0.75 1.335-1.723 0.672-2.92v0l-0.29-0.615 0.659-0.449 7.639 4.249 0.031 0.555-12.479 7.96c2.181-0.001 4.232 0.253 6.154 0.764 1.917 0.515 3.381 1.286 4.391 2.313v0c0.686 0.697 1.03 1.473 1.032 2.328 0.007 0.85-0.425 1.704-1.296 2.562v0c-0.479 0.472-1.009 0.907-1.588 1.305-0.575 0.394-1.188 0.783-1.84 1.167v0l-8.051 4.761c-0.497 0.318-0.932 0.583-1.303 0.797-0.367 0.218-0.637 0.413-0.812 0.584v0c-0.455 0.448-0.502 0.856-0.14 1.223v0c0.538 0.547 1.713 0.85 3.523 0.908v0l0.001 0.843c-1.28 0.23-2.668 0.223-4.165-0.019-1.501-0.238-2.788-0.902-3.86-1.992v0c-0.686-0.697-1.055-1.397-1.106-2.098-0.047-0.706 0.213-1.338 0.779-1.896v0c0.455-0.448 0.972-0.847 1.551-1.198 0.575-0.356 1.197-0.735 1.869-1.137v0l7.073-4.128c0.719-0.402 1.371-0.786 1.954-1.152 0.589-0.36 1.058-0.712 1.407-1.054v0c0.784-0.772 0.834-1.506 0.148-2.204v0c-1.096-1.114-3.384-1.716-6.866-1.807v0l-5.309 3.365c-1.588 1-3.028 1.935-4.317 2.803-1.294 0.864-2.604 1.775-3.928 2.735z" fill="black"></path><path d="M87.872 270.218v0c-2.097-0.848-3.528-2.219-4.294-4.112-0.772-1.895-0.637-4.13 0.405-6.705v0c0.724-1.788 1.73-3.378 3.018-4.77 1.288-1.391 2.74-2.507 4.356-3.348 1.612-0.85 3.303-1.345 5.074-1.486 1.772-0.141 3.507 0.133 5.208 0.821v0c1.757 0.711 2.934 1.649 3.533 2.814 0.598 1.165 0.629 2.412 0.091 3.741v0c-0.655 1.618-2.37 2.778-5.146 3.48-2.772 0.71-6.363 0.686-10.775-0.073v0c-0.656 1.874-0.759 3.397-0.309 4.568 0.449 1.171 1.367 2.037 2.752 2.597v0c1.247 0.504 2.499 0.634 3.756 0.388 1.254-0.255 2.397-0.682 3.432-1.282v0l0.455 0.722c-1.002 0.847-2.146 1.572-3.43 2.174-1.284 0.602-2.614 0.972-3.989 1.112-1.373 0.133-2.752-0.08-4.137-0.641zM100.629 251.891v0c-0.655-0.265-1.463-0.269-2.424-0.013-0.958 0.25-1.961 0.716-3.006 1.399-1.052 0.681-2.053 1.543-3.003 2.588-0.953 1.051-1.755 2.254-2.406 3.61v0c3.553 0.346 6.255 0.087 8.106-0.776 1.854-0.869 3.096-2.082 3.725-3.637v0c0.334-0.825 0.391-1.501 0.173-2.029-0.21-0.532-0.598-0.912-1.165-1.142z" fill="black"></path><path d="M139.331 279.502l-5.165 0.498-0.469-0.396 3.062-16.732c0.241-1.229-0.239-2.073-1.44-2.532v0l-0.7-0.257 0.072-0.777 8.057-2.64 0.51 0.446-0.877 5.21c1.546-1.724 3.132-3.117 4.756-4.177 1.624-1.067 3.156-1.619 4.596-1.655v0c0.978-0.025 1.787 0.254 2.426 0.835 0.64 0.575 0.975 1.474 1.006 2.696v0c0.017 0.672-0.027 1.356-0.131 2.052-0.105 0.689-0.24 1.402-0.404 2.14v0l-2.095 9.451c-0.11 0.492-0.201 0.916-0.274 1.27-0.066 0.355-0.096 0.655-0.089 0.9v0c0.016 0.638 0.286 0.951 0.809 0.937v0c0.794-0.02 1.787-0.687 2.976-2.002v0l0.658 0.626c-0.739 1.153-1.708 2.18-2.908 3.08-1.2 0.9-2.547 1.369-4.041 1.407v0c-0.951 0.024-1.707-0.184-2.269-0.625-0.562-0.448-0.853-1.069-0.873-1.863v0c-0.016-0.638 0.045-1.289 0.185-1.952 0.133-0.662 0.298-1.377 0.496-2.143v0l1.599-7.287c0.221-0.923 0.401-1.753 0.539-2.49 0.131-0.737 0.189-1.398 0.174-1.982v0c-0.015-0.611-0.155-1.026-0.419-1.243-0.264-0.224-0.61-0.331-1.038-0.32v0c-0.733 0.019-1.605 0.353-2.614 1.004-1.01 0.651-2.139 1.665-3.388 3.041v0l-1.09 5.674c-0.299 1.625-0.58 3.252-0.844 4.884-0.265 1.624-0.529 3.265-0.793 4.922z" fill="black"></path><path d="M189.221 243.417v0c-0.786 0.338-1.569 0.376-2.348 0.112-0.779-0.264-1.355-0.829-1.729-1.697v0c-0.4-0.93-0.395-1.845 0.017-2.747 0.408-0.908 1.033-1.543 1.875-1.905v0c0.817-0.352 1.603-0.383 2.356-0.093 0.759 0.287 1.314 0.836 1.663 1.648v0c0.387 0.899 0.389 1.815 0.006 2.748-0.385 0.927-0.999 1.572-1.84 1.934zM195.639 269.007v0c-0.842 0.362-1.629 0.442-2.36 0.239-0.734-0.194-1.283-0.713-1.645-1.555v0c-0.207-0.48-0.399-1.082-0.577-1.804-0.178-0.722-0.348-1.462-0.511-2.22v0l-2.112-10.372c-0.258-1.287-1.04-1.901-2.345-1.842v0l-0.698 0.001-0.242-0.794 6.639-5.452 0.602 0.24 3.271 16.418c0.092 0.523 0.185 0.971 0.278 1.344 0.097 0.38 0.211 0.723 0.343 1.028v0c0.266 0.618 0.679 0.806 1.241 0.564v0c0.674-0.29 1.33-1.205 1.97-2.744v0l0.78 0.319c-0.253 1.336-0.738 2.625-1.454 3.864-0.716 1.24-1.776 2.162-3.18 2.766z" fill="black"></path><path d="M238.653 239.612v0c-1.111 1.098-2.339 1.881-3.681 2.348-1.343 0.467-2.731 0.517-4.165 0.148-1.434-0.359-2.829-1.225-4.185-2.598v0c-1.375-1.392-2.451-2.95-3.228-4.674-0.777-1.724-1.235-3.492-1.373-5.304-0.143-1.816 0.067-3.561 0.629-5.234 0.563-1.673 1.484-3.142 2.765-4.407v0c1.72-1.7 3.635-2.613 5.744-2.739 2.105-0.131 4.179 0.837 6.222 2.905v0c1.351 1.367 2.415 2.913 3.193 4.638 0.777 1.724 1.242 3.49 1.394 5.297 0.152 1.807-0.041 3.545-0.579 5.213-0.543 1.673-1.455 3.142-2.736 4.407zM238.143 238.312v0c0.696-0.687 1.03-1.61 1.003-2.768-0.022-1.153-0.312-2.423-0.87-3.809-0.549-1.387-1.306-2.796-2.273-4.229-0.966-1.432-2.039-2.745-3.218-3.939v0c-1.7-1.72-3.082-2.718-4.146-2.993-1.069-0.28-1.921-0.108-2.554 0.517v0c-0.696 0.687-1.054 1.615-1.076 2.782-0.031 1.167 0.218 2.453 0.748 3.859 0.534 1.411 1.265 2.827 2.193 4.25 0.933 1.418 2.001 2.736 3.204 3.953v0c1.743 1.764 3.173 2.767 4.29 3.009 1.122 0.247 2.022 0.036 2.699-0.632z" fill="black"></path><path d="M267.906 197.691v0c-0.309 0.834-0.825 1.483-1.548 1.948-0.729 0.461-1.536 0.528-2.421 0.199v0c-0.72-0.267-1.215-0.719-1.486-1.355-0.265-0.634-0.269-1.295-0.015-1.983v0c0.319-0.86 1.015-1.467 2.089-1.823v0c1.283-0.372 1.564-1.13 0.843-2.274v0c-0.546-0.891-1.148-1.817-1.806-2.778-0.651-0.959-1.33-1.942-2.035-2.95v0l-7.418-0.306c-1.106-0.084-1.909-0.049-2.408 0.107-0.5 0.155-0.84 0.478-1.023 0.968v0c-0.106 0.287-0.15 0.669-0.131 1.147 0.018 0.478 0.229 1.052 0.632 1.723v0l-0.929 0.395c-2.027-2.875-2.69-5.258-1.989-7.15v0c0.404-1.089 1.019-1.781 1.846-2.075 0.827-0.295 1.992-0.409 3.497-0.345v0l4.581 0.189c-0.995-1.282-1.841-2.429-2.538-3.441-0.706-1.008-1.2-1.746-1.484-2.213v0c-0.725-1.211-1.132-2.242-1.221-3.094-0.092-0.846-0.005-1.628 0.262-2.347v0c0.265-0.713 0.712-1.265 1.342-1.655 0.634-0.381 1.365-0.418 2.192-0.11v0c0.745 0.276 1.256 0.726 1.532 1.35 0.276 0.624 0.303 1.235 0.08 1.834v0c-0.352 0.949-1.007 1.572-1.964 1.869v0c-0.517 0.163-0.849 0.374-0.995 0.631-0.146 0.257-0.048 0.678 0.293 1.26v0c0.371 0.659 0.914 1.52 1.629 2.582 0.715 1.062 1.488 2.189 2.321 3.382v0l7.66 0.298c1.15 0.064 1.952 0.01 2.407-0.161 0.455-0.172 0.767-0.487 0.937-0.946v0c0.276-0.745 0.073-1.817-0.611-3.215v0l0.877-0.403c0.918 1.217 1.594 2.471 2.028 3.763 0.436 1.285 0.448 2.484 0.034 3.599v0c-0.331 0.892-0.849 1.565-1.553 2.021-0.705 0.456-1.783 0.657-3.235 0.604v0l-5.241-0.227c0.918 1.217 1.729 2.322 2.433 3.315 0.708 1.002 1.306 1.901 1.793 2.697v0c0.578 0.903 0.926 1.742 1.044 2.517 0.118 0.776 0.018 1.593-0.301 2.453z" fill="black"></path><path d="M0.04 139.066c0-6.393 5.183-11.575 11.576-11.576 6.393 0 11.575 5.183 11.575 11.576 0 6.393-5.183 11.575-11.575 11.575-6.393 0-11.575-5.183-11.576-11.575z" fill="black"></path><path d="M256.809 139.066c0-6.393 5.183-11.575 11.575-11.576 6.393 0 11.575 5.183 11.576 11.576 0 6.393-5.183 11.575-11.576 11.575-6.393 0-11.575-5.183-11.575-11.575z" fill="black"></path></g><g id="SvgjsG2116"></g></svg></g><defs><mask></mask></defs></svg><rect width="280" height="280" fill="black" stroke="none" visibility="hidden"></rect></g></mask><linearGradient x1="0.054" x2="0.941" y1="0.5" y2="0.5" id="2ed9f8b6-7b63-4c8b-9846-44c8469b3498"><stop stop-color="#0f3054" offset="0"></stop><stop stop-color="#3b8dcb" offset="0.498"></stop><stop stop-color="#0f3054" offset="1"></stop></linearGradient><rect width="280" height="280" fill="url(#2ed9f8b6-7b63-4c8b-9846-44c8469b3498)" mask="url(#46bf3c61-672a-497c-bf57-2be4daf8570e)" data-fill-palette-color="primary"></rect><mask id="bc6b447c-3d0a-47e2-9d7c-1fac7076ce9d"><g id="SvgjsG2149"><svg viewBox="0 0 280 280" height="280" width="280"><g><svg viewBox="0 0 280 280" height="280" width="280"><g transform="matrix(1,0,0,1,60.80404050710668,97.04822062119533)"><svg viewBox="0 0 158.39191898578665 85.90355875760935" height="85.90355875760935" width="158.39191898578665"><g><svg viewBox="0 0 158.39191898578665 85.90355875760935" height="85.90355875760935" width="158.39191898578665"><g transform="matrix(1,0,0,1,0,53.091845592059784)"><svg viewBox="0 0 158.39191898578665 32.81171316554957" height="32.81171316554957" width="158.39191898578665"><g id="SvgjsG2148"><svg viewBox="0 0 158.39191898578665 32.81171316554957" height="32.81171316554957" width="158.39191898578665" id="SvgjsSvg2147"><g><svg viewBox="0 0 158.39191898578665 32.81171316554957" height="32.81171316554957" width="158.39191898578665"><g transform="matrix(1,0,0,1,0,0)"><svg width="158.39191898578665" viewBox="0.2 -35.1 173.29000000000002 35.9" height="32.81171316554957" data-palette-color="url(#2ed9f8b6-7b63-4c8b-9846-44c8469b3498)"></svg></g></svg></g></svg></g></svg></g><g transform="matrix(1,0,0,1,33.961991120820905,0)"><svg viewBox="0 0 90.46793674414484 45.345787594789506" height="45.345787594789506" width="90.46793674414484"><g><svg xmlns="http://www.w3.org/2000/svg" xmlns:xlink="http://www.w3.org/1999/xlink" xml:space="preserve" style="shape-rendering:geometricPrecision;text-rendering:geometricPrecision;image-rendering:optimizeQuality;" viewBox="0.0000020000000000575113 0.0000027841116459863258 14.727499 7.381952827609914" x="0" y="0" fill-rule="evenodd" clip-rule="evenodd" width="90.46793674414484" height="45.345787594789506" class="icon-icon-0" data-fill-palette-color="accent" id="SvgjsSvg2146"><g fill="white"><path class="" d="M1.757 3.091c-0.313 0.444-0.296 1.331-0.417 1.95-0.153 0.784-0.711 1.203-1.34 1.534 0.188-0.771 0.348-1.542 0.412-2.313 0.078-0.953-0.06-0.891 0.767-1.575 1.159-0.961 3.04-1.741 5.848-2.29 2.456-0.406 5.049-0.453 7.701-0.351-0.89 1.809-3.733 1.961-7.203 1.581-1.811 0.02-3.495-0.488-5.768 1.464z m8.33 2.781c-3.895 2.038-7.803-2.284-9.165 0.688 2.104-1.831 5.079 3.183 9.165-0.688z m2.489-2.547c-4.49 2.72-9.502-0.792-10.907 1.859 3.412-1.235 7.765 2.753 10.907-1.859z m0.834-1.478c-3.944 1.761-10.043-1.402-11.565 2.239 3.106-1.808 8.446 1.438 11.565-2.239z" fill="white"></path></g></svg></g></svg></g><g></g></svg></g></svg></g><g id="SvgjsG2145"><path d="M29.824 99.581l-3.604 9.759-0.79-0.476 0.038-0.486c0.091-1.226-0.402-2.176-1.479-2.849v0l-10.249-6.131c-1.349-0.838-2.735-1.673-4.159-2.502-1.422-0.836-2.942-1.72-4.56-2.651v0c-1.105-0.596-2.017-0.412-2.735 0.554v0l-0.273 0.355-0.776-0.514 3.215-8.708c1.266-3.428 2.856-5.676 4.771-6.743 1.911-1.076 3.946-1.215 6.106-0.417v0c1.619 0.598 2.949 1.603 3.991 3.017 1.042 1.413 1.65 3.18 1.823 5.3 0.169 2.112-0.25 4.531-1.258 7.258v0l-0.702 1.902c1.013 0.591 2.084 1.219 3.215 1.882 1.137 0.666 2.3 1.342 3.488 2.027v0c1.096 0.68 2.039 0.489 2.829-0.573v0l0.318-0.48zM18.057 95.562v0l0.583-1.577c0.788-2.135 0.707-4.091-0.244-5.869-0.957-1.78-2.663-3.123-5.116-4.029v0c-1.943-0.718-3.582-0.849-4.917-0.393-1.337 0.462-2.293 1.474-2.869 3.035v0l-0.406 1.1c2.159 1.29 4.32 2.577 6.482 3.86 2.166 1.292 4.328 2.583 6.487 3.873z" fill="white"></path><path d="M53.247 59.79l-3.244 3.767-0.489 0.007-10.831-16.1c-0.578-0.848-1.116-1.623-1.615-2.328-0.499-0.704-1.05-1.492-1.652-2.364v0c-0.724-1.028-1.642-1.22-2.753-0.576v0l-0.58 0.288-0.433-0.607 3.839-7.284 0.519-0.035 7.759 11.586c-0.051-2.05 0.147-3.986 0.595-5.808 0.442-1.817 1.135-3.209 2.078-4.178v0c0.645-0.662 1.368-1 2.17-1.015 0.802-0.025 1.616 0.366 2.444 1.171v0c0.452 0.441 0.87 0.928 1.251 1.461 0.386 0.538 0.766 1.107 1.139 1.707v0l4.644 7.484c0.314 0.467 0.573 0.872 0.78 1.215 0.206 0.343 0.392 0.595 0.557 0.756v0c0.433 0.422 0.82 0.458 1.161 0.108v0c0.502-0.516 0.764-1.631 0.786-3.347v0l0.792-0.01c0.237 1.198 0.258 2.504 0.065 3.919-0.198 1.42-0.799 2.645-1.804 3.676v0c-0.64 0.657-1.289 1.016-1.945 1.078-0.667 0.062-1.268-0.168-1.803-0.69v0c-0.433-0.422-0.819-0.902-1.158-1.44-0.343-0.534-0.713-1.112-1.11-1.737v0l-4.02-6.577c-0.398-0.663-0.773-1.265-1.126-1.808-0.348-0.548-0.688-0.983-1.019-1.305v0c-0.744-0.725-1.439-0.757-2.083-0.095v0c-1.024 1.051-1.543 3.214-1.558 6.49v0l3.27 4.937c0.975 1.472 1.884 2.807 2.726 4.006 0.832 1.2 1.715 2.415 2.648 3.648z" fill="white"></path><path d="M96.477 30.26v0c-1.968 0.804-3.833 0.82-5.593 0.049-1.76-0.771-3.136-2.37-4.127-4.797v0c-0.686-1.679-1.05-3.408-1.095-5.188-0.047-1.786 0.198-3.496 0.734-5.131 0.529-1.632 1.345-3.077 2.445-4.333 1.101-1.257 2.45-2.211 4.048-2.864v0c1.654-0.675 3.068-0.816 4.241-0.422 1.165 0.39 2.002 1.211 2.513 2.463v0c0.621 1.522 0.228 3.433-1.181 5.732-1.403 2.297-3.841 4.635-7.316 7.015v0c0.79 1.702 1.72 2.801 2.788 3.297 1.074 0.493 2.263 0.474 3.564-0.057v0c1.176-0.48 2.105-1.215 2.787-2.206 0.679-0.996 1.171-2.037 1.476-3.123v0l0.771 0.192c-0.115 1.228-0.409 2.467-0.881 3.716-0.467 1.247-1.12 2.369-1.961 3.365-0.834 0.994-1.905 1.758-3.213 2.292zM93.047 9.517v0c-0.61 0.249-1.157 0.777-1.642 1.584-0.481 0.798-0.851 1.771-1.109 2.918-0.264 1.15-0.374 2.391-0.329 3.722 0.054 1.335 0.305 2.671 0.755 4.006v0c2.624-2.091 4.276-4.039 4.956-5.843 0.68-1.804 0.72-3.438 0.122-4.903v0c-0.313-0.767-0.717-1.263-1.212-1.486-0.492-0.217-1.006-0.217-1.541 0.002z" fill="white"></path><path d="M138.836 21.312l-4.888 0.23-0.429-0.398 3.654-15.588c0.292-1.141-0.12-1.956-1.236-2.445v0l-0.635-0.28 0.099-0.732 7.694-2.099 0.468 0.439-1.073 4.857c1.539-1.546 3.093-2.783 4.664-3.711 1.578-0.927 3.043-1.375 4.394-1.343v0c0.924 0.022 1.674 0.322 2.252 0.9 0.578 0.571 0.852 1.434 0.825 2.588v0c-0.015 0.632-0.088 1.268-0.219 1.911-0.131 0.649-0.293 1.315-0.486 1.996v0l-2.412 8.8c-0.126 0.452-0.227 0.844-0.303 1.175-0.083 0.331-0.127 0.612-0.132 0.842v0c-0.014 0.604 0.223 0.912 0.712 0.924v0c0.747 0.018 1.712-0.564 2.895-1.745v0l0.587 0.616c-0.745 1.049-1.702 1.971-2.869 2.765-1.174 0.787-2.464 1.164-3.869 1.13v0c-0.896-0.021-1.598-0.252-2.104-0.692-0.506-0.447-0.75-1.044-0.732-1.791v0c0.014-0.604 0.1-1.214 0.258-1.828 0.157-0.615 0.346-1.279 0.568-1.995v0l1.843-6.774c0.251-0.857 0.457-1.63 0.616-2.319 0.159-0.689 0.245-1.306 0.258-1.849v0c0.014-0.577-0.099-0.977-0.338-1.201-0.239-0.216-0.559-0.329-0.96-0.338v0c-0.693-0.017-1.528 0.256-2.507 0.816-0.978 0.568-2.084 1.472-3.316 2.714v0l-1.298 5.279c-0.349 1.514-0.687 3.031-1.016 4.552-0.322 1.514-0.643 3.046-0.965 4.594z" fill="white"></path><path d="M199.736 10.302v0c-0.736-0.318-1.266-0.829-1.591-1.531-0.325-0.703-0.31-1.466 0.046-2.289v0c0.375-0.867 1.007-1.455 1.897-1.767 0.887-0.305 1.726-0.286 2.517 0.057v0c0.761 0.329 1.287 0.849 1.579 1.559 0.288 0.702 0.267 1.436-0.064 2.204v0c-0.364 0.842-0.987 1.435-1.869 1.778-0.885 0.335-1.723 0.332-2.515-0.011zM186.368 31.23v0c-0.798-0.345-1.365-0.831-1.701-1.457-0.34-0.635-0.338-1.349 0.004-2.141v0c0.194-0.449 0.482-0.968 0.863-1.558 0.378-0.584 0.776-1.178 1.192-1.782v0l5.736-8.155c0.723-1.005 0.64-1.933-0.251-2.783v0l-0.446-0.482 0.382-0.679 8.025 1.029 0.223 0.562-9.13 12.848c-0.3 0.403-0.547 0.759-0.74 1.068-0.196 0.3-0.358 0.596-0.484 0.889v0c-0.251 0.58-0.111 0.984 0.419 1.214v0c0.636 0.275 1.685 0.133 3.148-0.426v0l0.292 0.737c-1.084 0.693-2.282 1.196-3.595 1.509-1.309 0.307-2.622 0.176-3.937-0.393z" fill="white"></path><path d="M222.294 56.002v0c-1.038-1.037-1.783-2.185-2.235-3.442-0.447-1.263-0.503-2.572-0.168-3.927 0.34-1.35 1.152-2.666 2.434-3.949v0c1.301-1.302 2.758-2.324 4.372-3.064 1.618-0.745 3.282-1.19 4.992-1.335 1.71-0.145 3.353 0.042 4.928 0.559 1.576 0.518 2.964 1.377 4.166 2.578v0c1.61 1.608 2.48 3.404 2.61 5.388 0.131 1.984-0.769 3.941-2.699 5.873v0c-1.282 1.283-2.732 2.297-4.35 3.042-1.614 0.74-3.27 1.188-4.971 1.343-1.7 0.154-3.338-0.018-4.914-0.517-1.576-0.499-2.964-1.348-4.165-2.549zM223.511 55.519v0c0.654 0.653 1.525 0.962 2.616 0.928 1.085-0.029 2.279-0.311 3.58-0.844 1.306-0.529 2.629-1.252 3.969-2.171 1.344-0.913 2.576-1.93 3.695-3.049v0c1.604-1.605 2.532-2.914 2.786-3.928 0.254-1.004 0.086-1.801-0.505-2.391v0c-0.649-0.648-1.523-0.984-2.623-1.008-1.1-0.014-2.31 0.232-3.631 0.737-1.325 0.51-2.653 1.209-3.983 2.098-1.33 0.88-2.566 1.891-3.709 3.035v0c-1.647 1.648-2.58 3.001-2.801 4.057-0.225 1.062-0.023 1.907 0.606 2.536z" fill="white"></path><path d="M245.972 89.894v0c-0.286-0.785-0.31-1.564-0.071-2.338 0.236-0.78 0.772-1.322 1.609-1.627v0c0.677-0.246 1.307-0.223 1.89 0.07 0.578 0.296 0.985 0.769 1.223 1.42v0c0.295 0.811 0.163 1.668-0.397 2.574v0c-0.686 1.053-0.425 1.771 0.785 2.154v0c0.941 0.301 1.938 0.595 2.99 0.884 1.052 0.289 2.139 0.583 3.261 0.883v0l5.512-4.307c0.845-0.619 1.398-1.135 1.659-1.548 0.261-0.413 0.309-0.85 0.141-1.309v0c-0.1-0.274-0.301-0.577-0.602-0.908-0.31-0.335-0.811-0.619-1.503-0.852v0l0.418-0.846c3.212 0.818 5.143 2.121 5.794 3.908v0c0.374 1.028 0.355 1.898-0.057 2.612-0.416 0.723-1.186 1.517-2.31 2.381v0l-3.391 2.657c1.496 0.315 2.801 0.624 3.916 0.926 1.119 0.294 1.922 0.522 2.407 0.685v0c1.26 0.423 2.183 0.911 2.768 1.464 0.585 0.553 1 1.168 1.246 1.845v0c0.246 0.677 0.258 1.344 0.036 2.003-0.214 0.663-0.713 1.138-1.498 1.425v0c-0.702 0.256-1.343 0.243-1.922-0.038-0.579-0.281-0.972-0.705-1.179-1.272v0c-0.323-0.887-0.229-1.731 0.281-2.532v0c0.267-0.437 0.374-0.79 0.319-1.06-0.048-0.272-0.371-0.512-0.968-0.721v0c-0.675-0.246-1.593-0.533-2.753-0.862-1.161-0.329-2.4-0.665-3.719-1.009v0l-5.685 4.457c-0.861 0.653-1.403 1.18-1.626 1.579-0.221 0.406-0.253 0.822-0.098 1.25v0c0.258 0.708 1.06 1.352 2.407 1.932v0l-0.393 0.827c-1.401-0.314-2.648-0.799-3.741-1.457-1.099-0.655-1.84-1.509-2.224-2.562v0c-0.307-0.842-0.345-1.642-0.115-2.398 0.231-0.756 0.881-1.561 1.951-2.414v0l3.898-3.025c-1.401-0.314-2.657-0.615-3.768-0.904-1.114-0.281-2.09-0.558-2.927-0.832v0c-0.96-0.294-1.721-0.685-2.282-1.174-0.559-0.483-0.986-1.13-1.282-1.941z" fill="white"></path><path d="M8.806 187.082l-3.889-10.338 0.961-0.165 0.31 0.417c0.786 1.047 1.84 1.467 3.162 1.259v0l12.498-2.197c1.662-0.27 3.354-0.565 5.077-0.887 1.729-0.324 3.569-0.671 5.519-1.042v0c1.292-0.29 1.894-1.072 1.807-2.345v0l-0.028-0.479 0.975-0.128 3.473 9.232c1.366 3.63 1.652 6.542 0.858 8.734-0.787 2.19-2.325 3.716-4.614 4.577v0c-1.717 0.646-3.487 0.764-5.31 0.354-1.815-0.406-3.528-1.402-5.141-2.987-1.604-1.581-2.949-3.818-4.037-6.711v0l-0.757-2.012c-1.221 0.227-2.52 0.469-3.897 0.725-1.37 0.254-2.773 0.52-4.206 0.799v0c-1.355 0.219-1.979 1.028-1.875 2.425v0l0.075 0.603zM21.054 182.137v0l0.628 1.669c0.851 2.263 2.277 3.777 4.277 4.542 2 0.764 4.304 0.656 6.911-0.325v0c2.06-0.775 3.467-1.809 4.222-3.101 0.752-1.299 0.816-2.778 0.192-4.438v0l-0.434-1.154c-2.633 0.468-5.265 0.936-7.898 1.404-2.633 0.468-5.265 0.936-7.898 1.403z" fill="white"></path><path d="M37.274 234.48l-3.926-3.541-0.003-0.512 17.34-11.141c0.918-0.598 1.755-1.15 2.513-1.658 0.758-0.517 1.606-1.084 2.543-1.701v0c1.111-0.75 1.335-1.723 0.672-2.92v0l-0.29-0.615 0.659-0.449 7.639 4.249 0.031 0.555-12.479 7.96c2.181-0.001 4.232 0.253 6.154 0.764 1.917 0.515 3.381 1.286 4.391 2.313v0c0.686 0.697 1.03 1.473 1.032 2.328 0.007 0.85-0.425 1.704-1.296 2.562v0c-0.479 0.472-1.009 0.907-1.588 1.305-0.575 0.394-1.188 0.783-1.84 1.167v0l-8.051 4.761c-0.497 0.318-0.932 0.583-1.303 0.797-0.367 0.218-0.637 0.413-0.812 0.584v0c-0.455 0.448-0.502 0.856-0.14 1.223v0c0.538 0.547 1.713 0.85 3.523 0.908v0l0.001 0.843c-1.28 0.23-2.668 0.223-4.165-0.019-1.501-0.238-2.788-0.902-3.86-1.992v0c-0.686-0.697-1.055-1.397-1.106-2.098-0.047-0.706 0.213-1.338 0.779-1.896v0c0.455-0.448 0.972-0.847 1.551-1.198 0.575-0.356 1.197-0.735 1.869-1.137v0l7.073-4.128c0.719-0.402 1.371-0.786 1.954-1.152 0.589-0.36 1.058-0.712 1.407-1.054v0c0.784-0.772 0.834-1.506 0.148-2.204v0c-1.096-1.114-3.384-1.716-6.866-1.807v0l-5.309 3.365c-1.588 1-3.028 1.935-4.317 2.803-1.294 0.864-2.604 1.775-3.928 2.735z" fill="white"></path><path d="M87.872 270.218v0c-2.097-0.848-3.528-2.219-4.294-4.112-0.772-1.895-0.637-4.13 0.405-6.705v0c0.724-1.788 1.73-3.378 3.018-4.77 1.288-1.391 2.74-2.507 4.356-3.348 1.612-0.85 3.303-1.345 5.074-1.486 1.772-0.141 3.507 0.133 5.208 0.821v0c1.757 0.711 2.934 1.649 3.533 2.814 0.598 1.165 0.629 2.412 0.091 3.741v0c-0.655 1.618-2.37 2.778-5.146 3.48-2.772 0.71-6.363 0.686-10.775-0.073v0c-0.656 1.874-0.759 3.397-0.309 4.568 0.449 1.171 1.367 2.037 2.752 2.597v0c1.247 0.504 2.499 0.634 3.756 0.388 1.254-0.255 2.397-0.682 3.432-1.282v0l0.455 0.722c-1.002 0.847-2.146 1.572-3.43 2.174-1.284 0.602-2.614 0.972-3.989 1.112-1.373 0.133-2.752-0.08-4.137-0.641zM100.629 251.891v0c-0.655-0.265-1.463-0.269-2.424-0.013-0.958 0.25-1.961 0.716-3.006 1.399-1.052 0.681-2.053 1.543-3.003 2.588-0.953 1.051-1.755 2.254-2.406 3.61v0c3.553 0.346 6.255 0.087 8.106-0.776 1.854-0.869 3.096-2.082 3.725-3.637v0c0.334-0.825 0.391-1.501 0.173-2.029-0.21-0.532-0.598-0.912-1.165-1.142z" fill="white"></path><path d="M139.331 279.502l-5.165 0.498-0.469-0.396 3.062-16.732c0.241-1.229-0.239-2.073-1.44-2.532v0l-0.7-0.257 0.072-0.777 8.057-2.64 0.51 0.446-0.877 5.21c1.546-1.724 3.132-3.117 4.756-4.177 1.624-1.067 3.156-1.619 4.596-1.655v0c0.978-0.025 1.787 0.254 2.426 0.835 0.64 0.575 0.975 1.474 1.006 2.696v0c0.017 0.672-0.027 1.356-0.131 2.052-0.105 0.689-0.24 1.402-0.404 2.14v0l-2.095 9.451c-0.11 0.492-0.201 0.916-0.274 1.27-0.066 0.355-0.096 0.655-0.089 0.9v0c0.016 0.638 0.286 0.951 0.809 0.937v0c0.794-0.02 1.787-0.687 2.976-2.002v0l0.658 0.626c-0.739 1.153-1.708 2.18-2.908 3.08-1.2 0.9-2.547 1.369-4.041 1.407v0c-0.951 0.024-1.707-0.184-2.269-0.625-0.562-0.448-0.853-1.069-0.873-1.863v0c-0.016-0.638 0.045-1.289 0.185-1.952 0.133-0.662 0.298-1.377 0.496-2.143v0l1.599-7.287c0.221-0.923 0.401-1.753 0.539-2.49 0.131-0.737 0.189-1.398 0.174-1.982v0c-0.015-0.611-0.155-1.026-0.419-1.243-0.264-0.224-0.61-0.331-1.038-0.32v0c-0.733 0.019-1.605 0.353-2.614 1.004-1.01 0.651-2.139 1.665-3.388 3.041v0l-1.09 5.674c-0.299 1.625-0.58 3.252-0.844 4.884-0.265 1.624-0.529 3.265-0.793 4.922z" fill="white"></path><path d="M189.221 243.417v0c-0.786 0.338-1.569 0.376-2.348 0.112-0.779-0.264-1.355-0.829-1.729-1.697v0c-0.4-0.93-0.395-1.845 0.017-2.747 0.408-0.908 1.033-1.543 1.875-1.905v0c0.817-0.352 1.603-0.383 2.356-0.093 0.759 0.287 1.314 0.836 1.663 1.648v0c0.387 0.899 0.389 1.815 0.006 2.748-0.385 0.927-0.999 1.572-1.84 1.934zM195.639 269.007v0c-0.842 0.362-1.629 0.442-2.36 0.239-0.734-0.194-1.283-0.713-1.645-1.555v0c-0.207-0.48-0.399-1.082-0.577-1.804-0.178-0.722-0.348-1.462-0.511-2.22v0l-2.112-10.372c-0.258-1.287-1.04-1.901-2.345-1.842v0l-0.698 0.001-0.242-0.794 6.639-5.452 0.602 0.24 3.271 16.418c0.092 0.523 0.185 0.971 0.278 1.344 0.097 0.38 0.211 0.723 0.343 1.028v0c0.266 0.618 0.679 0.806 1.241 0.564v0c0.674-0.29 1.33-1.205 1.97-2.744v0l0.78 0.319c-0.253 1.336-0.738 2.625-1.454 3.864-0.716 1.24-1.776 2.162-3.18 2.766z" fill="white"></path><path d="M238.653 239.612v0c-1.111 1.098-2.339 1.881-3.681 2.348-1.343 0.467-2.731 0.517-4.165 0.148-1.434-0.359-2.829-1.225-4.185-2.598v0c-1.375-1.392-2.451-2.95-3.228-4.674-0.777-1.724-1.235-3.492-1.373-5.304-0.143-1.816 0.067-3.561 0.629-5.234 0.563-1.673 1.484-3.142 2.765-4.407v0c1.72-1.7 3.635-2.613 5.744-2.739 2.105-0.131 4.179 0.837 6.222 2.905v0c1.351 1.367 2.415 2.913 3.193 4.638 0.777 1.724 1.242 3.49 1.394 5.297 0.152 1.807-0.041 3.545-0.579 5.213-0.543 1.673-1.455 3.142-2.736 4.407zM238.143 238.312v0c0.696-0.687 1.03-1.61 1.003-2.768-0.022-1.153-0.312-2.423-0.87-3.809-0.549-1.387-1.306-2.796-2.273-4.229-0.966-1.432-2.039-2.745-3.218-3.939v0c-1.7-1.72-3.082-2.718-4.146-2.993-1.069-0.28-1.921-0.108-2.554 0.517v0c-0.696 0.687-1.054 1.615-1.076 2.782-0.031 1.167 0.218 2.453 0.748 3.859 0.534 1.411 1.265 2.827 2.193 4.25 0.933 1.418 2.001 2.736 3.204 3.953v0c1.743 1.764 3.173 2.767 4.29 3.009 1.122 0.247 2.022 0.036 2.699-0.632z" fill="white"></path><path d="M267.906 197.691v0c-0.309 0.834-0.825 1.483-1.548 1.948-0.729 0.461-1.536 0.528-2.421 0.199v0c-0.72-0.267-1.215-0.719-1.486-1.355-0.265-0.634-0.269-1.295-0.015-1.983v0c0.319-0.86 1.015-1.467 2.089-1.823v0c1.283-0.372 1.564-1.13 0.843-2.274v0c-0.546-0.891-1.148-1.817-1.806-2.778-0.651-0.959-1.33-1.942-2.035-2.95v0l-7.418-0.306c-1.106-0.084-1.909-0.049-2.408 0.107-0.5 0.155-0.84 0.478-1.023 0.968v0c-0.106 0.287-0.15 0.669-0.131 1.147 0.018 0.478 0.229 1.052 0.632 1.723v0l-0.929 0.395c-2.027-2.875-2.69-5.258-1.989-7.15v0c0.404-1.089 1.019-1.781 1.846-2.075 0.827-0.295 1.992-0.409 3.497-0.345v0l4.581 0.189c-0.995-1.282-1.841-2.429-2.538-3.441-0.706-1.008-1.2-1.746-1.484-2.213v0c-0.725-1.211-1.132-2.242-1.221-3.094-0.092-0.846-0.005-1.628 0.262-2.347v0c0.265-0.713 0.712-1.265 1.342-1.655 0.634-0.381 1.365-0.418 2.192-0.11v0c0.745 0.276 1.256 0.726 1.532 1.35 0.276 0.624 0.303 1.235 0.08 1.834v0c-0.352 0.949-1.007 1.572-1.964 1.869v0c-0.517 0.163-0.849 0.374-0.995 0.631-0.146 0.257-0.048 0.678 0.293 1.26v0c0.371 0.659 0.914 1.52 1.629 2.582 0.715 1.062 1.488 2.189 2.321 3.382v0l7.66 0.298c1.15 0.064 1.952 0.01 2.407-0.161 0.455-0.172 0.767-0.487 0.937-0.946v0c0.276-0.745 0.073-1.817-0.611-3.215v0l0.877-0.403c0.918 1.217 1.594 2.471 2.028 3.763 0.436 1.285 0.448 2.484 0.034 3.599v0c-0.331 0.892-0.849 1.565-1.553 2.021-0.705 0.456-1.783 0.657-3.235 0.604v0l-5.241-0.227c0.918 1.217 1.729 2.322 2.433 3.315 0.708 1.002 1.306 1.901 1.793 2.697v0c0.578 0.903 0.926 1.742 1.044 2.517 0.118 0.776 0.018 1.593-0.301 2.453z" fill="white"></path><path d="M0.04 139.066c0-6.393 5.183-11.575 11.576-11.576 6.393 0 11.575 5.183 11.575 11.576 0 6.393-5.183 11.575-11.575 11.575-6.393 0-11.575-5.183-11.576-11.575z" fill="white"></path><path d="M256.809 139.066c0-6.393 5.183-11.575 11.575-11.576 6.393 0 11.575 5.183 11.576 11.576 0 6.393-5.183 11.575-11.576 11.575-6.393 0-11.575-5.183-11.575-11.575z" fill="white"></path></g><g id="SvgjsG2144"></g></svg></g><defs><mask></mask></defs><mask><g id="SvgjsG2143"><svg viewBox="0 0 280 280" height="280" width="280"><g><svg viewBox="0 0 280 280" height="280" width="280"><g transform="matrix(1,0,0,1,60.80404050710668,97.04822062119533)"><svg viewBox="0 0 158.39191898578665 85.90355875760935" height="85.90355875760935" width="158.39191898578665"><g><svg viewBox="0 0 158.39191898578665 85.90355875760935" height="85.90355875760935" width="158.39191898578665"><g transform="matrix(1,0,0,1,0,53.091845592059784)"><svg viewBox="0 0 158.39191898578665 32.81171316554957" height="32.81171316554957" width="158.39191898578665"><g id="SvgjsG2142"><svg viewBox="0 0 158.39191898578665 32.81171316554957" height="32.81171316554957" width="158.39191898578665" id="SvgjsSvg2141"><g><svg viewBox="0 0 158.39191898578665 32.81171316554957" height="32.81171316554957" width="158.39191898578665"><g transform="matrix(1,0,0,1,0,0)"><svg width="158.39191898578665" viewBox="0.2 -35.1 173.29000000000002 35.9" height="32.81171316554957" data-palette-color="url(#2ed9f8b6-7b63-4c8b-9846-44c8469b3498)"><path d="M12.25 0L0.2 0 0.4-1.05 0.95-1.2Q3-1.8 3.45-3.95L3.45-3.95 6-17.55Q6.55-20.25 7.05-23.08 7.55-25.9 8.1-29.1L8.1-29.1Q8.4-31.25 6.4-31.85L6.4-31.85 5.9-32 6.15-33.05 16.9-33.05Q23.25-33.05 26.15-30.58 29.05-28.1 29.05-24.1L29.05-24.1Q29.05-21.1 27.38-18.55 25.7-16 22.35-14.45 19-12.9 13.95-12.9L13.95-12.9 11.6-12.9Q11.25-10.9 10.85-8.65 10.45-6.4 10.05-4.05L10.05-4.05Q9.6-1.85 11.8-1.2L11.8-1.2 12.45-1.05 12.25 0ZM11.9-14.4L11.9-14.4 13.85-14.4Q17.8-14.4 20.13-17.03 22.45-19.65 22.45-24.2L22.45-24.2Q22.45-27.8 20.9-29.7 19.35-31.6 16.45-31.6L16.45-31.6 15.1-31.6Q14.3-27.3 13.5-23 12.7-18.7 11.9-14.4ZM35.25 0L29.5 0.35 29.1-0.05 33.7-22.05Q34.05-23.8 34.32-25.28 34.6-26.75 34.95-28.55L34.95-28.55Q35.35-30.7 33.2-31.3L33.2-31.3 32.5-31.55 32.65-32.4 41.8-35.1 42.25-34.7 38.9-18.9Q41.4-21.45 44.2-23.1 47-24.75 49.35-24.75L49.35-24.75Q50.95-24.75 51.95-23.78 52.95-22.8 52.95-20.8L52.95-20.8Q52.95-19.7 52.75-18.57 52.55-17.45 52.25-16.25L52.25-16.25 49.8-6.35Q49.6-5.4 49.42-4.73 49.25-4.05 49.25-3.65L49.25-3.65Q49.25-2.6 50.1-2.6L50.1-2.6Q51.35-2.6 53.5-4.65L53.5-4.65 54.15-4Q52.95-2.25 50.95-0.78 48.95 0.7 46.45 0.7L46.45 0.7Q44.85 0.7 43.97-0.05 43.1-0.8 43.1-2.1L43.1-2.1Q43.1-3.15 43.35-4.23 43.6-5.3 43.9-6.55L43.9-6.55 46.1-15.2Q46.45-16.5 46.7-17.6 46.95-18.7 46.95-19.5L46.95-19.5Q46.95-21.3 45.35-21.3L45.35-21.3Q42.8-21.3 38.7-17.35L38.7-17.35 37.25-10.65Q36.6-7.65 36.12-5.15 35.65-2.65 35.25 0L35.25 0ZM65.55 0.7L65.55 0.7Q61.85 0.7 59.52-1.7 57.2-4.1 57.2-8.65L57.2-8.65Q57.2-11.8 58.3-14.7 59.4-17.6 61.32-19.88 63.25-22.15 65.84-23.45 68.45-24.75 71.45-24.75L71.45-24.75Q74.55-24.75 76.17-23.35 77.8-21.95 77.8-19.6L77.8-19.6Q77.8-16.75 74.02-13.98 70.25-11.2 63.1-9.65L63.1-9.65Q63.25-6.4 64.65-4.9 66.05-3.4 68.5-3.4L68.5-3.4Q70.7-3.4 72.45-4.55 74.2-5.7 75.4-7.25L75.4-7.25 76.15-6.7Q75.15-4.8 73.57-3.1 72-1.4 70-0.35 68 0.7 65.55 0.7ZM70.95-23.05L70.95-23.05Q69.8-23.05 68.5-22.08 67.2-21.1 66.02-19.43 64.84-17.75 64.05-15.58 63.25-13.4 63.1-10.95L63.1-10.95Q68.7-12.6 70.97-15.05 73.25-17.5 73.25-20.25L73.25-20.25Q73.25-21.7 72.59-22.38 71.95-23.05 70.95-23.05ZM85.09 0L79.44 0.4 78.94-0.05 82.74-18.2Q83.19-20.2 81.24-21L81.24-21 80.49-21.3 80.59-22.15 89.44-24.8 89.99-24.3 88.89-18.65Q91.49-21.4 94.19-23.08 96.89-24.75 99.24-24.75L99.24-24.75Q100.84-24.75 101.87-23.78 102.89-22.8 102.89-20.8L102.89-20.8Q102.89-19.7 102.69-18.57 102.49-17.45 102.19-16.25L102.19-16.25 99.64-6Q99.44-5.2 99.32-4.63 99.19-4.05 99.19-3.65L99.19-3.65Q99.19-2.6 100.04-2.6L100.04-2.6Q101.34-2.6 103.34-4.7L103.34-4.7 104.04-4Q102.79-2.15 100.79-0.73 98.79 0.7 96.34 0.7L96.34 0.7Q94.79 0.7 93.89-0.05 92.99-0.8 92.99-2.1L92.99-2.1Q92.99-3.15 93.24-4.23 93.49-5.3 93.84-6.55L93.84-6.55 95.79-14.45Q96.19-15.95 96.44-17.15 96.69-18.35 96.69-19.3L96.69-19.3Q96.69-20.3 96.27-20.68 95.84-21.05 95.14-21.05L95.14-21.05Q93.94-21.05 92.27-20.03 90.59-19 88.49-16.8L88.49-16.8 87.14-10.65Q86.59-8 86.09-5.35 85.59-2.7 85.09 0L85.09 0ZM115.09-27.7L115.09-27.7Q113.69-27.7 112.69-28.6 111.69-29.5 111.69-31.05L111.69-31.05Q111.69-32.7 112.89-33.8 114.09-34.9 115.59-34.9L115.59-34.9Q117.04-34.9 117.99-33.98 118.94-33.05 118.94-31.6L118.94-31.6Q118.94-30 117.77-28.85 116.59-27.7 115.09-27.7ZM110.49 0.7L110.49 0.7Q108.99 0.7 108.02-0.08 107.04-0.85 107.04-2.35L107.04-2.35Q107.04-3.2 107.24-4.4 107.44-5.6 107.69-6.85L107.69-6.85 110.04-18.15Q110.49-20.25 108.49-21L108.49-21 107.79-21.3 107.89-22.2 116.89-24.8 117.39-24.3 113.59-6.45Q113.39-5.6 113.29-4.98 113.19-4.35 113.19-3.8L113.19-3.8Q113.19-2.7 114.19-2.7L114.19-2.7Q115.39-2.7 117.34-4.6L117.34-4.6 117.99-3.95Q116.74-2.1 114.87-0.7 112.99 0.7 110.49 0.7ZM130.09 0.7L130.09 0.7Q127.54 0.7 125.44-0.3 123.34-1.3 122.09-3.38 120.84-5.45 120.84-8.6L120.84-8.6Q120.84-11.8 121.91-14.7 122.99-17.6 124.91-19.88 126.84-22.15 129.41-23.45 131.99-24.75 134.94-24.75L134.94-24.75Q138.89-24.75 141.49-22.48 144.09-20.2 144.09-15.45L144.09-15.45Q144.09-12.3 143.01-9.4 141.94-6.5 140.04-4.23 138.14-1.95 135.59-0.63 133.04 0.7 130.09 0.7ZM130.69-0.7L130.69-0.7Q132.29-0.7 133.59-2.08 134.89-3.45 135.84-5.7 136.79-7.95 137.31-10.73 137.84-13.5 137.84-16.25L137.84-16.25Q137.84-20.2 136.91-21.75 135.99-23.3 134.54-23.3L134.54-23.3Q132.94-23.3 131.56-21.98 130.19-20.65 129.19-18.4 128.19-16.15 127.64-13.43 127.09-10.7 127.09-7.9L127.09-7.9Q127.09-3.85 128.11-2.27 129.14-0.7 130.69-0.7ZM147.84 0.7L147.84 0.7Q146.39 0.7 145.26-0.15 144.14-1 144.14-2.55L144.14-2.55Q144.14-3.8 144.96-4.58 145.79-5.35 146.99-5.35L146.99-5.35Q148.49-5.35 149.64-3.9L149.64-3.9Q150.94-2.15 152.29-3.9L152.29-3.9Q153.34-5.25 154.44-6.8 155.54-8.35 156.69-10L156.69-10 154.19-17.7Q153.69-19.45 153.16-20.13 152.64-20.8 151.79-20.8L151.79-20.8Q151.29-20.8 150.56-20.5 149.84-20.2 149.04-19.2L149.04-19.2 148.29-20Q151.54-24.75 154.84-24.75L154.84-24.75Q156.74-24.75 157.66-23.65 158.59-22.55 159.34-20.2L159.34-20.2 160.89-15.45Q162.29-17.7 163.44-19.35 164.59-21 165.14-21.7L165.14-21.7Q166.59-23.5 167.84-24.13 169.09-24.75 170.34-24.75L170.34-24.75Q171.59-24.75 172.54-24 173.49-23.25 173.49-21.8L173.49-21.8Q173.49-20.5 172.69-19.73 171.89-18.95 170.84-18.95L170.84-18.95Q169.19-18.95 168.19-20.25L168.19-20.25Q167.64-20.95 167.16-21.03 166.69-21.1 165.99-20.25L165.99-20.25Q165.19-19.3 163.96-17.6 162.74-15.9 161.39-13.95L161.39-13.95 163.99-6Q164.54-4.2 165.06-3.6 165.59-3 166.39-3L166.39-3Q167.69-3 169.44-4.85L169.44-4.85 170.19-4.1Q168.84-2 167.11-0.6 165.39 0.8 163.44 0.8L163.44 0.8Q161.89 0.8 160.79-0.03 159.69-0.85 158.94-3.1L158.94-3.1 157.19-8.55Q155.84-6.45 154.71-4.8 153.59-3.15 152.64-1.95L152.64-1.95Q151.59-0.55 150.46 0.08 149.34 0.7 147.84 0.7Z" opacity="1" transform="matrix(1,0,0,1,0,0)" fill="black" class="wordmark-text-0" id="SvgjsPath2140"></path></svg></g></svg></g></svg></g></svg></g><g transform="matrix(1,0,0,1,33.961991120820905,0)"><svg viewBox="0 0 90.46793674414484 45.345787594789506" height="45.345787594789506" width="90.46793674414484"><g><svg xmlns="http://www.w3.org/2000/svg" xmlns:xlink="http://www.w3.org/1999/xlink" xml:space="preserve" style="shape-rendering:geometricPrecision;text-rendering:geometricPrecision;image-rendering:optimizeQuality;" viewBox="0.0000020000000000575113 0.0000027841116459863258 14.727499 7.381952827609914" x="0" y="0" fill-rule="evenodd" clip-rule="evenodd" width="90.46793674414484" height="45.345787594789506" class="icon-icon-0" data-fill-palette-color="accent" id="SvgjsSvg2139"><g fill="black"><path class="" d="M1.757 3.091c-0.313 0.444-0.296 1.331-0.417 1.95-0.153 0.784-0.711 1.203-1.34 1.534 0.188-0.771 0.348-1.542 0.412-2.313 0.078-0.953-0.06-0.891 0.767-1.575 1.159-0.961 3.04-1.741 5.848-2.29 2.456-0.406 5.049-0.453 7.701-0.351-0.89 1.809-3.733 1.961-7.203 1.581-1.811 0.02-3.495-0.488-5.768 1.464z m8.33 2.781c-3.895 2.038-7.803-2.284-9.165 0.688 2.104-1.831 5.079 3.183 9.165-0.688z m2.489-2.547c-4.49 2.72-9.502-0.792-10.907 1.859 3.412-1.235 7.765 2.753 10.907-1.859z m0.834-1.478c-3.944 1.761-10.043-1.402-11.565 2.239 3.106-1.808 8.446 1.438 11.565-2.239z" fill="black"></path></g></svg></g></svg></g><g></g></svg></g></svg></g><g id="SvgjsG2138"><path d="M29.824 99.581l-3.604 9.759-0.79-0.476 0.038-0.486c0.091-1.226-0.402-2.176-1.479-2.849v0l-10.249-6.131c-1.349-0.838-2.735-1.673-4.159-2.502-1.422-0.836-2.942-1.72-4.56-2.651v0c-1.105-0.596-2.017-0.412-2.735 0.554v0l-0.273 0.355-0.776-0.514 3.215-8.708c1.266-3.428 2.856-5.676 4.771-6.743 1.911-1.076 3.946-1.215 6.106-0.417v0c1.619 0.598 2.949 1.603 3.991 3.017 1.042 1.413 1.65 3.18 1.823 5.3 0.169 2.112-0.25 4.531-1.258 7.258v0l-0.702 1.902c1.013 0.591 2.084 1.219 3.215 1.882 1.137 0.666 2.3 1.342 3.488 2.027v0c1.096 0.68 2.039 0.489 2.829-0.573v0l0.318-0.48zM18.057 95.562v0l0.583-1.577c0.788-2.135 0.707-4.091-0.244-5.869-0.957-1.78-2.663-3.123-5.116-4.029v0c-1.943-0.718-3.582-0.849-4.917-0.393-1.337 0.462-2.293 1.474-2.869 3.035v0l-0.406 1.1c2.159 1.29 4.32 2.577 6.482 3.86 2.166 1.292 4.328 2.583 6.487 3.873z" fill="black"></path><path d="M53.247 59.79l-3.244 3.767-0.489 0.007-10.831-16.1c-0.578-0.848-1.116-1.623-1.615-2.328-0.499-0.704-1.05-1.492-1.652-2.364v0c-0.724-1.028-1.642-1.22-2.753-0.576v0l-0.58 0.288-0.433-0.607 3.839-7.284 0.519-0.035 7.759 11.586c-0.051-2.05 0.147-3.986 0.595-5.808 0.442-1.817 1.135-3.209 2.078-4.178v0c0.645-0.662 1.368-1 2.17-1.015 0.802-0.025 1.616 0.366 2.444 1.171v0c0.452 0.441 0.87 0.928 1.251 1.461 0.386 0.538 0.766 1.107 1.139 1.707v0l4.644 7.484c0.314 0.467 0.573 0.872 0.78 1.215 0.206 0.343 0.392 0.595 0.557 0.756v0c0.433 0.422 0.82 0.458 1.161 0.108v0c0.502-0.516 0.764-1.631 0.786-3.347v0l0.792-0.01c0.237 1.198 0.258 2.504 0.065 3.919-0.198 1.42-0.799 2.645-1.804 3.676v0c-0.64 0.657-1.289 1.016-1.945 1.078-0.667 0.062-1.268-0.168-1.803-0.69v0c-0.433-0.422-0.819-0.902-1.158-1.44-0.343-0.534-0.713-1.112-1.11-1.737v0l-4.02-6.577c-0.398-0.663-0.773-1.265-1.126-1.808-0.348-0.548-0.688-0.983-1.019-1.305v0c-0.744-0.725-1.439-0.757-2.083-0.095v0c-1.024 1.051-1.543 3.214-1.558 6.49v0l3.27 4.937c0.975 1.472 1.884 2.807 2.726 4.006 0.832 1.2 1.715 2.415 2.648 3.648z" fill="black"></path><path d="M96.477 30.26v0c-1.968 0.804-3.833 0.82-5.593 0.049-1.76-0.771-3.136-2.37-4.127-4.797v0c-0.686-1.679-1.05-3.408-1.095-5.188-0.047-1.786 0.198-3.496 0.734-5.131 0.529-1.632 1.345-3.077 2.445-4.333 1.101-1.257 2.45-2.211 4.048-2.864v0c1.654-0.675 3.068-0.816 4.241-0.422 1.165 0.39 2.002 1.211 2.513 2.463v0c0.621 1.522 0.228 3.433-1.181 5.732-1.403 2.297-3.841 4.635-7.316 7.015v0c0.79 1.702 1.72 2.801 2.788 3.297 1.074 0.493 2.263 0.474 3.564-0.057v0c1.176-0.48 2.105-1.215 2.787-2.206 0.679-0.996 1.171-2.037 1.476-3.123v0l0.771 0.192c-0.115 1.228-0.409 2.467-0.881 3.716-0.467 1.247-1.12 2.369-1.961 3.365-0.834 0.994-1.905 1.758-3.213 2.292zM93.047 9.517v0c-0.61 0.249-1.157 0.777-1.642 1.584-0.481 0.798-0.851 1.771-1.109 2.918-0.264 1.15-0.374 2.391-0.329 3.722 0.054 1.335 0.305 2.671 0.755 4.006v0c2.624-2.091 4.276-4.039 4.956-5.843 0.68-1.804 0.72-3.438 0.122-4.903v0c-0.313-0.767-0.717-1.263-1.212-1.486-0.492-0.217-1.006-0.217-1.541 0.002z" fill="black"></path><path d="M138.836 21.312l-4.888 0.23-0.429-0.398 3.654-15.588c0.292-1.141-0.12-1.956-1.236-2.445v0l-0.635-0.28 0.099-0.732 7.694-2.099 0.468 0.439-1.073 4.857c1.539-1.546 3.093-2.783 4.664-3.711 1.578-0.927 3.043-1.375 4.394-1.343v0c0.924 0.022 1.674 0.322 2.252 0.9 0.578 0.571 0.852 1.434 0.825 2.588v0c-0.015 0.632-0.088 1.268-0.219 1.911-0.131 0.649-0.293 1.315-0.486 1.996v0l-2.412 8.8c-0.126 0.452-0.227 0.844-0.303 1.175-0.083 0.331-0.127 0.612-0.132 0.842v0c-0.014 0.604 0.223 0.912 0.712 0.924v0c0.747 0.018 1.712-0.564 2.895-1.745v0l0.587 0.616c-0.745 1.049-1.702 1.971-2.869 2.765-1.174 0.787-2.464 1.164-3.869 1.13v0c-0.896-0.021-1.598-0.252-2.104-0.692-0.506-0.447-0.75-1.044-0.732-1.791v0c0.014-0.604 0.1-1.214 0.258-1.828 0.157-0.615 0.346-1.279 0.568-1.995v0l1.843-6.774c0.251-0.857 0.457-1.63 0.616-2.319 0.159-0.689 0.245-1.306 0.258-1.849v0c0.014-0.577-0.099-0.977-0.338-1.201-0.239-0.216-0.559-0.329-0.96-0.338v0c-0.693-0.017-1.528 0.256-2.507 0.816-0.978 0.568-2.084 1.472-3.316 2.714v0l-1.298 5.279c-0.349 1.514-0.687 3.031-1.016 4.552-0.322 1.514-0.643 3.046-0.965 4.594z" fill="black"></path><path d="M199.736 10.302v0c-0.736-0.318-1.266-0.829-1.591-1.531-0.325-0.703-0.31-1.466 0.046-2.289v0c0.375-0.867 1.007-1.455 1.897-1.767 0.887-0.305 1.726-0.286 2.517 0.057v0c0.761 0.329 1.287 0.849 1.579 1.559 0.288 0.702 0.267 1.436-0.064 2.204v0c-0.364 0.842-0.987 1.435-1.869 1.778-0.885 0.335-1.723 0.332-2.515-0.011zM186.368 31.23v0c-0.798-0.345-1.365-0.831-1.701-1.457-0.34-0.635-0.338-1.349 0.004-2.141v0c0.194-0.449 0.482-0.968 0.863-1.558 0.378-0.584 0.776-1.178 1.192-1.782v0l5.736-8.155c0.723-1.005 0.64-1.933-0.251-2.783v0l-0.446-0.482 0.382-0.679 8.025 1.029 0.223 0.562-9.13 12.848c-0.3 0.403-0.547 0.759-0.74 1.068-0.196 0.3-0.358 0.596-0.484 0.889v0c-0.251 0.58-0.111 0.984 0.419 1.214v0c0.636 0.275 1.685 0.133 3.148-0.426v0l0.292 0.737c-1.084 0.693-2.282 1.196-3.595 1.509-1.309 0.307-2.622 0.176-3.937-0.393z" fill="black"></path><path d="M222.294 56.002v0c-1.038-1.037-1.783-2.185-2.235-3.442-0.447-1.263-0.503-2.572-0.168-3.927 0.34-1.35 1.152-2.666 2.434-3.949v0c1.301-1.302 2.758-2.324 4.372-3.064 1.618-0.745 3.282-1.19 4.992-1.335 1.71-0.145 3.353 0.042 4.928 0.559 1.576 0.518 2.964 1.377 4.166 2.578v0c1.61 1.608 2.48 3.404 2.61 5.388 0.131 1.984-0.769 3.941-2.699 5.873v0c-1.282 1.283-2.732 2.297-4.35 3.042-1.614 0.74-3.27 1.188-4.971 1.343-1.7 0.154-3.338-0.018-4.914-0.517-1.576-0.499-2.964-1.348-4.165-2.549zM223.511 55.519v0c0.654 0.653 1.525 0.962 2.616 0.928 1.085-0.029 2.279-0.311 3.58-0.844 1.306-0.529 2.629-1.252 3.969-2.171 1.344-0.913 2.576-1.93 3.695-3.049v0c1.604-1.605 2.532-2.914 2.786-3.928 0.254-1.004 0.086-1.801-0.505-2.391v0c-0.649-0.648-1.523-0.984-2.623-1.008-1.1-0.014-2.31 0.232-3.631 0.737-1.325 0.51-2.653 1.209-3.983 2.098-1.33 0.88-2.566 1.891-3.709 3.035v0c-1.647 1.648-2.58 3.001-2.801 4.057-0.225 1.062-0.023 1.907 0.606 2.536z" fill="black"></path><path d="M245.972 89.894v0c-0.286-0.785-0.31-1.564-0.071-2.338 0.236-0.78 0.772-1.322 1.609-1.627v0c0.677-0.246 1.307-0.223 1.89 0.07 0.578 0.296 0.985 0.769 1.223 1.42v0c0.295 0.811 0.163 1.668-0.397 2.574v0c-0.686 1.053-0.425 1.771 0.785 2.154v0c0.941 0.301 1.938 0.595 2.99 0.884 1.052 0.289 2.139 0.583 3.261 0.883v0l5.512-4.307c0.845-0.619 1.398-1.135 1.659-1.548 0.261-0.413 0.309-0.85 0.141-1.309v0c-0.1-0.274-0.301-0.577-0.602-0.908-0.31-0.335-0.811-0.619-1.503-0.852v0l0.418-0.846c3.212 0.818 5.143 2.121 5.794 3.908v0c0.374 1.028 0.355 1.898-0.057 2.612-0.416 0.723-1.186 1.517-2.31 2.381v0l-3.391 2.657c1.496 0.315 2.801 0.624 3.916 0.926 1.119 0.294 1.922 0.522 2.407 0.685v0c1.26 0.423 2.183 0.911 2.768 1.464 0.585 0.553 1 1.168 1.246 1.845v0c0.246 0.677 0.258 1.344 0.036 2.003-0.214 0.663-0.713 1.138-1.498 1.425v0c-0.702 0.256-1.343 0.243-1.922-0.038-0.579-0.281-0.972-0.705-1.179-1.272v0c-0.323-0.887-0.229-1.731 0.281-2.532v0c0.267-0.437 0.374-0.79 0.319-1.06-0.048-0.272-0.371-0.512-0.968-0.721v0c-0.675-0.246-1.593-0.533-2.753-0.862-1.161-0.329-2.4-0.665-3.719-1.009v0l-5.685 4.457c-0.861 0.653-1.403 1.18-1.626 1.579-0.221 0.406-0.253 0.822-0.098 1.25v0c0.258 0.708 1.06 1.352 2.407 1.932v0l-0.393 0.827c-1.401-0.314-2.648-0.799-3.741-1.457-1.099-0.655-1.84-1.509-2.224-2.562v0c-0.307-0.842-0.345-1.642-0.115-2.398 0.231-0.756 0.881-1.561 1.951-2.414v0l3.898-3.025c-1.401-0.314-2.657-0.615-3.768-0.904-1.114-0.281-2.09-0.558-2.927-0.832v0c-0.96-0.294-1.721-0.685-2.282-1.174-0.559-0.483-0.986-1.13-1.282-1.941z" fill="black"></path><path d="M8.806 187.082l-3.889-10.338 0.961-0.165 0.31 0.417c0.786 1.047 1.84 1.467 3.162 1.259v0l12.498-2.197c1.662-0.27 3.354-0.565 5.077-0.887 1.729-0.324 3.569-0.671 5.519-1.042v0c1.292-0.29 1.894-1.072 1.807-2.345v0l-0.028-0.479 0.975-0.128 3.473 9.232c1.366 3.63 1.652 6.542 0.858 8.734-0.787 2.19-2.325 3.716-4.614 4.577v0c-1.717 0.646-3.487 0.764-5.31 0.354-1.815-0.406-3.528-1.402-5.141-2.987-1.604-1.581-2.949-3.818-4.037-6.711v0l-0.757-2.012c-1.221 0.227-2.52 0.469-3.897 0.725-1.37 0.254-2.773 0.52-4.206 0.799v0c-1.355 0.219-1.979 1.028-1.875 2.425v0l0.075 0.603zM21.054 182.137v0l0.628 1.669c0.851 2.263 2.277 3.777 4.277 4.542 2 0.764 4.304 0.656 6.911-0.325v0c2.06-0.775 3.467-1.809 4.222-3.101 0.752-1.299 0.816-2.778 0.192-4.438v0l-0.434-1.154c-2.633 0.468-5.265 0.936-7.898 1.404-2.633 0.468-5.265 0.936-7.898 1.403z" fill="black"></path><path d="M37.274 234.48l-3.926-3.541-0.003-0.512 17.34-11.141c0.918-0.598 1.755-1.15 2.513-1.658 0.758-0.517 1.606-1.084 2.543-1.701v0c1.111-0.75 1.335-1.723 0.672-2.92v0l-0.29-0.615 0.659-0.449 7.639 4.249 0.031 0.555-12.479 7.96c2.181-0.001 4.232 0.253 6.154 0.764 1.917 0.515 3.381 1.286 4.391 2.313v0c0.686 0.697 1.03 1.473 1.032 2.328 0.007 0.85-0.425 1.704-1.296 2.562v0c-0.479 0.472-1.009 0.907-1.588 1.305-0.575 0.394-1.188 0.783-1.84 1.167v0l-8.051 4.761c-0.497 0.318-0.932 0.583-1.303 0.797-0.367 0.218-0.637 0.413-0.812 0.584v0c-0.455 0.448-0.502 0.856-0.14 1.223v0c0.538 0.547 1.713 0.85 3.523 0.908v0l0.001 0.843c-1.28 0.23-2.668 0.223-4.165-0.019-1.501-0.238-2.788-0.902-3.86-1.992v0c-0.686-0.697-1.055-1.397-1.106-2.098-0.047-0.706 0.213-1.338 0.779-1.896v0c0.455-0.448 0.972-0.847 1.551-1.198 0.575-0.356 1.197-0.735 1.869-1.137v0l7.073-4.128c0.719-0.402 1.371-0.786 1.954-1.152 0.589-0.36 1.058-0.712 1.407-1.054v0c0.784-0.772 0.834-1.506 0.148-2.204v0c-1.096-1.114-3.384-1.716-6.866-1.807v0l-5.309 3.365c-1.588 1-3.028 1.935-4.317 2.803-1.294 0.864-2.604 1.775-3.928 2.735z" fill="black"></path><path d="M87.872 270.218v0c-2.097-0.848-3.528-2.219-4.294-4.112-0.772-1.895-0.637-4.13 0.405-6.705v0c0.724-1.788 1.73-3.378 3.018-4.77 1.288-1.391 2.74-2.507 4.356-3.348 1.612-0.85 3.303-1.345 5.074-1.486 1.772-0.141 3.507 0.133 5.208 0.821v0c1.757 0.711 2.934 1.649 3.533 2.814 0.598 1.165 0.629 2.412 0.091 3.741v0c-0.655 1.618-2.37 2.778-5.146 3.48-2.772 0.71-6.363 0.686-10.775-0.073v0c-0.656 1.874-0.759 3.397-0.309 4.568 0.449 1.171 1.367 2.037 2.752 2.597v0c1.247 0.504 2.499 0.634 3.756 0.388 1.254-0.255 2.397-0.682 3.432-1.282v0l0.455 0.722c-1.002 0.847-2.146 1.572-3.43 2.174-1.284 0.602-2.614 0.972-3.989 1.112-1.373 0.133-2.752-0.08-4.137-0.641zM100.629 251.891v0c-0.655-0.265-1.463-0.269-2.424-0.013-0.958 0.25-1.961 0.716-3.006 1.399-1.052 0.681-2.053 1.543-3.003 2.588-0.953 1.051-1.755 2.254-2.406 3.61v0c3.553 0.346 6.255 0.087 8.106-0.776 1.854-0.869 3.096-2.082 3.725-3.637v0c0.334-0.825 0.391-1.501 0.173-2.029-0.21-0.532-0.598-0.912-1.165-1.142z" fill="black"></path><path d="M139.331 279.502l-5.165 0.498-0.469-0.396 3.062-16.732c0.241-1.229-0.239-2.073-1.44-2.532v0l-0.7-0.257 0.072-0.777 8.057-2.64 0.51 0.446-0.877 5.21c1.546-1.724 3.132-3.117 4.756-4.177 1.624-1.067 3.156-1.619 4.596-1.655v0c0.978-0.025 1.787 0.254 2.426 0.835 0.64 0.575 0.975 1.474 1.006 2.696v0c0.017 0.672-0.027 1.356-0.131 2.052-0.105 0.689-0.24 1.402-0.404 2.14v0l-2.095 9.451c-0.11 0.492-0.201 0.916-0.274 1.27-0.066 0.355-0.096 0.655-0.089 0.9v0c0.016 0.638 0.286 0.951 0.809 0.937v0c0.794-0.02 1.787-0.687 2.976-2.002v0l0.658 0.626c-0.739 1.153-1.708 2.18-2.908 3.08-1.2 0.9-2.547 1.369-4.041 1.407v0c-0.951 0.024-1.707-0.184-2.269-0.625-0.562-0.448-0.853-1.069-0.873-1.863v0c-0.016-0.638 0.045-1.289 0.185-1.952 0.133-0.662 0.298-1.377 0.496-2.143v0l1.599-7.287c0.221-0.923 0.401-1.753 0.539-2.49 0.131-0.737 0.189-1.398 0.174-1.982v0c-0.015-0.611-0.155-1.026-0.419-1.243-0.264-0.224-0.61-0.331-1.038-0.32v0c-0.733 0.019-1.605 0.353-2.614 1.004-1.01 0.651-2.139 1.665-3.388 3.041v0l-1.09 5.674c-0.299 1.625-0.58 3.252-0.844 4.884-0.265 1.624-0.529 3.265-0.793 4.922z" fill="black"></path><path d="M189.221 243.417v0c-0.786 0.338-1.569 0.376-2.348 0.112-0.779-0.264-1.355-0.829-1.729-1.697v0c-0.4-0.93-0.395-1.845 0.017-2.747 0.408-0.908 1.033-1.543 1.875-1.905v0c0.817-0.352 1.603-0.383 2.356-0.093 0.759 0.287 1.314 0.836 1.663 1.648v0c0.387 0.899 0.389 1.815 0.006 2.748-0.385 0.927-0.999 1.572-1.84 1.934zM195.639 269.007v0c-0.842 0.362-1.629 0.442-2.36 0.239-0.734-0.194-1.283-0.713-1.645-1.555v0c-0.207-0.48-0.399-1.082-0.577-1.804-0.178-0.722-0.348-1.462-0.511-2.22v0l-2.112-10.372c-0.258-1.287-1.04-1.901-2.345-1.842v0l-0.698 0.001-0.242-0.794 6.639-5.452 0.602 0.24 3.271 16.418c0.092 0.523 0.185 0.971 0.278 1.344 0.097 0.38 0.211 0.723 0.343 1.028v0c0.266 0.618 0.679 0.806 1.241 0.564v0c0.674-0.29 1.33-1.205 1.97-2.744v0l0.78 0.319c-0.253 1.336-0.738 2.625-1.454 3.864-0.716 1.24-1.776 2.162-3.18 2.766z" fill="black"></path><path d="M238.653 239.612v0c-1.111 1.098-2.339 1.881-3.681 2.348-1.343 0.467-2.731 0.517-4.165 0.148-1.434-0.359-2.829-1.225-4.185-2.598v0c-1.375-1.392-2.451-2.95-3.228-4.674-0.777-1.724-1.235-3.492-1.373-5.304-0.143-1.816 0.067-3.561 0.629-5.234 0.563-1.673 1.484-3.142 2.765-4.407v0c1.72-1.7 3.635-2.613 5.744-2.739 2.105-0.131 4.179 0.837 6.222 2.905v0c1.351 1.367 2.415 2.913 3.193 4.638 0.777 1.724 1.242 3.49 1.394 5.297 0.152 1.807-0.041 3.545-0.579 5.213-0.543 1.673-1.455 3.142-2.736 4.407zM238.143 238.312v0c0.696-0.687 1.03-1.61 1.003-2.768-0.022-1.153-0.312-2.423-0.87-3.809-0.549-1.387-1.306-2.796-2.273-4.229-0.966-1.432-2.039-2.745-3.218-3.939v0c-1.7-1.72-3.082-2.718-4.146-2.993-1.069-0.28-1.921-0.108-2.554 0.517v0c-0.696 0.687-1.054 1.615-1.076 2.782-0.031 1.167 0.218 2.453 0.748 3.859 0.534 1.411 1.265 2.827 2.193 4.25 0.933 1.418 2.001 2.736 3.204 3.953v0c1.743 1.764 3.173 2.767 4.29 3.009 1.122 0.247 2.022 0.036 2.699-0.632z" fill="black"></path><path d="M267.906 197.691v0c-0.309 0.834-0.825 1.483-1.548 1.948-0.729 0.461-1.536 0.528-2.421 0.199v0c-0.72-0.267-1.215-0.719-1.486-1.355-0.265-0.634-0.269-1.295-0.015-1.983v0c0.319-0.86 1.015-1.467 2.089-1.823v0c1.283-0.372 1.564-1.13 0.843-2.274v0c-0.546-0.891-1.148-1.817-1.806-2.778-0.651-0.959-1.33-1.942-2.035-2.95v0l-7.418-0.306c-1.106-0.084-1.909-0.049-2.408 0.107-0.5 0.155-0.84 0.478-1.023 0.968v0c-0.106 0.287-0.15 0.669-0.131 1.147 0.018 0.478 0.229 1.052 0.632 1.723v0l-0.929 0.395c-2.027-2.875-2.69-5.258-1.989-7.15v0c0.404-1.089 1.019-1.781 1.846-2.075 0.827-0.295 1.992-0.409 3.497-0.345v0l4.581 0.189c-0.995-1.282-1.841-2.429-2.538-3.441-0.706-1.008-1.2-1.746-1.484-2.213v0c-0.725-1.211-1.132-2.242-1.221-3.094-0.092-0.846-0.005-1.628 0.262-2.347v0c0.265-0.713 0.712-1.265 1.342-1.655 0.634-0.381 1.365-0.418 2.192-0.11v0c0.745 0.276 1.256 0.726 1.532 1.35 0.276 0.624 0.303 1.235 0.08 1.834v0c-0.352 0.949-1.007 1.572-1.964 1.869v0c-0.517 0.163-0.849 0.374-0.995 0.631-0.146 0.257-0.048 0.678 0.293 1.26v0c0.371 0.659 0.914 1.52 1.629 2.582 0.715 1.062 1.488 2.189 2.321 3.382v0l7.66 0.298c1.15 0.064 1.952 0.01 2.407-0.161 0.455-0.172 0.767-0.487 0.937-0.946v0c0.276-0.745 0.073-1.817-0.611-3.215v0l0.877-0.403c0.918 1.217 1.594 2.471 2.028 3.763 0.436 1.285 0.448 2.484 0.034 3.599v0c-0.331 0.892-0.849 1.565-1.553 2.021-0.705 0.456-1.783 0.657-3.235 0.604v0l-5.241-0.227c0.918 1.217 1.729 2.322 2.433 3.315 0.708 1.002 1.306 1.901 1.793 2.697v0c0.578 0.903 0.926 1.742 1.044 2.517 0.118 0.776 0.018 1.593-0.301 2.453z" fill="black"></path><path d="M0.04 139.066c0-6.393 5.183-11.575 11.576-11.576 6.393 0 11.575 5.183 11.575 11.576 0 6.393-5.183 11.575-11.575 11.575-6.393 0-11.575-5.183-11.576-11.575z" fill="black"></path><path d="M256.809 139.066c0-6.393 5.183-11.575 11.575-11.576 6.393 0 11.575 5.183 11.576 11.576 0 6.393-5.183 11.575-11.576 11.575-6.393 0-11.575-5.183-11.575-11.575z" fill="black"></path></g><g id="SvgjsG2137"></g></svg></g><defs><mask></mask></defs></svg><rect width="280" height="280" fill="black" stroke="none" visibility="hidden"></rect></g></mask></svg><rect width="280" height="280" fill="black" stroke="none" visibility="hidden"></rect></g></mask><linearGradient x1="0.054" x2="0.941" y1="0.5" y2="0.5" id="47db4efb-9628-4f0a-bfe2-c5f1d3e67b26"><stop stop-color="#0f3054" offset="0"></stop><stop stop-color="#3b8dcb" offset="0.498"></stop><stop stop-color="#0f3054" offset="1"></stop></linearGradient><rect width="280" height="280" fill="url(#47db4efb-9628-4f0a-bfe2-c5f1d3e67b26)" mask="url(#bc6b447c-3d0a-47e2-9d7c-1fac7076ce9d)" data-fill-palette-color="accent"></rect></svg><rect width="280" height="280" fill="none" stroke="none" visibility="hidden"></rect></g></svg></g></svg>