<svg xmlns="http://www.w3.org/2000/svg" version="1.1" xmlns:xlink="http://www.w3.org/1999/xlink" xmlns:svgjs="http://svgjs.dev/svgjs" width="2000" height="2250" viewBox="0 0 2000 2250"><g transform="matrix(1,0,0,1,0.00006249999989904609,0)"><svg viewBox="0 0 320 360" data-background-color="#000000" preserveAspectRatio="xMidYMid meet" height="2250" width="2000" xmlns="http://www.w3.org/2000/svg" xmlns:xlink="http://www.w3.org/1999/xlink"><g id="tight-bounds" transform="matrix(1,0,0,1,-0.0000049999999873762135,0)"><svg viewBox="0 0 320 360" height="360" width="320"><rect width="320.00001499999996" height="360" fill="url(#e27fa5d4-4355-416f-9209-0dfed9bf18fe)" mask="url(#57ad4bbc-ad16-45f0-8e4d-7764e9b55c9c)" data-fill-palette-color="tertiary"></rect><g><svg></svg></g><g><svg viewBox="0 0 320 360" height="360" width="320"><g><path transform="translate(-19.44751,3.1739) scale(3.53591,3.53591)" d="M67.6 10.7c0.2 0 1.8 0.8 2.7 1.1-0.3 0.1-1-0.2-1.8-0.5 0.2 0 0.6 0.1 1 0.3-0.2-0.2-1.7-0.7-1.9-0.9M52.7 7.6c0.3-0.1 3.8 0.4 5.4 0.5 0.1-0.1-0.2-0.1-0.6-0.2 0.5-0.1 1.5 0.2 2.2 0.3-2.1 0.1-4.4-0.5-6.4-0.3-0.7 0-0.2-0.2-0.6-0.3M49.8 7.6c1.8 0 3.2 0 0.6 0.2-0.3-0.1-0.7-0.1-0.6-0.2M78.1 15.9c0.2 0 1 0.9 1.4 1.2-0.1 0.1-0.9-0.7-1.3-1 0.1 0.1 0 0-0.1-0.2M76.1 14.6c-0.8-0.7-1.1-0.7-1.2-1.1 0.7 0.4 1.2 0.8 1.2 1.1M63.2 8.3c0.1-0.1 0.3 0.1 0.8 0.2-0.6-0.1-0.5 0-0.3 0.2-0.7-0.1-0.9-0.2-0.7-0.4 0.4 0.2 0.5 0.1 0.2 0M34.8 9.5c0-0.1 0.4-0.3 0.7-0.4-0.3 0.2-0.2 0.3 0.3 0.1 0 0.1-0.6 0.3-1 0.5 0.2-0.1 0.4-0.4 0-0.2M65.2 7.3c-0.3 0.1-1.4-0.5-2.5-0.7-0.6-0.2 2.4 0.5 2.5 0.7M6.2 56.7c0.6 2.5 0.2 2.4 0 0M6.3 41.7c0.1-0.4 0.2-1.5 0.3-1.4-0.3 2.4-0.8 3.5-0.9 5.3 0.3-1.6-0.1 0.9-0.2 1.5 0.1 0.8 0.1-0.5 0.3-0.3 0.2 0.3-0.4 4.5-0.2 2.2-0.2 2.1 0 4.4 0.4 5-0.5 3.2 2 10.4 2.5 11.9 0.1 0.1 0-0.5 0.2-0.1 0.2 1.3 1.1 2.2 1.4 3.6 0.3 0.4 1.5 2.6 1.7 3.1 0.4 0.8 0.6 0.7 1 1.5 1.2 2.3 3.1 4.5 4.9 6.6 5.8 6.8 14.7 12.4 24.6 14.4 9.9 2.1 20.3 0.6 28.4-3.3 0.5-0.3 0.4-0.4 1-0.6 2.8-0.9 6.2-3.8 8.1-4.9 0.9-1 3.3-2.7 3.6-3.7 1.7-1.4 3.4-3.7 4.3-5.2 0.5-0.8 0.9-0.8 1.1-1.3-0.1 0 1.6-2.1 2.1-3.3-0.2 0-0.5 0.6-0.5 0 3.6-6.9 5.6-16.2 4.5-22.6 0.2 7.9-1.8 16.7-5.6 22.3-1.7 3.6-5.2 7.5-8.4 10.3-0.5 0.5-1 1.1-1.6 1.5-1.9 1.6-4 2.9-6.2 4.1-5.2 2.9-11 5.4-17.8 5.5 11.7-1 22.2-6.9 28-14.1-4.4 4.3-6.3 6-11.2 8.5-0.4 0.7-3.7 2.1-5.9 2.7 1.3-0.6 4-1.6 4.9-2.4-7.3 3.5-15.4 5.5-23 4.4 2.9 0 7 0.1 10.9-0.6 0.6-0.2 0.9-0.4 1.6-0.5 7.6-1.7 14.9-5.4 20.1-10.6-3 2.7-7.5 5.9-10.4 6.9 2.7-1.5 7.6-4.4 9.2-6.6-3.2 3.2-9.2 6.4-13 7.8-0.6 0.1 0.4-0.4-0.6 0-1.2 0.3-0.7 0.3-1 0.5-4.6 1.3-9.9 2.4-14.3 2-0.8-0.1-1.1-0.3-1.8-0.3-0.8-0.1-1.5-0.1-2.4-0.1-3.5-0.4-7.3-1.8-10.1-3-1.5-0.7-3-1.2-4.5-2.1-1.2-0.7-2.2-1.5-3.2-2.3-3.8-2.8-7-5.6-10-9.6-5.4-7.5-8.2-16.9-7.8-26.2 0.4-9.3 4.1-18.4 10-25.1-0.3 0.3 0.4-0.7 1-1.3 0 0.2-0.1 0.5 0.6-0.2 0.6-0.7-0.2-0.2 0.1-0.6 6.2-6.8 17-12.3 28.1-12.5 0.4-0.3 1.1-0.7 1.9-0.5 0 0.1-0.5 0.1-0.5 0.1 1.1-0.1 2.1-0.1 2.6 0.1 0.1-0.1-0.4-0.2 0-0.2 0.7 0.2 0.9 0 1.3 0.2-0.3 0-0.6 0-0.8 0.1 2.5 0 4.1 0.6 6.6 0.8-1.3-0.3-1.6-0.3-2.6-0.6 1.1 0.2 1.6 0.4 2.1 0.3-0.2 0-0.1-0.3 0.1-0.2 2 0.5 2.2 0.7 4.3 1.4 0.2-0.2-0.9-0.3-1.2-0.6 2 0.7 3.8 1.2 5 2-0.4-0.3-1.6-0.7-2.5-1.1-0.1 0.1 0.3 0.2 0.4 0.4-1-0.5-2.4-1-3.8-1.2 1.2 0.3 2 0.7 2.5 0.9-1.1-0.2-2.5-0.9-4.1-1.2 2.6 0.8 7.5 2.6 10.5 4.2-1.1-0.7-2.4-1.2-3.1-1.6 0.6 0.1 1.3 0.5 1.3 0.3 0.7 0.3 1.6 1 2.1 1.1-0.9-0.6-2.7-1.5-3.3-1.8 7.5 3.4 14.2 9.1 18.5 16.4 0.4 0.7 1 2.3 1.5 2.5-0.1-0.5-0.5-0.8-0.9-1.6 0.2 0 0.2-0.3 0-0.6-0.4-0.5 0 0.4-0.4-0.1-1.8-3.3-4-6.2-7.4-9.4 1.9 1.8 0.5 0.5 0.1-0.1 2.6 2.3 5.6 6.2 6.9 8.2-0.2-0.3-0.3-0.5-0.2-0.5 2.4 4.1 3.9 7.8 5.4 13.1 0.1 0.1 0-0.4 0.2-0.1 1 4.2 1.3 7.7 1.2 10.9 0.8-5.4-1-13.8-4.2-20.4-0.4-0.8-0.4-0.2-0.8-1.1 0-0.3-0.3-0.9-0.5-1.3-4-6.6-8.9-11.3-14.7-15 0.4 0.2 1.2 0.8 1.2 0.7-10.8-7.1-23.3-8.1-33.6-5.9-0.7 0.3-1 0.6-1.8 1 1.5-0.5 2.4-0.6 3.8-0.9 0.3-0.3-1.3 0.1-0.6-0.2 0.1 0.1 1.4-0.2 1.7-0.1 0 0.1-0.4 0.2-0.5 0.3 3.3-0.7 6.7-0.8 9.6-0.6-1.7 0.1-4.8-0.2-5.8 0.3 1-0.1 2.4-0.2 3.3-0.1-1.2 0-3.4 0.1-4.4 0.2-0.1-0.1 1.6-0.3 0.5-0.3-0.5 0.1-1.3 0.1-1.6 0.4-8.6 0.8-17 5.3-22.9 10.6-1.2 1-2.6 2.1-3.5 3.2-2.2 2.5-3.6 5-5.2 7.2 1-2.1 3.2-5.3 5.8-8 2.6-2.7 5.4-5 6.9-6.2 0 0.4 2.4-1.5 3.3-2.1-0.6 0.5 0.4-0.2 0.6-0.1 3.2-1.9 5.8-2.6 8.7-3.7-0.7 0.2-1.3 0.4-1.4 0.3 0.7-0.2 1.1-0.4 1-0.5-2.8 0.8-7.2 2.7-10.7 4.8 6.3-4.3 14.3-6.9 22.2-7 7.9-0.2 15.6 1.8 21.7 5 4.1 1.8 8 5.1 11.1 8.3 0.9 0.8 0.2-0.2 1.5 1.2-0.4-0.2-0.7-0.4-0.2 0.2 0.8 0.9-0.2-0.7 1.1 0.9-0.1 0-0.5-0.5-0.5-0.3 3.5 3.1 6.2 8.7 7.8 12.4-0.4-1.5-1.4-3.6-2.2-5.1 2.4 4.4 3.2 7 4.2 10.9 0.4 0.3-0.2-1.4 0.2-0.6 0.1 0.6 0.2 2.5 0.6 2.8-0.3-1.9-0.8-4.2-1.2-4.6 0.3 0.2-0.5-2.3-1-2.9-0.2-1.6-1.6-4.4-2.8-6.5-4.3-8.4-12-15.3-20.6-19.1 0-0.2-0.5-0.4-0.7-0.6-8.5-3.6-18.7-4.6-28.5-2.3-9.9 2.4-19.2 8.1-25.8 16.3 0.3-1 2.8-2.9 2.9-3.7-2.9 3.1-6 7.2-8.1 11.6-2.2 4.4-3.4 8.9-3.9 12.2" fill="url(#e27fa5d4-4355-416f-9209-0dfed9bf18fe)" fill-rule="nonzero" stroke="none" stroke-width="1" stroke-linecap="butt" stroke-linejoin="miter" stroke-miterlimit="10" stroke-dasharray="" stroke-dashoffset="0" font-family="none" font-weight="none" font-size="none" text-anchor="none" style="mix-blend-mode: normal" data-fill-palette-color="tertiary"></path></g><g transform="matrix(1,0,0,1,48,160.20806248442258)"><svg viewBox="0 0 224 39.58387503115482" height="39.58387503115482" width="224"><g><svg viewBox="0 0 362.8955633781492 64.12862781304098" height="39.58387503115482" width="224"><g transform="matrix(1,0,0,1,0,8.86292902481247)"><svg viewBox="0 0 224.00000000000003 46.40276976341604" height="46.40276976341604" width="224.00000000000003"><g id="textblocktransform"><svg viewBox="0 0 224.00000000000003 46.40276976341604" height="46.40276976341604" width="224.00000000000003" id="textblock"><g><svg viewBox="0 0 224.00000000000003 46.40276976341604" height="46.40276976341604" width="224.00000000000003"><g transform="matrix(1,0,0,1,0,0)"><svg width="224.00000000000003" viewBox="0.2 -35.1 173.29000000000002 35.9" height="46.40276976341604" data-palette-color="url(#3d730def-0a2c-47d2-b0e4-09385b0f2584)"></svg></g></svg></g></svg></g></svg></g><g transform="matrix(1,0,0,1,234.95458027466825,0)"><svg viewBox="0 0 127.94098310348092 64.12862781304098" height="64.12862781304098" width="127.94098310348092"><g><svg xmlns="http://www.w3.org/2000/svg" xmlns:xlink="http://www.w3.org/1999/xlink" xml:space="preserve" style="shape-rendering:geometricPrecision;text-rendering:geometricPrecision;image-rendering:optimizeQuality;" viewBox="0.0000020000000000575113 0.0000027841116459863258 14.727499 7.381952827609914" x="0" y="0" fill-rule="evenodd" clip-rule="evenodd" width="127.94098310348092" height="64.12862781304098" class="icon-icon-0" data-fill-palette-color="accent" id="icon-0"></svg></g></svg></g></svg></g></svg></g></svg></g><defs></defs><mask id="784754e5-2fa2-40d9-9ba2-da61d24aebf4"><g id="SvgjsG1740"><svg viewBox="0 0 320 360" height="360" width="320"><g><svg></svg></g><g><svg viewBox="0 0 320 360" height="360" width="320"><g><path transform="translate(-19.44751,3.1739) scale(3.53591,3.53591)" d="M67.6 10.7c0.2 0 1.8 0.8 2.7 1.1-0.3 0.1-1-0.2-1.8-0.5 0.2 0 0.6 0.1 1 0.3-0.2-0.2-1.7-0.7-1.9-0.9M52.7 7.6c0.3-0.1 3.8 0.4 5.4 0.5 0.1-0.1-0.2-0.1-0.6-0.2 0.5-0.1 1.5 0.2 2.2 0.3-2.1 0.1-4.4-0.5-6.4-0.3-0.7 0-0.2-0.2-0.6-0.3M49.8 7.6c1.8 0 3.2 0 0.6 0.2-0.3-0.1-0.7-0.1-0.6-0.2M78.1 15.9c0.2 0 1 0.9 1.4 1.2-0.1 0.1-0.9-0.7-1.3-1 0.1 0.1 0 0-0.1-0.2M76.1 14.6c-0.8-0.7-1.1-0.7-1.2-1.1 0.7 0.4 1.2 0.8 1.2 1.1M63.2 8.3c0.1-0.1 0.3 0.1 0.8 0.2-0.6-0.1-0.5 0-0.3 0.2-0.7-0.1-0.9-0.2-0.7-0.4 0.4 0.2 0.5 0.1 0.2 0M34.8 9.5c0-0.1 0.4-0.3 0.7-0.4-0.3 0.2-0.2 0.3 0.3 0.1 0 0.1-0.6 0.3-1 0.5 0.2-0.1 0.4-0.4 0-0.2M65.2 7.3c-0.3 0.1-1.4-0.5-2.5-0.7-0.6-0.2 2.4 0.5 2.5 0.7M6.2 56.7c0.6 2.5 0.2 2.4 0 0M6.3 41.7c0.1-0.4 0.2-1.5 0.3-1.4-0.3 2.4-0.8 3.5-0.9 5.3 0.3-1.6-0.1 0.9-0.2 1.5 0.1 0.8 0.1-0.5 0.3-0.3 0.2 0.3-0.4 4.5-0.2 2.2-0.2 2.1 0 4.4 0.4 5-0.5 3.2 2 10.4 2.5 11.9 0.1 0.1 0-0.5 0.2-0.1 0.2 1.3 1.1 2.2 1.4 3.6 0.3 0.4 1.5 2.6 1.7 3.1 0.4 0.8 0.6 0.7 1 1.5 1.2 2.3 3.1 4.5 4.9 6.6 5.8 6.8 14.7 12.4 24.6 14.4 9.9 2.1 20.3 0.6 28.4-3.3 0.5-0.3 0.4-0.4 1-0.6 2.8-0.9 6.2-3.8 8.1-4.9 0.9-1 3.3-2.7 3.6-3.7 1.7-1.4 3.4-3.7 4.3-5.2 0.5-0.8 0.9-0.8 1.1-1.3-0.1 0 1.6-2.1 2.1-3.3-0.2 0-0.5 0.6-0.5 0 3.6-6.9 5.6-16.2 4.5-22.6 0.2 7.9-1.8 16.7-5.6 22.3-1.7 3.6-5.2 7.5-8.4 10.3-0.5 0.5-1 1.1-1.6 1.5-1.9 1.6-4 2.9-6.2 4.1-5.2 2.9-11 5.4-17.8 5.5 11.7-1 22.2-6.9 28-14.1-4.4 4.3-6.3 6-11.2 8.5-0.4 0.7-3.7 2.1-5.9 2.7 1.3-0.6 4-1.6 4.9-2.4-7.3 3.5-15.4 5.5-23 4.4 2.9 0 7 0.1 10.9-0.6 0.6-0.2 0.9-0.4 1.6-0.5 7.6-1.7 14.9-5.4 20.1-10.6-3 2.7-7.5 5.9-10.4 6.9 2.7-1.5 7.6-4.4 9.2-6.6-3.2 3.2-9.2 6.4-13 7.8-0.6 0.1 0.4-0.4-0.6 0-1.2 0.3-0.7 0.3-1 0.5-4.6 1.3-9.9 2.4-14.3 2-0.8-0.1-1.1-0.3-1.8-0.3-0.8-0.1-1.5-0.1-2.4-0.1-3.5-0.4-7.3-1.8-10.1-3-1.5-0.7-3-1.2-4.5-2.1-1.2-0.7-2.2-1.5-3.2-2.3-3.8-2.8-7-5.6-10-9.6-5.4-7.5-8.2-16.9-7.8-26.2 0.4-9.3 4.1-18.4 10-25.1-0.3 0.3 0.4-0.7 1-1.3 0 0.2-0.1 0.5 0.6-0.2 0.6-0.7-0.2-0.2 0.1-0.6 6.2-6.8 17-12.3 28.1-12.5 0.4-0.3 1.1-0.7 1.9-0.5 0 0.1-0.5 0.1-0.5 0.1 1.1-0.1 2.1-0.1 2.6 0.1 0.1-0.1-0.4-0.2 0-0.2 0.7 0.2 0.9 0 1.3 0.2-0.3 0-0.6 0-0.8 0.1 2.5 0 4.1 0.6 6.6 0.8-1.3-0.3-1.6-0.3-2.6-0.6 1.1 0.2 1.6 0.4 2.1 0.3-0.2 0-0.1-0.3 0.1-0.2 2 0.5 2.2 0.7 4.3 1.4 0.2-0.2-0.9-0.3-1.2-0.6 2 0.7 3.8 1.2 5 2-0.4-0.3-1.6-0.7-2.5-1.1-0.1 0.1 0.3 0.2 0.4 0.4-1-0.5-2.4-1-3.8-1.2 1.2 0.3 2 0.7 2.5 0.9-1.1-0.2-2.5-0.9-4.1-1.2 2.6 0.8 7.5 2.6 10.5 4.2-1.1-0.7-2.4-1.2-3.1-1.6 0.6 0.1 1.3 0.5 1.3 0.3 0.7 0.3 1.6 1 2.1 1.1-0.9-0.6-2.7-1.5-3.3-1.8 7.5 3.4 14.2 9.1 18.5 16.4 0.4 0.7 1 2.3 1.5 2.5-0.1-0.5-0.5-0.8-0.9-1.6 0.2 0 0.2-0.3 0-0.6-0.4-0.5 0 0.4-0.4-0.1-1.8-3.3-4-6.2-7.4-9.4 1.9 1.8 0.5 0.5 0.1-0.1 2.6 2.3 5.6 6.2 6.9 8.2-0.2-0.3-0.3-0.5-0.2-0.5 2.4 4.1 3.9 7.8 5.4 13.1 0.1 0.1 0-0.4 0.2-0.1 1 4.2 1.3 7.7 1.2 10.9 0.8-5.4-1-13.8-4.2-20.4-0.4-0.8-0.4-0.2-0.8-1.1 0-0.3-0.3-0.9-0.5-1.3-4-6.6-8.9-11.3-14.7-15 0.4 0.2 1.2 0.8 1.2 0.7-10.8-7.1-23.3-8.1-33.6-5.9-0.7 0.3-1 0.6-1.8 1 1.5-0.5 2.4-0.6 3.8-0.9 0.3-0.3-1.3 0.1-0.6-0.2 0.1 0.1 1.4-0.2 1.7-0.1 0 0.1-0.4 0.2-0.5 0.3 3.3-0.7 6.7-0.8 9.6-0.6-1.7 0.1-4.8-0.2-5.8 0.3 1-0.1 2.4-0.2 3.3-0.1-1.2 0-3.4 0.1-4.4 0.2-0.1-0.1 1.6-0.3 0.5-0.3-0.5 0.1-1.3 0.1-1.6 0.4-8.6 0.8-17 5.3-22.9 10.6-1.2 1-2.6 2.1-3.5 3.2-2.2 2.5-3.6 5-5.2 7.2 1-2.1 3.2-5.3 5.8-8 2.6-2.7 5.4-5 6.9-6.2 0 0.4 2.4-1.5 3.3-2.1-0.6 0.5 0.4-0.2 0.6-0.1 3.2-1.9 5.8-2.6 8.7-3.7-0.7 0.2-1.3 0.4-1.4 0.3 0.7-0.2 1.1-0.4 1-0.5-2.8 0.8-7.2 2.7-10.7 4.8 6.3-4.3 14.3-6.9 22.2-7 7.9-0.2 15.6 1.8 21.7 5 4.1 1.8 8 5.1 11.1 8.3 0.9 0.8 0.2-0.2 1.5 1.2-0.4-0.2-0.7-0.4-0.2 0.2 0.8 0.9-0.2-0.7 1.1 0.9-0.1 0-0.5-0.5-0.5-0.3 3.5 3.1 6.2 8.7 7.8 12.4-0.4-1.5-1.4-3.6-2.2-5.1 2.4 4.4 3.2 7 4.2 10.9 0.4 0.3-0.2-1.4 0.2-0.6 0.1 0.6 0.2 2.5 0.6 2.8-0.3-1.9-0.8-4.2-1.2-4.6 0.3 0.2-0.5-2.3-1-2.9-0.2-1.6-1.6-4.4-2.8-6.5-4.3-8.4-12-15.3-20.6-19.1 0-0.2-0.5-0.4-0.7-0.6-8.5-3.6-18.7-4.6-28.5-2.3-9.9 2.4-19.2 8.1-25.8 16.3 0.3-1 2.8-2.9 2.9-3.7-2.9 3.1-6 7.2-8.1 11.6-2.2 4.4-3.4 8.9-3.9 12.2" fill="black" fill-rule="nonzero" stroke="none" stroke-width="1" stroke-linecap="butt" stroke-linejoin="miter" stroke-miterlimit="10" stroke-dasharray="" stroke-dashoffset="0" font-family="none" font-weight="none" font-size="none" text-anchor="none" style="mix-blend-mode: normal"></path></g><g transform="matrix(1,0,0,1,48,160.20806248442258)"><svg viewBox="0 0 224 39.58387503115482" height="39.58387503115482" width="224"><g><svg viewBox="0 0 362.8955633781492 64.12862781304098" height="39.58387503115482" width="224"><g transform="matrix(1,0,0,1,0,8.86292902481247)"><svg viewBox="0 0 224.00000000000003 46.40276976341604" height="46.40276976341604" width="224.00000000000003"><g id="SvgjsG1739"><svg viewBox="0 0 224.00000000000003 46.40276976341604" height="46.40276976341604" width="224.00000000000003" id="SvgjsSvg1738"><g><svg viewBox="0 0 224.00000000000003 46.40276976341604" height="46.40276976341604" width="224.00000000000003"><g transform="matrix(1,0,0,1,0,0)"><svg width="224.00000000000003" viewBox="0.2 -35.1 173.29000000000002 35.9" height="46.40276976341604" data-palette-color="url(#3d730def-0a2c-47d2-b0e4-09385b0f2584)"><path d="M12.25 0L0.2 0 0.4-1.05 0.95-1.2Q3-1.8 3.45-3.95L3.45-3.95 6-17.55Q6.55-20.25 7.05-23.08 7.55-25.9 8.1-29.1L8.1-29.1Q8.4-31.25 6.4-31.85L6.4-31.85 5.9-32 6.15-33.05 16.9-33.05Q23.25-33.05 26.15-30.58 29.05-28.1 29.05-24.1L29.05-24.1Q29.05-21.1 27.38-18.55 25.7-16 22.35-14.45 19-12.9 13.95-12.9L13.95-12.9 11.6-12.9Q11.25-10.9 10.85-8.65 10.45-6.4 10.05-4.05L10.05-4.05Q9.6-1.85 11.8-1.2L11.8-1.2 12.45-1.05 12.25 0ZM11.9-14.4L11.9-14.4 13.85-14.4Q17.8-14.4 20.13-17.03 22.45-19.65 22.45-24.2L22.45-24.2Q22.45-27.8 20.9-29.7 19.35-31.6 16.45-31.6L16.45-31.6 15.1-31.6Q14.3-27.3 13.5-23 12.7-18.7 11.9-14.4ZM35.25 0L29.5 0.35 29.1-0.05 33.7-22.05Q34.05-23.8 34.32-25.28 34.6-26.75 34.95-28.55L34.95-28.55Q35.35-30.7 33.2-31.3L33.2-31.3 32.5-31.55 32.65-32.4 41.8-35.1 42.25-34.7 38.9-18.9Q41.4-21.45 44.2-23.1 47-24.75 49.35-24.75L49.35-24.75Q50.95-24.75 51.95-23.78 52.95-22.8 52.95-20.8L52.95-20.8Q52.95-19.7 52.75-18.57 52.55-17.45 52.25-16.25L52.25-16.25 49.8-6.35Q49.6-5.4 49.42-4.73 49.25-4.05 49.25-3.65L49.25-3.65Q49.25-2.6 50.1-2.6L50.1-2.6Q51.35-2.6 53.5-4.65L53.5-4.65 54.15-4Q52.95-2.25 50.95-0.78 48.95 0.7 46.45 0.7L46.45 0.7Q44.85 0.7 43.97-0.05 43.1-0.8 43.1-2.1L43.1-2.1Q43.1-3.15 43.35-4.23 43.6-5.3 43.9-6.55L43.9-6.55 46.1-15.2Q46.45-16.5 46.7-17.6 46.95-18.7 46.95-19.5L46.95-19.5Q46.95-21.3 45.35-21.3L45.35-21.3Q42.8-21.3 38.7-17.35L38.7-17.35 37.25-10.65Q36.6-7.65 36.12-5.15 35.65-2.65 35.25 0L35.25 0ZM65.55 0.7L65.55 0.7Q61.85 0.7 59.52-1.7 57.2-4.1 57.2-8.65L57.2-8.65Q57.2-11.8 58.3-14.7 59.4-17.6 61.32-19.88 63.25-22.15 65.84-23.45 68.45-24.75 71.45-24.75L71.45-24.75Q74.55-24.75 76.17-23.35 77.8-21.95 77.8-19.6L77.8-19.6Q77.8-16.75 74.02-13.98 70.25-11.2 63.1-9.65L63.1-9.65Q63.25-6.4 64.65-4.9 66.05-3.4 68.5-3.4L68.5-3.4Q70.7-3.4 72.45-4.55 74.2-5.7 75.4-7.25L75.4-7.25 76.15-6.7Q75.15-4.8 73.57-3.1 72-1.4 70-0.35 68 0.7 65.55 0.7ZM70.95-23.05L70.95-23.05Q69.8-23.05 68.5-22.08 67.2-21.1 66.02-19.43 64.84-17.75 64.05-15.58 63.25-13.4 63.1-10.95L63.1-10.95Q68.7-12.6 70.97-15.05 73.25-17.5 73.25-20.25L73.25-20.25Q73.25-21.7 72.59-22.38 71.95-23.05 70.95-23.05ZM85.09 0L79.44 0.4 78.94-0.05 82.74-18.2Q83.19-20.2 81.24-21L81.24-21 80.49-21.3 80.59-22.15 89.44-24.8 89.99-24.3 88.89-18.65Q91.49-21.4 94.19-23.08 96.89-24.75 99.24-24.75L99.24-24.75Q100.84-24.75 101.87-23.78 102.89-22.8 102.89-20.8L102.89-20.8Q102.89-19.7 102.69-18.57 102.49-17.45 102.19-16.25L102.19-16.25 99.64-6Q99.44-5.2 99.32-4.63 99.19-4.05 99.19-3.65L99.19-3.65Q99.19-2.6 100.04-2.6L100.04-2.6Q101.34-2.6 103.34-4.7L103.34-4.7 104.04-4Q102.79-2.15 100.79-0.73 98.79 0.7 96.34 0.7L96.34 0.7Q94.79 0.7 93.89-0.05 92.99-0.8 92.99-2.1L92.99-2.1Q92.99-3.15 93.24-4.23 93.49-5.3 93.84-6.55L93.84-6.55 95.79-14.45Q96.19-15.95 96.44-17.15 96.69-18.35 96.69-19.3L96.69-19.3Q96.69-20.3 96.27-20.68 95.84-21.05 95.14-21.05L95.14-21.05Q93.94-21.05 92.27-20.03 90.59-19 88.49-16.8L88.49-16.8 87.14-10.65Q86.59-8 86.09-5.35 85.59-2.7 85.09 0L85.09 0ZM115.09-27.7L115.09-27.7Q113.69-27.7 112.69-28.6 111.69-29.5 111.69-31.05L111.69-31.05Q111.69-32.7 112.89-33.8 114.09-34.9 115.59-34.9L115.59-34.9Q117.04-34.9 117.99-33.98 118.94-33.05 118.94-31.6L118.94-31.6Q118.94-30 117.77-28.85 116.59-27.7 115.09-27.7ZM110.49 0.7L110.49 0.7Q108.99 0.7 108.02-0.08 107.04-0.85 107.04-2.35L107.04-2.35Q107.04-3.2 107.24-4.4 107.44-5.6 107.69-6.85L107.69-6.85 110.04-18.15Q110.49-20.25 108.49-21L108.49-21 107.79-21.3 107.89-22.2 116.89-24.8 117.39-24.3 113.59-6.45Q113.39-5.6 113.29-4.98 113.19-4.35 113.19-3.8L113.19-3.8Q113.19-2.7 114.19-2.7L114.19-2.7Q115.39-2.7 117.34-4.6L117.34-4.6 117.99-3.95Q116.74-2.1 114.87-0.7 112.99 0.7 110.49 0.7ZM130.09 0.7L130.09 0.7Q127.54 0.7 125.44-0.3 123.34-1.3 122.09-3.38 120.84-5.45 120.84-8.6L120.84-8.6Q120.84-11.8 121.91-14.7 122.99-17.6 124.91-19.88 126.84-22.15 129.41-23.45 131.99-24.75 134.94-24.75L134.94-24.75Q138.89-24.75 141.49-22.48 144.09-20.2 144.09-15.45L144.09-15.45Q144.09-12.3 143.01-9.4 141.94-6.5 140.04-4.23 138.14-1.95 135.59-0.63 133.04 0.7 130.09 0.7ZM130.69-0.7L130.69-0.7Q132.29-0.7 133.59-2.08 134.89-3.45 135.84-5.7 136.79-7.95 137.31-10.73 137.84-13.5 137.84-16.25L137.84-16.25Q137.84-20.2 136.91-21.75 135.99-23.3 134.54-23.3L134.54-23.3Q132.94-23.3 131.56-21.98 130.19-20.65 129.19-18.4 128.19-16.15 127.64-13.43 127.09-10.7 127.09-7.9L127.09-7.9Q127.09-3.85 128.11-2.27 129.14-0.7 130.69-0.7ZM147.84 0.7L147.84 0.7Q146.39 0.7 145.26-0.15 144.14-1 144.14-2.55L144.14-2.55Q144.14-3.8 144.96-4.58 145.79-5.35 146.99-5.35L146.99-5.35Q148.49-5.35 149.64-3.9L149.64-3.9Q150.94-2.15 152.29-3.9L152.29-3.9Q153.34-5.25 154.44-6.8 155.54-8.35 156.69-10L156.69-10 154.19-17.7Q153.69-19.45 153.16-20.13 152.64-20.8 151.79-20.8L151.79-20.8Q151.29-20.8 150.56-20.5 149.84-20.2 149.04-19.2L149.04-19.2 148.29-20Q151.54-24.75 154.84-24.75L154.84-24.75Q156.74-24.75 157.66-23.65 158.59-22.55 159.34-20.2L159.34-20.2 160.89-15.45Q162.29-17.7 163.44-19.35 164.59-21 165.14-21.7L165.14-21.7Q166.59-23.5 167.84-24.13 169.09-24.75 170.34-24.75L170.34-24.75Q171.59-24.75 172.54-24 173.49-23.25 173.49-21.8L173.49-21.8Q173.49-20.5 172.69-19.73 171.89-18.95 170.84-18.95L170.84-18.95Q169.19-18.95 168.19-20.25L168.19-20.25Q167.64-20.95 167.16-21.03 166.69-21.1 165.99-20.25L165.99-20.25Q165.19-19.3 163.96-17.6 162.74-15.9 161.39-13.95L161.39-13.95 163.99-6Q164.54-4.2 165.06-3.6 165.59-3 166.39-3L166.39-3Q167.69-3 169.44-4.85L169.44-4.85 170.19-4.1Q168.84-2 167.11-0.6 165.39 0.8 163.44 0.8L163.44 0.8Q161.89 0.8 160.79-0.03 159.69-0.85 158.94-3.1L158.94-3.1 157.19-8.55Q155.84-6.45 154.71-4.8 153.59-3.15 152.64-1.95L152.64-1.95Q151.59-0.55 150.46 0.08 149.34 0.7 147.84 0.7Z" opacity="1" transform="matrix(1,0,0,1,0,0)" fill="white" class="wordmark-text-0" id="SvgjsPath1737"></path></svg></g></svg></g></svg></g></svg></g><g transform="matrix(1,0,0,1,234.95458027466825,0)"><svg viewBox="0 0 127.94098310348092 64.12862781304098" height="64.12862781304098" width="127.94098310348092"><g><svg xmlns="http://www.w3.org/2000/svg" xmlns:xlink="http://www.w3.org/1999/xlink" xml:space="preserve" style="shape-rendering:geometricPrecision;text-rendering:geometricPrecision;image-rendering:optimizeQuality;" viewBox="0.0000020000000000575113 0.0000027841116459863258 14.727499 7.381952827609914" x="0" y="0" fill-rule="evenodd" clip-rule="evenodd" width="127.94098310348092" height="64.12862781304098" class="icon-icon-0" data-fill-palette-color="accent" id="SvgjsSvg1736"><g fill="black"><path class="" d="M1.757 3.091c-0.313 0.444-0.296 1.331-0.417 1.95-0.153 0.784-0.711 1.203-1.34 1.534 0.188-0.771 0.348-1.542 0.412-2.313 0.078-0.953-0.06-0.891 0.767-1.575 1.159-0.961 3.04-1.741 5.848-2.29 2.456-0.406 5.049-0.453 7.701-0.351-0.89 1.809-3.733 1.961-7.203 1.581-1.811 0.02-3.495-0.488-5.768 1.464z m8.33 2.781c-3.895 2.038-7.803-2.284-9.165 0.688 2.104-1.831 5.079 3.183 9.165-0.688z m2.489-2.547c-4.49 2.72-9.502-0.792-10.907 1.859 3.412-1.235 7.765 2.753 10.907-1.859z m0.834-1.478c-3.944 1.761-10.043-1.402-11.565 2.239 3.106-1.808 8.446 1.438 11.565-2.239z" fill="black"></path></g></svg></g></svg></g></svg></g></svg></g></svg></g><defs><mask></mask></defs></svg><rect width="320" height="360" fill="black" stroke="none" visibility="hidden"></rect></g></mask><linearGradient x1="0.054" x2="0.941" y1="0.5" y2="0.5" id="3d730def-0a2c-47d2-b0e4-09385b0f2584"><stop stop-color="#9c7945" offset="0"></stop><stop stop-color="#faf3aa" offset="0.498"></stop><stop stop-color="#9c7945" offset="1"></stop></linearGradient><rect width="320.000005" height="360" fill="url(#3d730def-0a2c-47d2-b0e4-09385b0f2584)" mask="url(#784754e5-2fa2-40d9-9ba2-da61d24aebf4)" data-fill-palette-color="primary"></rect><mask id="4db9f2d3-2aa0-490a-a9ba-1d287461a3c6"><g id="SvgjsG1759"><svg viewBox="0 0 320 360" height="360" width="320"><g><svg></svg></g><g><svg viewBox="0 0 320 360" height="360" width="320"><g><path transform="translate(-19.44751,3.1739) scale(3.53591,3.53591)" d="M67.6 10.7c0.2 0 1.8 0.8 2.7 1.1-0.3 0.1-1-0.2-1.8-0.5 0.2 0 0.6 0.1 1 0.3-0.2-0.2-1.7-0.7-1.9-0.9M52.7 7.6c0.3-0.1 3.8 0.4 5.4 0.5 0.1-0.1-0.2-0.1-0.6-0.2 0.5-0.1 1.5 0.2 2.2 0.3-2.1 0.1-4.4-0.5-6.4-0.3-0.7 0-0.2-0.2-0.6-0.3M49.8 7.6c1.8 0 3.2 0 0.6 0.2-0.3-0.1-0.7-0.1-0.6-0.2M78.1 15.9c0.2 0 1 0.9 1.4 1.2-0.1 0.1-0.9-0.7-1.3-1 0.1 0.1 0 0-0.1-0.2M76.1 14.6c-0.8-0.7-1.1-0.7-1.2-1.1 0.7 0.4 1.2 0.8 1.2 1.1M63.2 8.3c0.1-0.1 0.3 0.1 0.8 0.2-0.6-0.1-0.5 0-0.3 0.2-0.7-0.1-0.9-0.2-0.7-0.4 0.4 0.2 0.5 0.1 0.2 0M34.8 9.5c0-0.1 0.4-0.3 0.7-0.4-0.3 0.2-0.2 0.3 0.3 0.1 0 0.1-0.6 0.3-1 0.5 0.2-0.1 0.4-0.4 0-0.2M65.2 7.3c-0.3 0.1-1.4-0.5-2.5-0.7-0.6-0.2 2.4 0.5 2.5 0.7M6.2 56.7c0.6 2.5 0.2 2.4 0 0M6.3 41.7c0.1-0.4 0.2-1.5 0.3-1.4-0.3 2.4-0.8 3.5-0.9 5.3 0.3-1.6-0.1 0.9-0.2 1.5 0.1 0.8 0.1-0.5 0.3-0.3 0.2 0.3-0.4 4.5-0.2 2.2-0.2 2.1 0 4.4 0.4 5-0.5 3.2 2 10.4 2.5 11.9 0.1 0.1 0-0.5 0.2-0.1 0.2 1.3 1.1 2.2 1.4 3.6 0.3 0.4 1.5 2.6 1.7 3.1 0.4 0.8 0.6 0.7 1 1.5 1.2 2.3 3.1 4.5 4.9 6.6 5.8 6.8 14.7 12.4 24.6 14.4 9.9 2.1 20.3 0.6 28.4-3.3 0.5-0.3 0.4-0.4 1-0.6 2.8-0.9 6.2-3.8 8.1-4.9 0.9-1 3.3-2.7 3.6-3.7 1.7-1.4 3.4-3.7 4.3-5.2 0.5-0.8 0.9-0.8 1.1-1.3-0.1 0 1.6-2.1 2.1-3.3-0.2 0-0.5 0.6-0.5 0 3.6-6.9 5.6-16.2 4.5-22.6 0.2 7.9-1.8 16.7-5.6 22.3-1.7 3.6-5.2 7.5-8.4 10.3-0.5 0.5-1 1.1-1.6 1.5-1.9 1.6-4 2.9-6.2 4.1-5.2 2.9-11 5.4-17.8 5.5 11.7-1 22.2-6.9 28-14.1-4.4 4.3-6.3 6-11.2 8.5-0.4 0.7-3.7 2.1-5.9 2.7 1.3-0.6 4-1.6 4.9-2.4-7.3 3.5-15.4 5.5-23 4.4 2.9 0 7 0.1 10.9-0.6 0.6-0.2 0.9-0.4 1.6-0.5 7.6-1.7 14.9-5.4 20.1-10.6-3 2.7-7.5 5.9-10.4 6.9 2.7-1.5 7.6-4.4 9.2-6.6-3.2 3.2-9.2 6.4-13 7.8-0.6 0.1 0.4-0.4-0.6 0-1.2 0.3-0.7 0.3-1 0.5-4.6 1.3-9.9 2.4-14.3 2-0.8-0.1-1.1-0.3-1.8-0.3-0.8-0.1-1.5-0.1-2.4-0.1-3.5-0.4-7.3-1.8-10.1-3-1.5-0.7-3-1.2-4.5-2.1-1.2-0.7-2.2-1.5-3.2-2.3-3.8-2.8-7-5.6-10-9.6-5.4-7.5-8.2-16.9-7.8-26.2 0.4-9.3 4.1-18.4 10-25.1-0.3 0.3 0.4-0.7 1-1.3 0 0.2-0.1 0.5 0.6-0.2 0.6-0.7-0.2-0.2 0.1-0.6 6.2-6.8 17-12.3 28.1-12.5 0.4-0.3 1.1-0.7 1.9-0.5 0 0.1-0.5 0.1-0.5 0.1 1.1-0.1 2.1-0.1 2.6 0.1 0.1-0.1-0.4-0.2 0-0.2 0.7 0.2 0.9 0 1.3 0.2-0.3 0-0.6 0-0.8 0.1 2.5 0 4.1 0.6 6.6 0.8-1.3-0.3-1.6-0.3-2.6-0.6 1.1 0.2 1.6 0.4 2.1 0.3-0.2 0-0.1-0.3 0.1-0.2 2 0.5 2.2 0.7 4.3 1.4 0.2-0.2-0.9-0.3-1.2-0.6 2 0.7 3.8 1.2 5 2-0.4-0.3-1.6-0.7-2.5-1.1-0.1 0.1 0.3 0.2 0.4 0.4-1-0.5-2.4-1-3.8-1.2 1.2 0.3 2 0.7 2.5 0.9-1.1-0.2-2.5-0.9-4.1-1.2 2.6 0.8 7.5 2.6 10.5 4.2-1.1-0.7-2.4-1.2-3.1-1.6 0.6 0.1 1.3 0.5 1.3 0.3 0.7 0.3 1.6 1 2.1 1.1-0.9-0.6-2.7-1.5-3.3-1.8 7.5 3.4 14.2 9.1 18.5 16.4 0.4 0.7 1 2.3 1.5 2.5-0.1-0.5-0.5-0.8-0.9-1.6 0.2 0 0.2-0.3 0-0.6-0.4-0.5 0 0.4-0.4-0.1-1.8-3.3-4-6.2-7.4-9.4 1.9 1.8 0.5 0.5 0.1-0.1 2.6 2.3 5.6 6.2 6.9 8.2-0.2-0.3-0.3-0.5-0.2-0.5 2.4 4.1 3.9 7.8 5.4 13.1 0.1 0.1 0-0.4 0.2-0.1 1 4.2 1.3 7.7 1.2 10.9 0.8-5.4-1-13.8-4.2-20.4-0.4-0.8-0.4-0.2-0.8-1.1 0-0.3-0.3-0.9-0.5-1.3-4-6.6-8.9-11.3-14.7-15 0.4 0.2 1.2 0.8 1.2 0.7-10.8-7.1-23.3-8.1-33.6-5.9-0.7 0.3-1 0.6-1.8 1 1.5-0.5 2.4-0.6 3.8-0.9 0.3-0.3-1.3 0.1-0.6-0.2 0.1 0.1 1.4-0.2 1.7-0.1 0 0.1-0.4 0.2-0.5 0.3 3.3-0.7 6.7-0.8 9.6-0.6-1.7 0.1-4.8-0.2-5.8 0.3 1-0.1 2.4-0.2 3.3-0.1-1.2 0-3.4 0.1-4.4 0.2-0.1-0.1 1.6-0.3 0.5-0.3-0.5 0.1-1.3 0.1-1.6 0.4-8.6 0.8-17 5.3-22.9 10.6-1.2 1-2.6 2.1-3.5 3.2-2.2 2.5-3.6 5-5.2 7.2 1-2.1 3.2-5.3 5.8-8 2.6-2.7 5.4-5 6.9-6.2 0 0.4 2.4-1.5 3.3-2.1-0.6 0.5 0.4-0.2 0.6-0.1 3.2-1.9 5.8-2.6 8.7-3.7-0.7 0.2-1.3 0.4-1.4 0.3 0.7-0.2 1.1-0.4 1-0.5-2.8 0.8-7.2 2.7-10.7 4.8 6.3-4.3 14.3-6.9 22.2-7 7.9-0.2 15.6 1.8 21.7 5 4.1 1.8 8 5.1 11.1 8.3 0.9 0.8 0.2-0.2 1.5 1.2-0.4-0.2-0.7-0.4-0.2 0.2 0.8 0.9-0.2-0.7 1.1 0.9-0.1 0-0.5-0.5-0.5-0.3 3.5 3.1 6.2 8.7 7.8 12.4-0.4-1.5-1.4-3.6-2.2-5.1 2.4 4.4 3.2 7 4.2 10.9 0.4 0.3-0.2-1.4 0.2-0.6 0.1 0.6 0.2 2.5 0.6 2.8-0.3-1.9-0.8-4.2-1.2-4.6 0.3 0.2-0.5-2.3-1-2.9-0.2-1.6-1.6-4.4-2.8-6.5-4.3-8.4-12-15.3-20.6-19.1 0-0.2-0.5-0.4-0.7-0.6-8.5-3.6-18.7-4.6-28.5-2.3-9.9 2.4-19.2 8.1-25.8 16.3 0.3-1 2.8-2.9 2.9-3.7-2.9 3.1-6 7.2-8.1 11.6-2.2 4.4-3.4 8.9-3.9 12.2" fill="black" fill-rule="nonzero" stroke="none" stroke-width="1" stroke-linecap="butt" stroke-linejoin="miter" stroke-miterlimit="10" stroke-dasharray="" stroke-dashoffset="0" font-family="none" font-weight="none" font-size="none" text-anchor="none" style="mix-blend-mode: normal"></path></g><g transform="matrix(1,0,0,1,48,160.20806248442258)"><svg viewBox="0 0 224 39.58387503115482" height="39.58387503115482" width="224"><g><svg viewBox="0 0 362.8955633781492 64.12862781304098" height="39.58387503115482" width="224"><g transform="matrix(1,0,0,1,0,8.86292902481247)"><svg viewBox="0 0 224.00000000000003 46.40276976341604" height="46.40276976341604" width="224.00000000000003"><g id="SvgjsG1758"><svg viewBox="0 0 224.00000000000003 46.40276976341604" height="46.40276976341604" width="224.00000000000003" id="SvgjsSvg1757"><g><svg viewBox="0 0 224.00000000000003 46.40276976341604" height="46.40276976341604" width="224.00000000000003"><g transform="matrix(1,0,0,1,0,0)"><svg width="224.00000000000003" viewBox="0.2 -35.1 173.29000000000002 35.9" height="46.40276976341604" data-palette-color="url(#3d730def-0a2c-47d2-b0e4-09385b0f2584)"></svg></g></svg></g></svg></g></svg></g><g transform="matrix(1,0,0,1,234.95458027466825,0)"><svg viewBox="0 0 127.94098310348092 64.12862781304098" height="64.12862781304098" width="127.94098310348092"><g><svg xmlns="http://www.w3.org/2000/svg" xmlns:xlink="http://www.w3.org/1999/xlink" xml:space="preserve" style="shape-rendering:geometricPrecision;text-rendering:geometricPrecision;image-rendering:optimizeQuality;" viewBox="0.0000020000000000575113 0.0000027841116459863258 14.727499 7.381952827609914" x="0" y="0" fill-rule="evenodd" clip-rule="evenodd" width="127.94098310348092" height="64.12862781304098" class="icon-icon-0" data-fill-palette-color="accent" id="SvgjsSvg1756"><g fill="white"><path class="" d="M1.757 3.091c-0.313 0.444-0.296 1.331-0.417 1.95-0.153 0.784-0.711 1.203-1.34 1.534 0.188-0.771 0.348-1.542 0.412-2.313 0.078-0.953-0.06-0.891 0.767-1.575 1.159-0.961 3.04-1.741 5.848-2.29 2.456-0.406 5.049-0.453 7.701-0.351-0.89 1.809-3.733 1.961-7.203 1.581-1.811 0.02-3.495-0.488-5.768 1.464z m8.33 2.781c-3.895 2.038-7.803-2.284-9.165 0.688 2.104-1.831 5.079 3.183 9.165-0.688z m2.489-2.547c-4.49 2.72-9.502-0.792-10.907 1.859 3.412-1.235 7.765 2.753 10.907-1.859z m0.834-1.478c-3.944 1.761-10.043-1.402-11.565 2.239 3.106-1.808 8.446 1.438 11.565-2.239z" fill="white"></path></g></svg></g></svg></g></svg></g></svg></g></svg></g><defs><mask></mask></defs><mask><g id="SvgjsG1755"><svg viewBox="0 0 320 360" height="360" width="320"><g><svg></svg></g><g><svg viewBox="0 0 320 360" height="360" width="320"><g><path transform="translate(-19.44751,3.1739) scale(3.53591,3.53591)" d="M67.6 10.7c0.2 0 1.8 0.8 2.7 1.1-0.3 0.1-1-0.2-1.8-0.5 0.2 0 0.6 0.1 1 0.3-0.2-0.2-1.7-0.7-1.9-0.9M52.7 7.6c0.3-0.1 3.8 0.4 5.4 0.5 0.1-0.1-0.2-0.1-0.6-0.2 0.5-0.1 1.5 0.2 2.2 0.3-2.1 0.1-4.4-0.5-6.4-0.3-0.7 0-0.2-0.2-0.6-0.3M49.8 7.6c1.8 0 3.2 0 0.6 0.2-0.3-0.1-0.7-0.1-0.6-0.2M78.1 15.9c0.2 0 1 0.9 1.4 1.2-0.1 0.1-0.9-0.7-1.3-1 0.1 0.1 0 0-0.1-0.2M76.1 14.6c-0.8-0.7-1.1-0.7-1.2-1.1 0.7 0.4 1.2 0.8 1.2 1.1M63.2 8.3c0.1-0.1 0.3 0.1 0.8 0.2-0.6-0.1-0.5 0-0.3 0.2-0.7-0.1-0.9-0.2-0.7-0.4 0.4 0.2 0.5 0.1 0.2 0M34.8 9.5c0-0.1 0.4-0.3 0.7-0.4-0.3 0.2-0.2 0.3 0.3 0.1 0 0.1-0.6 0.3-1 0.5 0.2-0.1 0.4-0.4 0-0.2M65.2 7.3c-0.3 0.1-1.4-0.5-2.5-0.7-0.6-0.2 2.4 0.5 2.5 0.7M6.2 56.7c0.6 2.5 0.2 2.4 0 0M6.3 41.7c0.1-0.4 0.2-1.5 0.3-1.4-0.3 2.4-0.8 3.5-0.9 5.3 0.3-1.6-0.1 0.9-0.2 1.5 0.1 0.8 0.1-0.5 0.3-0.3 0.2 0.3-0.4 4.5-0.2 2.2-0.2 2.1 0 4.4 0.4 5-0.5 3.2 2 10.4 2.5 11.9 0.1 0.1 0-0.5 0.2-0.1 0.2 1.3 1.1 2.2 1.4 3.6 0.3 0.4 1.5 2.6 1.7 3.1 0.4 0.8 0.6 0.7 1 1.5 1.2 2.3 3.1 4.5 4.9 6.6 5.8 6.8 14.7 12.4 24.6 14.4 9.9 2.1 20.3 0.6 28.4-3.3 0.5-0.3 0.4-0.4 1-0.6 2.8-0.9 6.2-3.8 8.1-4.9 0.9-1 3.3-2.7 3.6-3.7 1.7-1.4 3.4-3.7 4.3-5.2 0.5-0.8 0.9-0.8 1.1-1.3-0.1 0 1.6-2.1 2.1-3.3-0.2 0-0.5 0.6-0.5 0 3.6-6.9 5.6-16.2 4.5-22.6 0.2 7.9-1.8 16.7-5.6 22.3-1.7 3.6-5.2 7.5-8.4 10.3-0.5 0.5-1 1.1-1.6 1.5-1.9 1.6-4 2.9-6.2 4.1-5.2 2.9-11 5.4-17.8 5.5 11.7-1 22.2-6.9 28-14.1-4.4 4.3-6.3 6-11.2 8.5-0.4 0.7-3.7 2.1-5.9 2.7 1.3-0.6 4-1.6 4.9-2.4-7.3 3.5-15.4 5.5-23 4.4 2.9 0 7 0.1 10.9-0.6 0.6-0.2 0.9-0.4 1.6-0.5 7.6-1.7 14.9-5.4 20.1-10.6-3 2.7-7.5 5.9-10.4 6.9 2.7-1.5 7.6-4.4 9.2-6.6-3.2 3.2-9.2 6.4-13 7.8-0.6 0.1 0.4-0.4-0.6 0-1.2 0.3-0.7 0.3-1 0.5-4.6 1.3-9.9 2.4-14.3 2-0.8-0.1-1.1-0.3-1.8-0.3-0.8-0.1-1.5-0.1-2.4-0.1-3.5-0.4-7.3-1.8-10.1-3-1.5-0.7-3-1.2-4.5-2.1-1.2-0.7-2.2-1.5-3.2-2.3-3.8-2.8-7-5.6-10-9.6-5.4-7.5-8.2-16.9-7.8-26.2 0.4-9.3 4.1-18.4 10-25.1-0.3 0.3 0.4-0.7 1-1.3 0 0.2-0.1 0.5 0.6-0.2 0.6-0.7-0.2-0.2 0.1-0.6 6.2-6.8 17-12.3 28.1-12.5 0.4-0.3 1.1-0.7 1.9-0.5 0 0.1-0.5 0.1-0.5 0.1 1.1-0.1 2.1-0.1 2.6 0.1 0.1-0.1-0.4-0.2 0-0.2 0.7 0.2 0.9 0 1.3 0.2-0.3 0-0.6 0-0.8 0.1 2.5 0 4.1 0.6 6.6 0.8-1.3-0.3-1.6-0.3-2.6-0.6 1.1 0.2 1.6 0.4 2.1 0.3-0.2 0-0.1-0.3 0.1-0.2 2 0.5 2.2 0.7 4.3 1.4 0.2-0.2-0.9-0.3-1.2-0.6 2 0.7 3.8 1.2 5 2-0.4-0.3-1.6-0.7-2.5-1.1-0.1 0.1 0.3 0.2 0.4 0.4-1-0.5-2.4-1-3.8-1.2 1.2 0.3 2 0.7 2.5 0.9-1.1-0.2-2.5-0.9-4.1-1.2 2.6 0.8 7.5 2.6 10.5 4.2-1.1-0.7-2.4-1.2-3.1-1.6 0.6 0.1 1.3 0.5 1.3 0.3 0.7 0.3 1.6 1 2.1 1.1-0.9-0.6-2.7-1.5-3.3-1.8 7.5 3.4 14.2 9.1 18.5 16.4 0.4 0.7 1 2.3 1.5 2.5-0.1-0.5-0.5-0.8-0.9-1.6 0.2 0 0.2-0.3 0-0.6-0.4-0.5 0 0.4-0.4-0.1-1.8-3.3-4-6.2-7.4-9.4 1.9 1.8 0.5 0.5 0.1-0.1 2.6 2.3 5.6 6.2 6.9 8.2-0.2-0.3-0.3-0.5-0.2-0.5 2.4 4.1 3.9 7.8 5.4 13.1 0.1 0.1 0-0.4 0.2-0.1 1 4.2 1.3 7.7 1.2 10.9 0.8-5.4-1-13.8-4.2-20.4-0.4-0.8-0.4-0.2-0.8-1.1 0-0.3-0.3-0.9-0.5-1.3-4-6.6-8.9-11.3-14.7-15 0.4 0.2 1.2 0.8 1.2 0.7-10.8-7.1-23.3-8.1-33.6-5.9-0.7 0.3-1 0.6-1.8 1 1.5-0.5 2.4-0.6 3.8-0.9 0.3-0.3-1.3 0.1-0.6-0.2 0.1 0.1 1.4-0.2 1.7-0.1 0 0.1-0.4 0.2-0.5 0.3 3.3-0.7 6.7-0.8 9.6-0.6-1.7 0.1-4.8-0.2-5.8 0.3 1-0.1 2.4-0.2 3.3-0.1-1.2 0-3.4 0.1-4.4 0.2-0.1-0.1 1.6-0.3 0.5-0.3-0.5 0.1-1.3 0.1-1.6 0.4-8.6 0.8-17 5.3-22.9 10.6-1.2 1-2.6 2.1-3.5 3.2-2.2 2.5-3.6 5-5.2 7.2 1-2.1 3.2-5.3 5.8-8 2.6-2.7 5.4-5 6.9-6.2 0 0.4 2.4-1.5 3.3-2.1-0.6 0.5 0.4-0.2 0.6-0.1 3.2-1.9 5.8-2.6 8.7-3.7-0.7 0.2-1.3 0.4-1.4 0.3 0.7-0.2 1.1-0.4 1-0.5-2.8 0.8-7.2 2.7-10.7 4.8 6.3-4.3 14.3-6.9 22.2-7 7.9-0.2 15.6 1.8 21.7 5 4.1 1.8 8 5.1 11.1 8.3 0.9 0.8 0.2-0.2 1.5 1.2-0.4-0.2-0.7-0.4-0.2 0.2 0.8 0.9-0.2-0.7 1.1 0.9-0.1 0-0.5-0.5-0.5-0.3 3.5 3.1 6.2 8.7 7.8 12.4-0.4-1.5-1.4-3.6-2.2-5.1 2.4 4.4 3.2 7 4.2 10.9 0.4 0.3-0.2-1.4 0.2-0.6 0.1 0.6 0.2 2.5 0.6 2.8-0.3-1.9-0.8-4.2-1.2-4.6 0.3 0.2-0.5-2.3-1-2.9-0.2-1.6-1.6-4.4-2.8-6.5-4.3-8.4-12-15.3-20.6-19.1 0-0.2-0.5-0.4-0.7-0.6-8.5-3.6-18.7-4.6-28.5-2.3-9.9 2.4-19.2 8.1-25.8 16.3 0.3-1 2.8-2.9 2.9-3.7-2.9 3.1-6 7.2-8.1 11.6-2.2 4.4-3.4 8.9-3.9 12.2" fill="black" fill-rule="nonzero" stroke="none" stroke-width="1" stroke-linecap="butt" stroke-linejoin="miter" stroke-miterlimit="10" stroke-dasharray="" stroke-dashoffset="0" font-family="none" font-weight="none" font-size="none" text-anchor="none" style="mix-blend-mode: normal"></path></g><g transform="matrix(1,0,0,1,48,160.20806248442258)"><svg viewBox="0 0 224 39.58387503115482" height="39.58387503115482" width="224"><g><svg viewBox="0 0 362.8955633781492 64.12862781304098" height="39.58387503115482" width="224"><g transform="matrix(1,0,0,1,0,8.86292902481247)"><svg viewBox="0 0 224.00000000000003 46.40276976341604" height="46.40276976341604" width="224.00000000000003"><g id="SvgjsG1754"><svg viewBox="0 0 224.00000000000003 46.40276976341604" height="46.40276976341604" width="224.00000000000003" id="SvgjsSvg1753"><g><svg viewBox="0 0 224.00000000000003 46.40276976341604" height="46.40276976341604" width="224.00000000000003"><g transform="matrix(1,0,0,1,0,0)"><svg width="224.00000000000003" viewBox="0.2 -35.1 173.29000000000002 35.9" height="46.40276976341604" data-palette-color="url(#3d730def-0a2c-47d2-b0e4-09385b0f2584)"><path d="M12.25 0L0.2 0 0.4-1.05 0.95-1.2Q3-1.8 3.45-3.95L3.45-3.95 6-17.55Q6.55-20.25 7.05-23.08 7.55-25.9 8.1-29.1L8.1-29.1Q8.4-31.25 6.4-31.85L6.4-31.85 5.9-32 6.15-33.05 16.9-33.05Q23.25-33.05 26.15-30.58 29.05-28.1 29.05-24.1L29.05-24.1Q29.05-21.1 27.38-18.55 25.7-16 22.35-14.45 19-12.9 13.95-12.9L13.95-12.9 11.6-12.9Q11.25-10.9 10.85-8.65 10.45-6.4 10.05-4.05L10.05-4.05Q9.6-1.85 11.8-1.2L11.8-1.2 12.45-1.05 12.25 0ZM11.9-14.4L11.9-14.4 13.85-14.4Q17.8-14.4 20.13-17.03 22.45-19.65 22.45-24.2L22.45-24.2Q22.45-27.8 20.9-29.7 19.35-31.6 16.45-31.6L16.45-31.6 15.1-31.6Q14.3-27.3 13.5-23 12.7-18.7 11.9-14.4ZM35.25 0L29.5 0.35 29.1-0.05 33.7-22.05Q34.05-23.8 34.32-25.28 34.6-26.75 34.95-28.55L34.95-28.55Q35.35-30.7 33.2-31.3L33.2-31.3 32.5-31.55 32.65-32.4 41.8-35.1 42.25-34.7 38.9-18.9Q41.4-21.45 44.2-23.1 47-24.75 49.35-24.75L49.35-24.75Q50.95-24.75 51.95-23.78 52.95-22.8 52.95-20.8L52.95-20.8Q52.95-19.7 52.75-18.57 52.55-17.45 52.25-16.25L52.25-16.25 49.8-6.35Q49.6-5.4 49.42-4.73 49.25-4.05 49.25-3.65L49.25-3.65Q49.25-2.6 50.1-2.6L50.1-2.6Q51.35-2.6 53.5-4.65L53.5-4.65 54.15-4Q52.95-2.25 50.95-0.78 48.95 0.7 46.45 0.7L46.45 0.7Q44.85 0.7 43.97-0.05 43.1-0.8 43.1-2.1L43.1-2.1Q43.1-3.15 43.35-4.23 43.6-5.3 43.9-6.55L43.9-6.55 46.1-15.2Q46.45-16.5 46.7-17.6 46.95-18.7 46.95-19.5L46.95-19.5Q46.95-21.3 45.35-21.3L45.35-21.3Q42.8-21.3 38.7-17.35L38.7-17.35 37.25-10.65Q36.6-7.65 36.12-5.15 35.65-2.65 35.25 0L35.25 0ZM65.55 0.7L65.55 0.7Q61.85 0.7 59.52-1.7 57.2-4.1 57.2-8.65L57.2-8.65Q57.2-11.8 58.3-14.7 59.4-17.6 61.32-19.88 63.25-22.15 65.84-23.45 68.45-24.75 71.45-24.75L71.45-24.75Q74.55-24.75 76.17-23.35 77.8-21.95 77.8-19.6L77.8-19.6Q77.8-16.75 74.02-13.98 70.25-11.2 63.1-9.65L63.1-9.65Q63.25-6.4 64.65-4.9 66.05-3.4 68.5-3.4L68.5-3.4Q70.7-3.4 72.45-4.55 74.2-5.7 75.4-7.25L75.4-7.25 76.15-6.7Q75.15-4.8 73.57-3.1 72-1.4 70-0.35 68 0.7 65.55 0.7ZM70.95-23.05L70.95-23.05Q69.8-23.05 68.5-22.08 67.2-21.1 66.02-19.43 64.84-17.75 64.05-15.58 63.25-13.4 63.1-10.95L63.1-10.95Q68.7-12.6 70.97-15.05 73.25-17.5 73.25-20.25L73.25-20.25Q73.25-21.7 72.59-22.38 71.95-23.05 70.95-23.05ZM85.09 0L79.44 0.4 78.94-0.05 82.74-18.2Q83.19-20.2 81.24-21L81.24-21 80.49-21.3 80.59-22.15 89.44-24.8 89.99-24.3 88.89-18.65Q91.49-21.4 94.19-23.08 96.89-24.75 99.24-24.75L99.24-24.75Q100.84-24.75 101.87-23.78 102.89-22.8 102.89-20.8L102.89-20.8Q102.89-19.7 102.69-18.57 102.49-17.45 102.19-16.25L102.19-16.25 99.64-6Q99.44-5.2 99.32-4.63 99.19-4.05 99.19-3.65L99.19-3.65Q99.19-2.6 100.04-2.6L100.04-2.6Q101.34-2.6 103.34-4.7L103.34-4.7 104.04-4Q102.79-2.15 100.79-0.73 98.79 0.7 96.34 0.7L96.34 0.7Q94.79 0.7 93.89-0.05 92.99-0.8 92.99-2.1L92.99-2.1Q92.99-3.15 93.24-4.23 93.49-5.3 93.84-6.55L93.84-6.55 95.79-14.45Q96.19-15.95 96.44-17.15 96.69-18.35 96.69-19.3L96.69-19.3Q96.69-20.3 96.27-20.68 95.84-21.05 95.14-21.05L95.14-21.05Q93.94-21.05 92.27-20.03 90.59-19 88.49-16.8L88.49-16.8 87.14-10.65Q86.59-8 86.09-5.35 85.59-2.7 85.09 0L85.09 0ZM115.09-27.7L115.09-27.7Q113.69-27.7 112.69-28.6 111.69-29.5 111.69-31.05L111.69-31.05Q111.69-32.7 112.89-33.8 114.09-34.9 115.59-34.9L115.59-34.9Q117.04-34.9 117.99-33.98 118.94-33.05 118.94-31.6L118.94-31.6Q118.94-30 117.77-28.85 116.59-27.7 115.09-27.7ZM110.49 0.7L110.49 0.7Q108.99 0.7 108.02-0.08 107.04-0.85 107.04-2.35L107.04-2.35Q107.04-3.2 107.24-4.4 107.44-5.6 107.69-6.85L107.69-6.85 110.04-18.15Q110.49-20.25 108.49-21L108.49-21 107.79-21.3 107.89-22.2 116.89-24.8 117.39-24.3 113.59-6.45Q113.39-5.6 113.29-4.98 113.19-4.35 113.19-3.8L113.19-3.8Q113.19-2.7 114.19-2.7L114.19-2.7Q115.39-2.7 117.34-4.6L117.34-4.6 117.99-3.95Q116.74-2.1 114.87-0.7 112.99 0.7 110.49 0.7ZM130.09 0.7L130.09 0.7Q127.54 0.7 125.44-0.3 123.34-1.3 122.09-3.38 120.84-5.45 120.84-8.6L120.84-8.6Q120.84-11.8 121.91-14.7 122.99-17.6 124.91-19.88 126.84-22.15 129.41-23.45 131.99-24.75 134.94-24.75L134.94-24.75Q138.89-24.75 141.49-22.48 144.09-20.2 144.09-15.45L144.09-15.45Q144.09-12.3 143.01-9.4 141.94-6.5 140.04-4.23 138.14-1.95 135.59-0.63 133.04 0.7 130.09 0.7ZM130.69-0.7L130.69-0.7Q132.29-0.7 133.59-2.08 134.89-3.45 135.84-5.7 136.79-7.95 137.31-10.73 137.84-13.5 137.84-16.25L137.84-16.25Q137.84-20.2 136.91-21.75 135.99-23.3 134.54-23.3L134.54-23.3Q132.94-23.3 131.56-21.98 130.19-20.65 129.19-18.4 128.19-16.15 127.64-13.43 127.09-10.7 127.09-7.9L127.09-7.9Q127.09-3.85 128.11-2.27 129.14-0.7 130.69-0.7ZM147.84 0.7L147.84 0.7Q146.39 0.7 145.26-0.15 144.14-1 144.14-2.55L144.14-2.55Q144.14-3.8 144.96-4.58 145.79-5.35 146.99-5.35L146.99-5.35Q148.49-5.35 149.64-3.9L149.64-3.9Q150.94-2.15 152.29-3.9L152.29-3.9Q153.34-5.25 154.44-6.8 155.54-8.35 156.69-10L156.69-10 154.19-17.7Q153.69-19.45 153.16-20.13 152.64-20.8 151.79-20.8L151.79-20.8Q151.29-20.8 150.56-20.5 149.84-20.2 149.04-19.2L149.04-19.2 148.29-20Q151.54-24.75 154.84-24.75L154.84-24.75Q156.74-24.75 157.66-23.65 158.59-22.55 159.34-20.2L159.34-20.2 160.89-15.45Q162.29-17.7 163.44-19.35 164.59-21 165.14-21.7L165.14-21.7Q166.59-23.5 167.84-24.13 169.09-24.75 170.34-24.75L170.34-24.75Q171.59-24.75 172.54-24 173.49-23.25 173.49-21.8L173.49-21.8Q173.49-20.5 172.69-19.73 171.89-18.95 170.84-18.95L170.84-18.95Q169.19-18.95 168.19-20.25L168.19-20.25Q167.64-20.95 167.16-21.03 166.69-21.1 165.99-20.25L165.99-20.25Q165.19-19.3 163.96-17.6 162.74-15.9 161.39-13.95L161.39-13.95 163.99-6Q164.54-4.2 165.06-3.6 165.59-3 166.39-3L166.39-3Q167.69-3 169.44-4.85L169.44-4.85 170.19-4.1Q168.84-2 167.11-0.6 165.39 0.8 163.44 0.8L163.44 0.8Q161.89 0.8 160.79-0.03 159.69-0.85 158.94-3.1L158.94-3.1 157.19-8.55Q155.84-6.45 154.71-4.8 153.59-3.15 152.64-1.95L152.64-1.95Q151.59-0.55 150.46 0.08 149.34 0.7 147.84 0.7Z" opacity="1" transform="matrix(1,0,0,1,0,0)" fill="black" class="wordmark-text-0" id="SvgjsPath1752"></path></svg></g></svg></g></svg></g></svg></g><g transform="matrix(1,0,0,1,234.95458027466825,0)"><svg viewBox="0 0 127.94098310348092 64.12862781304098" height="64.12862781304098" width="127.94098310348092"><g><svg xmlns="http://www.w3.org/2000/svg" xmlns:xlink="http://www.w3.org/1999/xlink" xml:space="preserve" style="shape-rendering:geometricPrecision;text-rendering:geometricPrecision;image-rendering:optimizeQuality;" viewBox="0.0000020000000000575113 0.0000027841116459863258 14.727499 7.381952827609914" x="0" y="0" fill-rule="evenodd" clip-rule="evenodd" width="127.94098310348092" height="64.12862781304098" class="icon-icon-0" data-fill-palette-color="accent" id="SvgjsSvg1751"><g fill="black"><path class="" d="M1.757 3.091c-0.313 0.444-0.296 1.331-0.417 1.95-0.153 0.784-0.711 1.203-1.34 1.534 0.188-0.771 0.348-1.542 0.412-2.313 0.078-0.953-0.06-0.891 0.767-1.575 1.159-0.961 3.04-1.741 5.848-2.29 2.456-0.406 5.049-0.453 7.701-0.351-0.89 1.809-3.733 1.961-7.203 1.581-1.811 0.02-3.495-0.488-5.768 1.464z m8.33 2.781c-3.895 2.038-7.803-2.284-9.165 0.688 2.104-1.831 5.079 3.183 9.165-0.688z m2.489-2.547c-4.49 2.72-9.502-0.792-10.907 1.859 3.412-1.235 7.765 2.753 10.907-1.859z m0.834-1.478c-3.944 1.761-10.043-1.402-11.565 2.239 3.106-1.808 8.446 1.438 11.565-2.239z" fill="black"></path></g></svg></g></svg></g></svg></g></svg></g></svg></g><defs><mask></mask></defs></svg><rect width="320" height="360" fill="black" stroke="none" visibility="hidden"></rect></g></mask></svg><rect width="320" height="360" fill="black" stroke="none" visibility="hidden"></rect></g></mask><linearGradient x1="0.054" x2="0.941" y1="0.5" y2="0.5" id="2e27aba6-ed97-4b3c-ad68-2263cee6dbd9"><stop stop-color="#9c7945" offset="0"></stop><stop stop-color="#faf3aa" offset="0.498"></stop><stop stop-color="#9c7945" offset="1"></stop></linearGradient><rect width="320.00001" height="360" fill="url(#2e27aba6-ed97-4b3c-ad68-2263cee6dbd9)" mask="url(#4db9f2d3-2aa0-490a-a9ba-1d287461a3c6)" data-fill-palette-color="accent"></rect><mask id="57ad4bbc-ad16-45f0-8e4d-7764e9b55c9c"><g id="SvgjsG1777"><svg viewBox="0 0 320 360" height="360" width="320"><g><svg></svg></g><g><svg viewBox="0 0 320 360" height="360" width="320"><g><path transform="translate(-19.44751,3.1739) scale(3.53591,3.53591)" d="M67.6 10.7c0.2 0 1.8 0.8 2.7 1.1-0.3 0.1-1-0.2-1.8-0.5 0.2 0 0.6 0.1 1 0.3-0.2-0.2-1.7-0.7-1.9-0.9M52.7 7.6c0.3-0.1 3.8 0.4 5.4 0.5 0.1-0.1-0.2-0.1-0.6-0.2 0.5-0.1 1.5 0.2 2.2 0.3-2.1 0.1-4.4-0.5-6.4-0.3-0.7 0-0.2-0.2-0.6-0.3M49.8 7.6c1.8 0 3.2 0 0.6 0.2-0.3-0.1-0.7-0.1-0.6-0.2M78.1 15.9c0.2 0 1 0.9 1.4 1.2-0.1 0.1-0.9-0.7-1.3-1 0.1 0.1 0 0-0.1-0.2M76.1 14.6c-0.8-0.7-1.1-0.7-1.2-1.1 0.7 0.4 1.2 0.8 1.2 1.1M63.2 8.3c0.1-0.1 0.3 0.1 0.8 0.2-0.6-0.1-0.5 0-0.3 0.2-0.7-0.1-0.9-0.2-0.7-0.4 0.4 0.2 0.5 0.1 0.2 0M34.8 9.5c0-0.1 0.4-0.3 0.7-0.4-0.3 0.2-0.2 0.3 0.3 0.1 0 0.1-0.6 0.3-1 0.5 0.2-0.1 0.4-0.4 0-0.2M65.2 7.3c-0.3 0.1-1.4-0.5-2.5-0.7-0.6-0.2 2.4 0.5 2.5 0.7M6.2 56.7c0.6 2.5 0.2 2.4 0 0M6.3 41.7c0.1-0.4 0.2-1.5 0.3-1.4-0.3 2.4-0.8 3.5-0.9 5.3 0.3-1.6-0.1 0.9-0.2 1.5 0.1 0.8 0.1-0.5 0.3-0.3 0.2 0.3-0.4 4.5-0.2 2.2-0.2 2.1 0 4.4 0.4 5-0.5 3.2 2 10.4 2.5 11.9 0.1 0.1 0-0.5 0.2-0.1 0.2 1.3 1.1 2.2 1.4 3.6 0.3 0.4 1.5 2.6 1.7 3.1 0.4 0.8 0.6 0.7 1 1.5 1.2 2.3 3.1 4.5 4.9 6.6 5.8 6.8 14.7 12.4 24.6 14.4 9.9 2.1 20.3 0.6 28.4-3.3 0.5-0.3 0.4-0.4 1-0.6 2.8-0.9 6.2-3.8 8.1-4.9 0.9-1 3.3-2.7 3.6-3.7 1.7-1.4 3.4-3.7 4.3-5.2 0.5-0.8 0.9-0.8 1.1-1.3-0.1 0 1.6-2.1 2.1-3.3-0.2 0-0.5 0.6-0.5 0 3.6-6.9 5.6-16.2 4.5-22.6 0.2 7.9-1.8 16.7-5.6 22.3-1.7 3.6-5.2 7.5-8.4 10.3-0.5 0.5-1 1.1-1.6 1.5-1.9 1.6-4 2.9-6.2 4.1-5.2 2.9-11 5.4-17.8 5.5 11.7-1 22.2-6.9 28-14.1-4.4 4.3-6.3 6-11.2 8.5-0.4 0.7-3.7 2.1-5.9 2.7 1.3-0.6 4-1.6 4.9-2.4-7.3 3.5-15.4 5.5-23 4.4 2.9 0 7 0.1 10.9-0.6 0.6-0.2 0.9-0.4 1.6-0.5 7.6-1.7 14.9-5.4 20.1-10.6-3 2.7-7.5 5.9-10.4 6.9 2.7-1.5 7.6-4.4 9.2-6.6-3.2 3.2-9.2 6.4-13 7.8-0.6 0.1 0.4-0.4-0.6 0-1.2 0.3-0.7 0.3-1 0.5-4.6 1.3-9.9 2.4-14.3 2-0.8-0.1-1.1-0.3-1.8-0.3-0.8-0.1-1.5-0.1-2.4-0.1-3.5-0.4-7.3-1.8-10.1-3-1.5-0.7-3-1.2-4.5-2.1-1.2-0.7-2.2-1.5-3.2-2.3-3.8-2.8-7-5.6-10-9.6-5.4-7.5-8.2-16.9-7.8-26.2 0.4-9.3 4.1-18.4 10-25.1-0.3 0.3 0.4-0.7 1-1.3 0 0.2-0.1 0.5 0.6-0.2 0.6-0.7-0.2-0.2 0.1-0.6 6.2-6.8 17-12.3 28.1-12.5 0.4-0.3 1.1-0.7 1.9-0.5 0 0.1-0.5 0.1-0.5 0.1 1.1-0.1 2.1-0.1 2.6 0.1 0.1-0.1-0.4-0.2 0-0.2 0.7 0.2 0.9 0 1.3 0.2-0.3 0-0.6 0-0.8 0.1 2.5 0 4.1 0.6 6.6 0.8-1.3-0.3-1.6-0.3-2.6-0.6 1.1 0.2 1.6 0.4 2.1 0.3-0.2 0-0.1-0.3 0.1-0.2 2 0.5 2.2 0.7 4.3 1.4 0.2-0.2-0.9-0.3-1.2-0.6 2 0.7 3.8 1.2 5 2-0.4-0.3-1.6-0.7-2.5-1.1-0.1 0.1 0.3 0.2 0.4 0.4-1-0.5-2.4-1-3.8-1.2 1.2 0.3 2 0.7 2.5 0.9-1.1-0.2-2.5-0.9-4.1-1.2 2.6 0.8 7.5 2.6 10.5 4.2-1.1-0.7-2.4-1.2-3.1-1.6 0.6 0.1 1.3 0.5 1.3 0.3 0.7 0.3 1.6 1 2.1 1.1-0.9-0.6-2.7-1.5-3.3-1.8 7.5 3.4 14.2 9.1 18.5 16.4 0.4 0.7 1 2.3 1.5 2.5-0.1-0.5-0.5-0.8-0.9-1.6 0.2 0 0.2-0.3 0-0.6-0.4-0.5 0 0.4-0.4-0.1-1.8-3.3-4-6.2-7.4-9.4 1.9 1.8 0.5 0.5 0.1-0.1 2.6 2.3 5.6 6.2 6.9 8.2-0.2-0.3-0.3-0.5-0.2-0.5 2.4 4.1 3.9 7.8 5.4 13.1 0.1 0.1 0-0.4 0.2-0.1 1 4.2 1.3 7.7 1.2 10.9 0.8-5.4-1-13.8-4.2-20.4-0.4-0.8-0.4-0.2-0.8-1.1 0-0.3-0.3-0.9-0.5-1.3-4-6.6-8.9-11.3-14.7-15 0.4 0.2 1.2 0.8 1.2 0.7-10.8-7.1-23.3-8.1-33.6-5.9-0.7 0.3-1 0.6-1.8 1 1.5-0.5 2.4-0.6 3.8-0.9 0.3-0.3-1.3 0.1-0.6-0.2 0.1 0.1 1.4-0.2 1.7-0.1 0 0.1-0.4 0.2-0.5 0.3 3.3-0.7 6.7-0.8 9.6-0.6-1.7 0.1-4.8-0.2-5.8 0.3 1-0.1 2.4-0.2 3.3-0.1-1.2 0-3.4 0.1-4.4 0.2-0.1-0.1 1.6-0.3 0.5-0.3-0.5 0.1-1.3 0.1-1.6 0.4-8.6 0.8-17 5.3-22.9 10.6-1.2 1-2.6 2.1-3.5 3.2-2.2 2.5-3.6 5-5.2 7.2 1-2.1 3.2-5.3 5.8-8 2.6-2.7 5.4-5 6.9-6.2 0 0.4 2.4-1.5 3.3-2.1-0.6 0.5 0.4-0.2 0.6-0.1 3.2-1.9 5.8-2.6 8.7-3.7-0.7 0.2-1.3 0.4-1.4 0.3 0.7-0.2 1.1-0.4 1-0.5-2.8 0.8-7.2 2.7-10.7 4.8 6.3-4.3 14.3-6.9 22.2-7 7.9-0.2 15.6 1.8 21.7 5 4.1 1.8 8 5.1 11.1 8.3 0.9 0.8 0.2-0.2 1.5 1.2-0.4-0.2-0.7-0.4-0.2 0.2 0.8 0.9-0.2-0.7 1.1 0.9-0.1 0-0.5-0.5-0.5-0.3 3.5 3.1 6.2 8.7 7.8 12.4-0.4-1.5-1.4-3.6-2.2-5.1 2.4 4.4 3.2 7 4.2 10.9 0.4 0.3-0.2-1.4 0.2-0.6 0.1 0.6 0.2 2.5 0.6 2.8-0.3-1.9-0.8-4.2-1.2-4.6 0.3 0.2-0.5-2.3-1-2.9-0.2-1.6-1.6-4.4-2.8-6.5-4.3-8.4-12-15.3-20.6-19.1 0-0.2-0.5-0.4-0.7-0.6-8.5-3.6-18.7-4.6-28.5-2.3-9.9 2.4-19.2 8.1-25.8 16.3 0.3-1 2.8-2.9 2.9-3.7-2.9 3.1-6 7.2-8.1 11.6-2.2 4.4-3.4 8.9-3.9 12.2" fill="white" fill-rule="nonzero" stroke="none" stroke-width="1" stroke-linecap="butt" stroke-linejoin="miter" stroke-miterlimit="10" stroke-dasharray="" stroke-dashoffset="0" font-family="none" font-weight="none" font-size="none" text-anchor="none" style="mix-blend-mode: normal"></path></g><g transform="matrix(1,0,0,1,48,160.20806248442258)"><svg viewBox="0 0 224 39.58387503115482" height="39.58387503115482" width="224"><g><svg viewBox="0 0 362.8955633781492 64.12862781304098" height="39.58387503115482" width="224"><g transform="matrix(1,0,0,1,0,8.86292902481247)"><svg viewBox="0 0 224.00000000000003 46.40276976341604" height="46.40276976341604" width="224.00000000000003"><g id="SvgjsG1776"><svg viewBox="0 0 224.00000000000003 46.40276976341604" height="46.40276976341604" width="224.00000000000003" id="SvgjsSvg1775"><g><svg viewBox="0 0 224.00000000000003 46.40276976341604" height="46.40276976341604" width="224.00000000000003"><g transform="matrix(1,0,0,1,0,0)"><svg width="224.00000000000003" viewBox="0.2 -35.1 173.29000000000002 35.9" height="46.40276976341604" data-palette-color="url(#3d730def-0a2c-47d2-b0e4-09385b0f2584)"></svg></g></svg></g></svg></g></svg></g><g transform="matrix(1,0,0,1,234.95458027466825,0)"><svg viewBox="0 0 127.94098310348092 64.12862781304098" height="64.12862781304098" width="127.94098310348092"><g><svg xmlns="http://www.w3.org/2000/svg" xmlns:xlink="http://www.w3.org/1999/xlink" xml:space="preserve" style="shape-rendering:geometricPrecision;text-rendering:geometricPrecision;image-rendering:optimizeQuality;" viewBox="0.0000020000000000575113 0.0000027841116459863258 14.727499 7.381952827609914" x="0" y="0" fill-rule="evenodd" clip-rule="evenodd" width="127.94098310348092" height="64.12862781304098" class="icon-icon-0" data-fill-palette-color="accent" id="SvgjsSvg1774"></svg></g></svg></g></svg></g></svg></g></svg></g><defs><mask></mask></defs><mask><g id="SvgjsG1773"><svg viewBox="0 0 320 360" height="360" width="320"><g><svg></svg></g><g><svg viewBox="0 0 320 360" height="360" width="320"><g><path transform="translate(-19.44751,3.1739) scale(3.53591,3.53591)" d="M67.6 10.7c0.2 0 1.8 0.8 2.7 1.1-0.3 0.1-1-0.2-1.8-0.5 0.2 0 0.6 0.1 1 0.3-0.2-0.2-1.7-0.7-1.9-0.9M52.7 7.6c0.3-0.1 3.8 0.4 5.4 0.5 0.1-0.1-0.2-0.1-0.6-0.2 0.5-0.1 1.5 0.2 2.2 0.3-2.1 0.1-4.4-0.5-6.4-0.3-0.7 0-0.2-0.2-0.6-0.3M49.8 7.6c1.8 0 3.2 0 0.6 0.2-0.3-0.1-0.7-0.1-0.6-0.2M78.1 15.9c0.2 0 1 0.9 1.4 1.2-0.1 0.1-0.9-0.7-1.3-1 0.1 0.1 0 0-0.1-0.2M76.1 14.6c-0.8-0.7-1.1-0.7-1.2-1.1 0.7 0.4 1.2 0.8 1.2 1.1M63.2 8.3c0.1-0.1 0.3 0.1 0.8 0.2-0.6-0.1-0.5 0-0.3 0.2-0.7-0.1-0.9-0.2-0.7-0.4 0.4 0.2 0.5 0.1 0.2 0M34.8 9.5c0-0.1 0.4-0.3 0.7-0.4-0.3 0.2-0.2 0.3 0.3 0.1 0 0.1-0.6 0.3-1 0.5 0.2-0.1 0.4-0.4 0-0.2M65.2 7.3c-0.3 0.1-1.4-0.5-2.5-0.7-0.6-0.2 2.4 0.5 2.5 0.7M6.2 56.7c0.6 2.5 0.2 2.4 0 0M6.3 41.7c0.1-0.4 0.2-1.5 0.3-1.4-0.3 2.4-0.8 3.5-0.9 5.3 0.3-1.6-0.1 0.9-0.2 1.5 0.1 0.8 0.1-0.5 0.3-0.3 0.2 0.3-0.4 4.5-0.2 2.2-0.2 2.1 0 4.4 0.4 5-0.5 3.2 2 10.4 2.5 11.9 0.1 0.1 0-0.5 0.2-0.1 0.2 1.3 1.1 2.2 1.4 3.6 0.3 0.4 1.5 2.6 1.7 3.1 0.4 0.8 0.6 0.7 1 1.5 1.2 2.3 3.1 4.5 4.9 6.6 5.8 6.8 14.7 12.4 24.6 14.4 9.9 2.1 20.3 0.6 28.4-3.3 0.5-0.3 0.4-0.4 1-0.6 2.8-0.9 6.2-3.8 8.1-4.9 0.9-1 3.3-2.7 3.6-3.7 1.7-1.4 3.4-3.7 4.3-5.2 0.5-0.8 0.9-0.8 1.1-1.3-0.1 0 1.6-2.1 2.1-3.3-0.2 0-0.5 0.6-0.5 0 3.6-6.9 5.6-16.2 4.5-22.6 0.2 7.9-1.8 16.7-5.6 22.3-1.7 3.6-5.2 7.5-8.4 10.3-0.5 0.5-1 1.1-1.6 1.5-1.9 1.6-4 2.9-6.2 4.1-5.2 2.9-11 5.4-17.8 5.5 11.7-1 22.2-6.9 28-14.1-4.4 4.3-6.3 6-11.2 8.5-0.4 0.7-3.7 2.1-5.9 2.7 1.3-0.6 4-1.6 4.9-2.4-7.3 3.5-15.4 5.5-23 4.4 2.9 0 7 0.1 10.9-0.6 0.6-0.2 0.9-0.4 1.6-0.5 7.6-1.7 14.9-5.4 20.1-10.6-3 2.7-7.5 5.9-10.4 6.9 2.7-1.5 7.6-4.4 9.2-6.6-3.2 3.2-9.2 6.4-13 7.8-0.6 0.1 0.4-0.4-0.6 0-1.2 0.3-0.7 0.3-1 0.5-4.6 1.3-9.9 2.4-14.3 2-0.8-0.1-1.1-0.3-1.8-0.3-0.8-0.1-1.5-0.1-2.4-0.1-3.5-0.4-7.3-1.8-10.1-3-1.5-0.7-3-1.2-4.5-2.1-1.2-0.7-2.2-1.5-3.2-2.3-3.8-2.8-7-5.6-10-9.6-5.4-7.5-8.2-16.9-7.8-26.2 0.4-9.3 4.1-18.4 10-25.1-0.3 0.3 0.4-0.7 1-1.3 0 0.2-0.1 0.5 0.6-0.2 0.6-0.7-0.2-0.2 0.1-0.6 6.2-6.8 17-12.3 28.1-12.5 0.4-0.3 1.1-0.7 1.9-0.5 0 0.1-0.5 0.1-0.5 0.1 1.1-0.1 2.1-0.1 2.6 0.1 0.1-0.1-0.4-0.2 0-0.2 0.7 0.2 0.9 0 1.3 0.2-0.3 0-0.6 0-0.8 0.1 2.5 0 4.1 0.6 6.6 0.8-1.3-0.3-1.6-0.3-2.6-0.6 1.1 0.2 1.6 0.4 2.1 0.3-0.2 0-0.1-0.3 0.1-0.2 2 0.5 2.2 0.7 4.3 1.4 0.2-0.2-0.9-0.3-1.2-0.6 2 0.7 3.8 1.2 5 2-0.4-0.3-1.6-0.7-2.5-1.1-0.1 0.1 0.3 0.2 0.4 0.4-1-0.5-2.4-1-3.8-1.2 1.2 0.3 2 0.7 2.5 0.9-1.1-0.2-2.5-0.9-4.1-1.2 2.6 0.8 7.5 2.6 10.5 4.2-1.1-0.7-2.4-1.2-3.1-1.6 0.6 0.1 1.3 0.5 1.3 0.3 0.7 0.3 1.6 1 2.1 1.1-0.9-0.6-2.7-1.5-3.3-1.8 7.5 3.4 14.2 9.1 18.5 16.4 0.4 0.7 1 2.3 1.5 2.5-0.1-0.5-0.5-0.8-0.9-1.6 0.2 0 0.2-0.3 0-0.6-0.4-0.5 0 0.4-0.4-0.1-1.8-3.3-4-6.2-7.4-9.4 1.9 1.8 0.5 0.5 0.1-0.1 2.6 2.3 5.6 6.2 6.9 8.2-0.2-0.3-0.3-0.5-0.2-0.5 2.4 4.1 3.9 7.8 5.4 13.1 0.1 0.1 0-0.4 0.2-0.1 1 4.2 1.3 7.7 1.2 10.9 0.8-5.4-1-13.8-4.2-20.4-0.4-0.8-0.4-0.2-0.8-1.1 0-0.3-0.3-0.9-0.5-1.3-4-6.6-8.9-11.3-14.7-15 0.4 0.2 1.2 0.8 1.2 0.7-10.8-7.1-23.3-8.1-33.6-5.9-0.7 0.3-1 0.6-1.8 1 1.5-0.5 2.4-0.6 3.8-0.9 0.3-0.3-1.3 0.1-0.6-0.2 0.1 0.1 1.4-0.2 1.7-0.1 0 0.1-0.4 0.2-0.5 0.3 3.3-0.7 6.7-0.8 9.6-0.6-1.7 0.1-4.8-0.2-5.8 0.3 1-0.1 2.4-0.2 3.3-0.1-1.2 0-3.4 0.1-4.4 0.2-0.1-0.1 1.6-0.3 0.5-0.3-0.5 0.1-1.3 0.1-1.6 0.4-8.6 0.8-17 5.3-22.9 10.6-1.2 1-2.6 2.1-3.5 3.2-2.2 2.5-3.6 5-5.2 7.2 1-2.1 3.2-5.3 5.8-8 2.6-2.7 5.4-5 6.9-6.2 0 0.4 2.4-1.5 3.3-2.1-0.6 0.5 0.4-0.2 0.6-0.1 3.2-1.9 5.8-2.6 8.7-3.7-0.7 0.2-1.3 0.4-1.4 0.3 0.7-0.2 1.1-0.4 1-0.5-2.8 0.8-7.2 2.7-10.7 4.8 6.3-4.3 14.3-6.9 22.2-7 7.9-0.2 15.6 1.8 21.7 5 4.1 1.8 8 5.1 11.1 8.3 0.9 0.8 0.2-0.2 1.5 1.2-0.4-0.2-0.7-0.4-0.2 0.2 0.8 0.9-0.2-0.7 1.1 0.9-0.1 0-0.5-0.5-0.5-0.3 3.5 3.1 6.2 8.7 7.8 12.4-0.4-1.5-1.4-3.6-2.2-5.1 2.4 4.4 3.2 7 4.2 10.9 0.4 0.3-0.2-1.4 0.2-0.6 0.1 0.6 0.2 2.5 0.6 2.8-0.3-1.9-0.8-4.2-1.2-4.6 0.3 0.2-0.5-2.3-1-2.9-0.2-1.6-1.6-4.4-2.8-6.5-4.3-8.4-12-15.3-20.6-19.1 0-0.2-0.5-0.4-0.7-0.6-8.5-3.6-18.7-4.6-28.5-2.3-9.9 2.4-19.2 8.1-25.8 16.3 0.3-1 2.8-2.9 2.9-3.7-2.9 3.1-6 7.2-8.1 11.6-2.2 4.4-3.4 8.9-3.9 12.2" fill="black" fill-rule="nonzero" stroke="none" stroke-width="1" stroke-linecap="butt" stroke-linejoin="miter" stroke-miterlimit="10" stroke-dasharray="" stroke-dashoffset="0" font-family="none" font-weight="none" font-size="none" text-anchor="none" style="mix-blend-mode: normal"></path></g><g transform="matrix(1,0,0,1,48,160.20806248442258)"><svg viewBox="0 0 224 39.58387503115482" height="39.58387503115482" width="224"><g><svg viewBox="0 0 362.8955633781492 64.12862781304098" height="39.58387503115482" width="224"><g transform="matrix(1,0,0,1,0,8.86292902481247)"><svg viewBox="0 0 224.00000000000003 46.40276976341604" height="46.40276976341604" width="224.00000000000003"><g id="SvgjsG1772"><svg viewBox="0 0 224.00000000000003 46.40276976341604" height="46.40276976341604" width="224.00000000000003" id="SvgjsSvg1771"><g><svg viewBox="0 0 224.00000000000003 46.40276976341604" height="46.40276976341604" width="224.00000000000003"><g transform="matrix(1,0,0,1,0,0)"><svg width="224.00000000000003" viewBox="0.2 -35.1 173.29000000000002 35.9" height="46.40276976341604" data-palette-color="url(#3d730def-0a2c-47d2-b0e4-09385b0f2584)"><path d="M12.25 0L0.2 0 0.4-1.05 0.95-1.2Q3-1.8 3.45-3.95L3.45-3.95 6-17.55Q6.55-20.25 7.05-23.08 7.55-25.9 8.1-29.1L8.1-29.1Q8.4-31.25 6.4-31.85L6.4-31.85 5.9-32 6.15-33.05 16.9-33.05Q23.25-33.05 26.15-30.58 29.05-28.1 29.05-24.1L29.05-24.1Q29.05-21.1 27.38-18.55 25.7-16 22.35-14.45 19-12.9 13.95-12.9L13.95-12.9 11.6-12.9Q11.25-10.9 10.85-8.65 10.45-6.4 10.05-4.05L10.05-4.05Q9.6-1.85 11.8-1.2L11.8-1.2 12.45-1.05 12.25 0ZM11.9-14.4L11.9-14.4 13.85-14.4Q17.8-14.4 20.13-17.03 22.45-19.65 22.45-24.2L22.45-24.2Q22.45-27.8 20.9-29.7 19.35-31.6 16.45-31.6L16.45-31.6 15.1-31.6Q14.3-27.3 13.5-23 12.7-18.7 11.9-14.4ZM35.25 0L29.5 0.35 29.1-0.05 33.7-22.05Q34.05-23.8 34.32-25.28 34.6-26.75 34.95-28.55L34.95-28.55Q35.35-30.7 33.2-31.3L33.2-31.3 32.5-31.55 32.65-32.4 41.8-35.1 42.25-34.7 38.9-18.9Q41.4-21.45 44.2-23.1 47-24.75 49.35-24.75L49.35-24.75Q50.95-24.75 51.95-23.78 52.95-22.8 52.95-20.8L52.95-20.8Q52.95-19.7 52.75-18.57 52.55-17.45 52.25-16.25L52.25-16.25 49.8-6.35Q49.6-5.4 49.42-4.73 49.25-4.05 49.25-3.65L49.25-3.65Q49.25-2.6 50.1-2.6L50.1-2.6Q51.35-2.6 53.5-4.65L53.5-4.65 54.15-4Q52.95-2.25 50.95-0.78 48.95 0.7 46.45 0.7L46.45 0.7Q44.85 0.7 43.97-0.05 43.1-0.8 43.1-2.1L43.1-2.1Q43.1-3.15 43.35-4.23 43.6-5.3 43.9-6.55L43.9-6.55 46.1-15.2Q46.45-16.5 46.7-17.6 46.95-18.7 46.95-19.5L46.95-19.5Q46.95-21.3 45.35-21.3L45.35-21.3Q42.8-21.3 38.7-17.35L38.7-17.35 37.25-10.65Q36.6-7.65 36.12-5.15 35.65-2.65 35.25 0L35.25 0ZM65.55 0.7L65.55 0.7Q61.85 0.7 59.52-1.7 57.2-4.1 57.2-8.65L57.2-8.65Q57.2-11.8 58.3-14.7 59.4-17.6 61.32-19.88 63.25-22.15 65.84-23.45 68.45-24.75 71.45-24.75L71.45-24.75Q74.55-24.75 76.17-23.35 77.8-21.95 77.8-19.6L77.8-19.6Q77.8-16.75 74.02-13.98 70.25-11.2 63.1-9.65L63.1-9.65Q63.25-6.4 64.65-4.9 66.05-3.4 68.5-3.4L68.5-3.4Q70.7-3.4 72.45-4.55 74.2-5.7 75.4-7.25L75.4-7.25 76.15-6.7Q75.15-4.8 73.57-3.1 72-1.4 70-0.35 68 0.7 65.55 0.7ZM70.95-23.05L70.95-23.05Q69.8-23.05 68.5-22.08 67.2-21.1 66.02-19.43 64.84-17.75 64.05-15.58 63.25-13.4 63.1-10.95L63.1-10.95Q68.7-12.6 70.97-15.05 73.25-17.5 73.25-20.25L73.25-20.25Q73.25-21.7 72.59-22.38 71.95-23.05 70.95-23.05ZM85.09 0L79.44 0.4 78.94-0.05 82.74-18.2Q83.19-20.2 81.24-21L81.24-21 80.49-21.3 80.59-22.15 89.44-24.8 89.99-24.3 88.89-18.65Q91.49-21.4 94.19-23.08 96.89-24.75 99.24-24.75L99.24-24.75Q100.84-24.75 101.87-23.78 102.89-22.8 102.89-20.8L102.89-20.8Q102.89-19.7 102.69-18.57 102.49-17.45 102.19-16.25L102.19-16.25 99.64-6Q99.44-5.2 99.32-4.63 99.19-4.05 99.19-3.65L99.19-3.65Q99.19-2.6 100.04-2.6L100.04-2.6Q101.34-2.6 103.34-4.7L103.34-4.7 104.04-4Q102.79-2.15 100.79-0.73 98.79 0.7 96.34 0.7L96.34 0.7Q94.79 0.7 93.89-0.05 92.99-0.8 92.99-2.1L92.99-2.1Q92.99-3.15 93.24-4.23 93.49-5.3 93.84-6.55L93.84-6.55 95.79-14.45Q96.19-15.95 96.44-17.15 96.69-18.35 96.69-19.3L96.69-19.3Q96.69-20.3 96.27-20.68 95.84-21.05 95.14-21.05L95.14-21.05Q93.94-21.05 92.27-20.03 90.59-19 88.49-16.8L88.49-16.8 87.14-10.65Q86.59-8 86.09-5.35 85.59-2.7 85.09 0L85.09 0ZM115.09-27.7L115.09-27.7Q113.69-27.7 112.69-28.6 111.69-29.5 111.69-31.05L111.69-31.05Q111.69-32.7 112.89-33.8 114.09-34.9 115.59-34.9L115.59-34.9Q117.04-34.9 117.99-33.98 118.94-33.05 118.94-31.6L118.94-31.6Q118.94-30 117.77-28.85 116.59-27.7 115.09-27.7ZM110.49 0.7L110.49 0.7Q108.99 0.7 108.02-0.08 107.04-0.85 107.04-2.35L107.04-2.35Q107.04-3.2 107.24-4.4 107.44-5.6 107.69-6.85L107.69-6.85 110.04-18.15Q110.49-20.25 108.49-21L108.49-21 107.79-21.3 107.89-22.2 116.89-24.8 117.39-24.3 113.59-6.45Q113.39-5.6 113.29-4.98 113.19-4.35 113.19-3.8L113.19-3.8Q113.19-2.7 114.19-2.7L114.19-2.7Q115.39-2.7 117.34-4.6L117.34-4.6 117.99-3.95Q116.74-2.1 114.87-0.7 112.99 0.7 110.49 0.7ZM130.09 0.7L130.09 0.7Q127.54 0.7 125.44-0.3 123.34-1.3 122.09-3.38 120.84-5.45 120.84-8.6L120.84-8.6Q120.84-11.8 121.91-14.7 122.99-17.6 124.91-19.88 126.84-22.15 129.41-23.45 131.99-24.75 134.94-24.75L134.94-24.75Q138.89-24.75 141.49-22.48 144.09-20.2 144.09-15.45L144.09-15.45Q144.09-12.3 143.01-9.4 141.94-6.5 140.04-4.23 138.14-1.95 135.59-0.63 133.04 0.7 130.09 0.7ZM130.69-0.7L130.69-0.7Q132.29-0.7 133.59-2.08 134.89-3.45 135.84-5.7 136.79-7.95 137.31-10.73 137.84-13.5 137.84-16.25L137.84-16.25Q137.84-20.2 136.91-21.75 135.99-23.3 134.54-23.3L134.54-23.3Q132.94-23.3 131.56-21.98 130.19-20.65 129.19-18.4 128.19-16.15 127.64-13.43 127.09-10.7 127.09-7.9L127.09-7.9Q127.09-3.85 128.11-2.27 129.14-0.7 130.69-0.7ZM147.84 0.7L147.84 0.7Q146.39 0.7 145.26-0.15 144.14-1 144.14-2.55L144.14-2.55Q144.14-3.8 144.96-4.58 145.79-5.35 146.99-5.35L146.99-5.35Q148.49-5.35 149.64-3.9L149.64-3.9Q150.94-2.15 152.29-3.9L152.29-3.9Q153.34-5.25 154.44-6.8 155.54-8.35 156.69-10L156.69-10 154.19-17.7Q153.69-19.45 153.16-20.13 152.64-20.8 151.79-20.8L151.79-20.8Q151.29-20.8 150.56-20.5 149.84-20.2 149.04-19.2L149.04-19.2 148.29-20Q151.54-24.75 154.84-24.75L154.84-24.75Q156.74-24.75 157.66-23.65 158.59-22.55 159.34-20.2L159.34-20.2 160.89-15.45Q162.29-17.7 163.44-19.35 164.59-21 165.14-21.7L165.14-21.7Q166.59-23.5 167.84-24.13 169.09-24.75 170.34-24.75L170.34-24.75Q171.59-24.75 172.54-24 173.49-23.25 173.49-21.8L173.49-21.8Q173.49-20.5 172.69-19.73 171.89-18.95 170.84-18.95L170.84-18.95Q169.19-18.95 168.19-20.25L168.19-20.25Q167.64-20.95 167.16-21.03 166.69-21.1 165.99-20.25L165.99-20.25Q165.19-19.3 163.96-17.6 162.74-15.9 161.39-13.95L161.39-13.95 163.99-6Q164.54-4.2 165.06-3.6 165.59-3 166.39-3L166.39-3Q167.69-3 169.44-4.85L169.44-4.85 170.19-4.1Q168.84-2 167.11-0.6 165.39 0.8 163.44 0.8L163.44 0.8Q161.89 0.8 160.79-0.03 159.69-0.85 158.94-3.1L158.94-3.1 157.19-8.55Q155.84-6.45 154.71-4.8 153.59-3.15 152.64-1.95L152.64-1.95Q151.59-0.55 150.46 0.08 149.34 0.7 147.84 0.7Z" opacity="1" transform="matrix(1,0,0,1,0,0)" fill="black" class="wordmark-text-0" id="SvgjsPath1770"></path></svg></g></svg></g></svg></g></svg></g><g transform="matrix(1,0,0,1,234.95458027466825,0)"><svg viewBox="0 0 127.94098310348092 64.12862781304098" height="64.12862781304098" width="127.94098310348092"><g><svg xmlns="http://www.w3.org/2000/svg" xmlns:xlink="http://www.w3.org/1999/xlink" xml:space="preserve" style="shape-rendering:geometricPrecision;text-rendering:geometricPrecision;image-rendering:optimizeQuality;" viewBox="0.0000020000000000575113 0.0000027841116459863258 14.727499 7.381952827609914" x="0" y="0" fill-rule="evenodd" clip-rule="evenodd" width="127.94098310348092" height="64.12862781304098" class="icon-icon-0" data-fill-palette-color="accent" id="SvgjsSvg1769"><g fill="black"><path class="" d="M1.757 3.091c-0.313 0.444-0.296 1.331-0.417 1.95-0.153 0.784-0.711 1.203-1.34 1.534 0.188-0.771 0.348-1.542 0.412-2.313 0.078-0.953-0.06-0.891 0.767-1.575 1.159-0.961 3.04-1.741 5.848-2.29 2.456-0.406 5.049-0.453 7.701-0.351-0.89 1.809-3.733 1.961-7.203 1.581-1.811 0.02-3.495-0.488-5.768 1.464z m8.33 2.781c-3.895 2.038-7.803-2.284-9.165 0.688 2.104-1.831 5.079 3.183 9.165-0.688z m2.489-2.547c-4.49 2.72-9.502-0.792-10.907 1.859 3.412-1.235 7.765 2.753 10.907-1.859z m0.834-1.478c-3.944 1.761-10.043-1.402-11.565 2.239 3.106-1.808 8.446 1.438 11.565-2.239z" fill="black"></path></g></svg></g></svg></g></svg></g></svg></g></svg></g><defs><mask></mask></defs></svg><rect width="320" height="360" fill="black" stroke="none" visibility="hidden"></rect></g></mask><mask><g id="SvgjsG1768"><svg viewBox="0 0 320 360" height="360" width="320"><g><svg></svg></g><g><svg viewBox="0 0 320 360" height="360" width="320"><g><path transform="translate(-19.44751,3.1739) scale(3.53591,3.53591)" d="M67.6 10.7c0.2 0 1.8 0.8 2.7 1.1-0.3 0.1-1-0.2-1.8-0.5 0.2 0 0.6 0.1 1 0.3-0.2-0.2-1.7-0.7-1.9-0.9M52.7 7.6c0.3-0.1 3.8 0.4 5.4 0.5 0.1-0.1-0.2-0.1-0.6-0.2 0.5-0.1 1.5 0.2 2.2 0.3-2.1 0.1-4.4-0.5-6.4-0.3-0.7 0-0.2-0.2-0.6-0.3M49.8 7.6c1.8 0 3.2 0 0.6 0.2-0.3-0.1-0.7-0.1-0.6-0.2M78.1 15.9c0.2 0 1 0.9 1.4 1.2-0.1 0.1-0.9-0.7-1.3-1 0.1 0.1 0 0-0.1-0.2M76.1 14.6c-0.8-0.7-1.1-0.7-1.2-1.1 0.7 0.4 1.2 0.8 1.2 1.1M63.2 8.3c0.1-0.1 0.3 0.1 0.8 0.2-0.6-0.1-0.5 0-0.3 0.2-0.7-0.1-0.9-0.2-0.7-0.4 0.4 0.2 0.5 0.1 0.2 0M34.8 9.5c0-0.1 0.4-0.3 0.7-0.4-0.3 0.2-0.2 0.3 0.3 0.1 0 0.1-0.6 0.3-1 0.5 0.2-0.1 0.4-0.4 0-0.2M65.2 7.3c-0.3 0.1-1.4-0.5-2.5-0.7-0.6-0.2 2.4 0.5 2.5 0.7M6.2 56.7c0.6 2.5 0.2 2.4 0 0M6.3 41.7c0.1-0.4 0.2-1.5 0.3-1.4-0.3 2.4-0.8 3.5-0.9 5.3 0.3-1.6-0.1 0.9-0.2 1.5 0.1 0.8 0.1-0.5 0.3-0.3 0.2 0.3-0.4 4.5-0.2 2.2-0.2 2.1 0 4.4 0.4 5-0.5 3.2 2 10.4 2.5 11.9 0.1 0.1 0-0.5 0.2-0.1 0.2 1.3 1.1 2.2 1.4 3.6 0.3 0.4 1.5 2.6 1.7 3.1 0.4 0.8 0.6 0.7 1 1.5 1.2 2.3 3.1 4.5 4.9 6.6 5.8 6.8 14.7 12.4 24.6 14.4 9.9 2.1 20.3 0.6 28.4-3.3 0.5-0.3 0.4-0.4 1-0.6 2.8-0.9 6.2-3.8 8.1-4.9 0.9-1 3.3-2.7 3.6-3.7 1.7-1.4 3.4-3.7 4.3-5.2 0.5-0.8 0.9-0.8 1.1-1.3-0.1 0 1.6-2.1 2.1-3.3-0.2 0-0.5 0.6-0.5 0 3.6-6.9 5.6-16.2 4.5-22.6 0.2 7.9-1.8 16.7-5.6 22.3-1.7 3.6-5.2 7.5-8.4 10.3-0.5 0.5-1 1.1-1.6 1.5-1.9 1.6-4 2.9-6.2 4.1-5.2 2.9-11 5.4-17.8 5.5 11.7-1 22.2-6.9 28-14.1-4.4 4.3-6.3 6-11.2 8.5-0.4 0.7-3.7 2.1-5.9 2.7 1.3-0.6 4-1.6 4.9-2.4-7.3 3.5-15.4 5.5-23 4.4 2.9 0 7 0.1 10.9-0.6 0.6-0.2 0.9-0.4 1.6-0.5 7.6-1.7 14.9-5.4 20.1-10.6-3 2.7-7.5 5.9-10.4 6.9 2.7-1.5 7.6-4.4 9.2-6.6-3.2 3.2-9.2 6.4-13 7.8-0.6 0.1 0.4-0.4-0.6 0-1.2 0.3-0.7 0.3-1 0.5-4.6 1.3-9.9 2.4-14.3 2-0.8-0.1-1.1-0.3-1.8-0.3-0.8-0.1-1.5-0.1-2.4-0.1-3.5-0.4-7.3-1.8-10.1-3-1.5-0.7-3-1.2-4.5-2.1-1.2-0.7-2.2-1.5-3.2-2.3-3.8-2.8-7-5.6-10-9.6-5.4-7.5-8.2-16.9-7.8-26.2 0.4-9.3 4.1-18.4 10-25.1-0.3 0.3 0.4-0.7 1-1.3 0 0.2-0.1 0.5 0.6-0.2 0.6-0.7-0.2-0.2 0.1-0.6 6.2-6.8 17-12.3 28.1-12.5 0.4-0.3 1.1-0.7 1.9-0.5 0 0.1-0.5 0.1-0.5 0.1 1.1-0.1 2.1-0.1 2.6 0.1 0.1-0.1-0.4-0.2 0-0.2 0.7 0.2 0.9 0 1.3 0.2-0.3 0-0.6 0-0.8 0.1 2.5 0 4.1 0.6 6.6 0.8-1.3-0.3-1.6-0.3-2.6-0.6 1.1 0.2 1.6 0.4 2.1 0.3-0.2 0-0.1-0.3 0.1-0.2 2 0.5 2.2 0.7 4.3 1.4 0.2-0.2-0.9-0.3-1.2-0.6 2 0.7 3.8 1.2 5 2-0.4-0.3-1.6-0.7-2.5-1.1-0.1 0.1 0.3 0.2 0.4 0.4-1-0.5-2.4-1-3.8-1.2 1.2 0.3 2 0.7 2.5 0.9-1.1-0.2-2.5-0.9-4.1-1.2 2.6 0.8 7.5 2.6 10.5 4.2-1.1-0.7-2.4-1.2-3.1-1.6 0.6 0.1 1.3 0.5 1.3 0.3 0.7 0.3 1.6 1 2.1 1.1-0.9-0.6-2.7-1.5-3.3-1.8 7.5 3.4 14.2 9.1 18.5 16.4 0.4 0.7 1 2.3 1.5 2.5-0.1-0.5-0.5-0.8-0.9-1.6 0.2 0 0.2-0.3 0-0.6-0.4-0.5 0 0.4-0.4-0.1-1.8-3.3-4-6.2-7.4-9.4 1.9 1.8 0.5 0.5 0.1-0.1 2.6 2.3 5.6 6.2 6.9 8.2-0.2-0.3-0.3-0.5-0.2-0.5 2.4 4.1 3.9 7.8 5.4 13.1 0.1 0.1 0-0.4 0.2-0.1 1 4.2 1.3 7.7 1.2 10.9 0.8-5.4-1-13.8-4.2-20.4-0.4-0.8-0.4-0.2-0.8-1.1 0-0.3-0.3-0.9-0.5-1.3-4-6.6-8.9-11.3-14.7-15 0.4 0.2 1.2 0.8 1.2 0.7-10.8-7.1-23.3-8.1-33.6-5.9-0.7 0.3-1 0.6-1.8 1 1.5-0.5 2.4-0.6 3.8-0.9 0.3-0.3-1.3 0.1-0.6-0.2 0.1 0.1 1.4-0.2 1.7-0.1 0 0.1-0.4 0.2-0.5 0.3 3.3-0.7 6.7-0.8 9.6-0.6-1.7 0.1-4.8-0.2-5.8 0.3 1-0.1 2.4-0.2 3.3-0.1-1.2 0-3.4 0.1-4.4 0.2-0.1-0.1 1.6-0.3 0.5-0.3-0.5 0.1-1.3 0.1-1.6 0.4-8.6 0.8-17 5.3-22.9 10.6-1.2 1-2.6 2.1-3.5 3.2-2.2 2.5-3.6 5-5.2 7.2 1-2.1 3.2-5.3 5.8-8 2.6-2.7 5.4-5 6.9-6.2 0 0.4 2.4-1.5 3.3-2.1-0.6 0.5 0.4-0.2 0.6-0.1 3.2-1.9 5.8-2.6 8.7-3.7-0.7 0.2-1.3 0.4-1.4 0.3 0.7-0.2 1.1-0.4 1-0.5-2.8 0.8-7.2 2.7-10.7 4.8 6.3-4.3 14.3-6.9 22.2-7 7.9-0.2 15.6 1.8 21.7 5 4.1 1.8 8 5.1 11.1 8.3 0.9 0.8 0.2-0.2 1.5 1.2-0.4-0.2-0.7-0.4-0.2 0.2 0.8 0.9-0.2-0.7 1.1 0.9-0.1 0-0.5-0.5-0.5-0.3 3.5 3.1 6.2 8.7 7.8 12.4-0.4-1.5-1.4-3.6-2.2-5.1 2.4 4.4 3.2 7 4.2 10.9 0.4 0.3-0.2-1.4 0.2-0.6 0.1 0.6 0.2 2.5 0.6 2.8-0.3-1.9-0.8-4.2-1.2-4.6 0.3 0.2-0.5-2.3-1-2.9-0.2-1.6-1.6-4.4-2.8-6.5-4.3-8.4-12-15.3-20.6-19.1 0-0.2-0.5-0.4-0.7-0.6-8.5-3.6-18.7-4.6-28.5-2.3-9.9 2.4-19.2 8.1-25.8 16.3 0.3-1 2.8-2.9 2.9-3.7-2.9 3.1-6 7.2-8.1 11.6-2.2 4.4-3.4 8.9-3.9 12.2" fill="black" fill-rule="nonzero" stroke="none" stroke-width="1" stroke-linecap="butt" stroke-linejoin="miter" stroke-miterlimit="10" stroke-dasharray="" stroke-dashoffset="0" font-family="none" font-weight="none" font-size="none" text-anchor="none" style="mix-blend-mode: normal"></path></g><g transform="matrix(1,0,0,1,48,160.20806248442258)"><svg viewBox="0 0 224 39.58387503115482" height="39.58387503115482" width="224"><g><svg viewBox="0 0 362.8955633781492 64.12862781304098" height="39.58387503115482" width="224"><g transform="matrix(1,0,0,1,0,8.86292902481247)"><svg viewBox="0 0 224.00000000000003 46.40276976341604" height="46.40276976341604" width="224.00000000000003"><g id="SvgjsG1767"><svg viewBox="0 0 224.00000000000003 46.40276976341604" height="46.40276976341604" width="224.00000000000003" id="SvgjsSvg1766"><g><svg viewBox="0 0 224.00000000000003 46.40276976341604" height="46.40276976341604" width="224.00000000000003"><g transform="matrix(1,0,0,1,0,0)"><svg width="224.00000000000003" viewBox="0.2 -35.1 173.29000000000002 35.9" height="46.40276976341604" data-palette-color="url(#3d730def-0a2c-47d2-b0e4-09385b0f2584)"></svg></g></svg></g></svg></g></svg></g><g transform="matrix(1,0,0,1,234.95458027466825,0)"><svg viewBox="0 0 127.94098310348092 64.12862781304098" height="64.12862781304098" width="127.94098310348092"><g><svg xmlns="http://www.w3.org/2000/svg" xmlns:xlink="http://www.w3.org/1999/xlink" xml:space="preserve" style="shape-rendering:geometricPrecision;text-rendering:geometricPrecision;image-rendering:optimizeQuality;" viewBox="0.0000020000000000575113 0.0000027841116459863258 14.727499 7.381952827609914" x="0" y="0" fill-rule="evenodd" clip-rule="evenodd" width="127.94098310348092" height="64.12862781304098" class="icon-icon-0" data-fill-palette-color="accent" id="SvgjsSvg1765"><g fill="black"><path class="" d="M1.757 3.091c-0.313 0.444-0.296 1.331-0.417 1.95-0.153 0.784-0.711 1.203-1.34 1.534 0.188-0.771 0.348-1.542 0.412-2.313 0.078-0.953-0.06-0.891 0.767-1.575 1.159-0.961 3.04-1.741 5.848-2.29 2.456-0.406 5.049-0.453 7.701-0.351-0.89 1.809-3.733 1.961-7.203 1.581-1.811 0.02-3.495-0.488-5.768 1.464z m8.33 2.781c-3.895 2.038-7.803-2.284-9.165 0.688 2.104-1.831 5.079 3.183 9.165-0.688z m2.489-2.547c-4.49 2.72-9.502-0.792-10.907 1.859 3.412-1.235 7.765 2.753 10.907-1.859z m0.834-1.478c-3.944 1.761-10.043-1.402-11.565 2.239 3.106-1.808 8.446 1.438 11.565-2.239z" fill="black"></path></g></svg></g></svg></g></svg></g></svg></g></svg></g><defs><mask></mask></defs><mask><g id="SvgjsG1764"><svg viewBox="0 0 320 360" height="360" width="320"><g><svg></svg></g><g><svg viewBox="0 0 320 360" height="360" width="320"><g><path transform="translate(-19.44751,3.1739) scale(3.53591,3.53591)" d="M67.6 10.7c0.2 0 1.8 0.8 2.7 1.1-0.3 0.1-1-0.2-1.8-0.5 0.2 0 0.6 0.1 1 0.3-0.2-0.2-1.7-0.7-1.9-0.9M52.7 7.6c0.3-0.1 3.8 0.4 5.4 0.5 0.1-0.1-0.2-0.1-0.6-0.2 0.5-0.1 1.5 0.2 2.2 0.3-2.1 0.1-4.4-0.5-6.4-0.3-0.7 0-0.2-0.2-0.6-0.3M49.8 7.6c1.8 0 3.2 0 0.6 0.2-0.3-0.1-0.7-0.1-0.6-0.2M78.1 15.9c0.2 0 1 0.9 1.4 1.2-0.1 0.1-0.9-0.7-1.3-1 0.1 0.1 0 0-0.1-0.2M76.1 14.6c-0.8-0.7-1.1-0.7-1.2-1.1 0.7 0.4 1.2 0.8 1.2 1.1M63.2 8.3c0.1-0.1 0.3 0.1 0.8 0.2-0.6-0.1-0.5 0-0.3 0.2-0.7-0.1-0.9-0.2-0.7-0.4 0.4 0.2 0.5 0.1 0.2 0M34.8 9.5c0-0.1 0.4-0.3 0.7-0.4-0.3 0.2-0.2 0.3 0.3 0.1 0 0.1-0.6 0.3-1 0.5 0.2-0.1 0.4-0.4 0-0.2M65.2 7.3c-0.3 0.1-1.4-0.5-2.5-0.7-0.6-0.2 2.4 0.5 2.5 0.7M6.2 56.7c0.6 2.5 0.2 2.4 0 0M6.3 41.7c0.1-0.4 0.2-1.5 0.3-1.4-0.3 2.4-0.8 3.5-0.9 5.3 0.3-1.6-0.1 0.9-0.2 1.5 0.1 0.8 0.1-0.5 0.3-0.3 0.2 0.3-0.4 4.5-0.2 2.2-0.2 2.1 0 4.4 0.4 5-0.5 3.2 2 10.4 2.5 11.9 0.1 0.1 0-0.5 0.2-0.1 0.2 1.3 1.1 2.2 1.4 3.6 0.3 0.4 1.5 2.6 1.7 3.1 0.4 0.8 0.6 0.7 1 1.5 1.2 2.3 3.1 4.5 4.9 6.6 5.8 6.8 14.7 12.4 24.6 14.4 9.9 2.1 20.3 0.6 28.4-3.3 0.5-0.3 0.4-0.4 1-0.6 2.8-0.9 6.2-3.8 8.1-4.9 0.9-1 3.3-2.7 3.6-3.7 1.7-1.4 3.4-3.7 4.3-5.2 0.5-0.8 0.9-0.8 1.1-1.3-0.1 0 1.6-2.1 2.1-3.3-0.2 0-0.5 0.6-0.5 0 3.6-6.9 5.6-16.2 4.5-22.6 0.2 7.9-1.8 16.7-5.6 22.3-1.7 3.6-5.2 7.5-8.4 10.3-0.5 0.5-1 1.1-1.6 1.5-1.9 1.6-4 2.9-6.2 4.1-5.2 2.9-11 5.4-17.8 5.5 11.7-1 22.2-6.9 28-14.1-4.4 4.3-6.3 6-11.2 8.5-0.4 0.7-3.7 2.1-5.9 2.7 1.3-0.6 4-1.6 4.9-2.4-7.3 3.5-15.4 5.5-23 4.4 2.9 0 7 0.1 10.9-0.6 0.6-0.2 0.9-0.4 1.6-0.5 7.6-1.7 14.9-5.4 20.1-10.6-3 2.7-7.5 5.9-10.4 6.9 2.7-1.5 7.6-4.4 9.2-6.6-3.2 3.2-9.2 6.4-13 7.8-0.6 0.1 0.4-0.4-0.6 0-1.2 0.3-0.7 0.3-1 0.5-4.6 1.3-9.9 2.4-14.3 2-0.8-0.1-1.1-0.3-1.8-0.3-0.8-0.1-1.5-0.1-2.4-0.1-3.5-0.4-7.3-1.8-10.1-3-1.5-0.7-3-1.2-4.5-2.1-1.2-0.7-2.2-1.5-3.2-2.3-3.8-2.8-7-5.6-10-9.6-5.4-7.5-8.2-16.9-7.8-26.2 0.4-9.3 4.1-18.4 10-25.1-0.3 0.3 0.4-0.7 1-1.3 0 0.2-0.1 0.5 0.6-0.2 0.6-0.7-0.2-0.2 0.1-0.6 6.2-6.8 17-12.3 28.1-12.5 0.4-0.3 1.1-0.7 1.9-0.5 0 0.1-0.5 0.1-0.5 0.1 1.1-0.1 2.1-0.1 2.6 0.1 0.1-0.1-0.4-0.2 0-0.2 0.7 0.2 0.9 0 1.3 0.2-0.3 0-0.6 0-0.8 0.1 2.5 0 4.1 0.6 6.6 0.8-1.3-0.3-1.6-0.3-2.6-0.6 1.1 0.2 1.6 0.4 2.1 0.3-0.2 0-0.1-0.3 0.1-0.2 2 0.5 2.2 0.7 4.3 1.4 0.2-0.2-0.9-0.3-1.2-0.6 2 0.7 3.8 1.2 5 2-0.4-0.3-1.6-0.7-2.5-1.1-0.1 0.1 0.3 0.2 0.4 0.4-1-0.5-2.4-1-3.8-1.2 1.2 0.3 2 0.7 2.5 0.9-1.1-0.2-2.5-0.9-4.1-1.2 2.6 0.8 7.5 2.6 10.5 4.2-1.1-0.7-2.4-1.2-3.1-1.6 0.6 0.1 1.3 0.5 1.3 0.3 0.7 0.3 1.6 1 2.1 1.1-0.9-0.6-2.7-1.5-3.3-1.8 7.5 3.4 14.2 9.1 18.5 16.4 0.4 0.7 1 2.3 1.5 2.5-0.1-0.5-0.5-0.8-0.9-1.6 0.2 0 0.2-0.3 0-0.6-0.4-0.5 0 0.4-0.4-0.1-1.8-3.3-4-6.2-7.4-9.4 1.9 1.8 0.5 0.5 0.1-0.1 2.6 2.3 5.6 6.2 6.9 8.2-0.2-0.3-0.3-0.5-0.2-0.5 2.4 4.1 3.9 7.8 5.4 13.1 0.1 0.1 0-0.4 0.2-0.1 1 4.2 1.3 7.7 1.2 10.9 0.8-5.4-1-13.8-4.2-20.4-0.4-0.8-0.4-0.2-0.8-1.1 0-0.3-0.3-0.9-0.5-1.3-4-6.6-8.9-11.3-14.7-15 0.4 0.2 1.2 0.8 1.2 0.7-10.8-7.1-23.3-8.1-33.6-5.9-0.7 0.3-1 0.6-1.8 1 1.5-0.5 2.4-0.6 3.8-0.9 0.3-0.3-1.3 0.1-0.6-0.2 0.1 0.1 1.4-0.2 1.7-0.1 0 0.1-0.4 0.2-0.5 0.3 3.3-0.7 6.7-0.8 9.6-0.6-1.7 0.1-4.8-0.2-5.8 0.3 1-0.1 2.4-0.2 3.3-0.1-1.2 0-3.4 0.1-4.4 0.2-0.1-0.1 1.6-0.3 0.5-0.3-0.5 0.1-1.3 0.1-1.6 0.4-8.6 0.8-17 5.3-22.9 10.6-1.2 1-2.6 2.1-3.5 3.2-2.2 2.5-3.6 5-5.2 7.2 1-2.1 3.2-5.3 5.8-8 2.6-2.7 5.4-5 6.9-6.2 0 0.4 2.4-1.5 3.3-2.1-0.6 0.5 0.4-0.2 0.6-0.1 3.2-1.9 5.8-2.6 8.7-3.7-0.7 0.2-1.3 0.4-1.4 0.3 0.7-0.2 1.1-0.4 1-0.5-2.8 0.8-7.2 2.7-10.7 4.8 6.3-4.3 14.3-6.9 22.2-7 7.9-0.2 15.6 1.8 21.7 5 4.1 1.8 8 5.1 11.1 8.3 0.9 0.8 0.2-0.2 1.5 1.2-0.4-0.2-0.7-0.4-0.2 0.2 0.8 0.9-0.2-0.7 1.1 0.9-0.1 0-0.5-0.5-0.5-0.3 3.5 3.1 6.2 8.7 7.8 12.4-0.4-1.5-1.4-3.6-2.2-5.1 2.4 4.4 3.2 7 4.2 10.9 0.4 0.3-0.2-1.4 0.2-0.6 0.1 0.6 0.2 2.5 0.6 2.8-0.3-1.9-0.8-4.2-1.2-4.6 0.3 0.2-0.5-2.3-1-2.9-0.2-1.6-1.6-4.4-2.8-6.5-4.3-8.4-12-15.3-20.6-19.1 0-0.2-0.5-0.4-0.7-0.6-8.5-3.6-18.7-4.6-28.5-2.3-9.9 2.4-19.2 8.1-25.8 16.3 0.3-1 2.8-2.9 2.9-3.7-2.9 3.1-6 7.2-8.1 11.6-2.2 4.4-3.4 8.9-3.9 12.2" fill="black" fill-rule="nonzero" stroke="none" stroke-width="1" stroke-linecap="butt" stroke-linejoin="miter" stroke-miterlimit="10" stroke-dasharray="" stroke-dashoffset="0" font-family="none" font-weight="none" font-size="none" text-anchor="none" style="mix-blend-mode: normal"></path></g><g transform="matrix(1,0,0,1,48,160.20806248442258)"><svg viewBox="0 0 224 39.58387503115482" height="39.58387503115482" width="224"><g><svg viewBox="0 0 362.8955633781492 64.12862781304098" height="39.58387503115482" width="224"><g transform="matrix(1,0,0,1,0,8.86292902481247)"><svg viewBox="0 0 224.00000000000003 46.40276976341604" height="46.40276976341604" width="224.00000000000003"><g id="SvgjsG1763"><svg viewBox="0 0 224.00000000000003 46.40276976341604" height="46.40276976341604" width="224.00000000000003" id="SvgjsSvg1762"><g><svg viewBox="0 0 224.00000000000003 46.40276976341604" height="46.40276976341604" width="224.00000000000003"><g transform="matrix(1,0,0,1,0,0)"><svg width="224.00000000000003" viewBox="0.2 -35.1 173.29000000000002 35.9" height="46.40276976341604" data-palette-color="url(#3d730def-0a2c-47d2-b0e4-09385b0f2584)"><path d="M12.25 0L0.2 0 0.4-1.05 0.95-1.2Q3-1.8 3.45-3.95L3.45-3.95 6-17.55Q6.55-20.25 7.05-23.08 7.55-25.9 8.1-29.1L8.1-29.1Q8.4-31.25 6.4-31.85L6.4-31.85 5.9-32 6.15-33.05 16.9-33.05Q23.25-33.05 26.15-30.58 29.05-28.1 29.05-24.1L29.05-24.1Q29.05-21.1 27.38-18.55 25.7-16 22.35-14.45 19-12.9 13.95-12.9L13.95-12.9 11.6-12.9Q11.25-10.9 10.85-8.65 10.45-6.4 10.05-4.05L10.05-4.05Q9.6-1.85 11.8-1.2L11.8-1.2 12.45-1.05 12.25 0ZM11.9-14.4L11.9-14.4 13.85-14.4Q17.8-14.4 20.13-17.03 22.45-19.65 22.45-24.2L22.45-24.2Q22.45-27.8 20.9-29.7 19.35-31.6 16.45-31.6L16.45-31.6 15.1-31.6Q14.3-27.3 13.5-23 12.7-18.7 11.9-14.4ZM35.25 0L29.5 0.35 29.1-0.05 33.7-22.05Q34.05-23.8 34.32-25.28 34.6-26.75 34.95-28.55L34.95-28.55Q35.35-30.7 33.2-31.3L33.2-31.3 32.5-31.55 32.65-32.4 41.8-35.1 42.25-34.7 38.9-18.9Q41.4-21.45 44.2-23.1 47-24.75 49.35-24.75L49.35-24.75Q50.95-24.75 51.95-23.78 52.95-22.8 52.95-20.8L52.95-20.8Q52.95-19.7 52.75-18.57 52.55-17.45 52.25-16.25L52.25-16.25 49.8-6.35Q49.6-5.4 49.42-4.73 49.25-4.05 49.25-3.65L49.25-3.65Q49.25-2.6 50.1-2.6L50.1-2.6Q51.35-2.6 53.5-4.65L53.5-4.65 54.15-4Q52.95-2.25 50.95-0.78 48.95 0.7 46.45 0.7L46.45 0.7Q44.85 0.7 43.97-0.05 43.1-0.8 43.1-2.1L43.1-2.1Q43.1-3.15 43.35-4.23 43.6-5.3 43.9-6.55L43.9-6.55 46.1-15.2Q46.45-16.5 46.7-17.6 46.95-18.7 46.95-19.5L46.95-19.5Q46.95-21.3 45.35-21.3L45.35-21.3Q42.8-21.3 38.7-17.35L38.7-17.35 37.25-10.65Q36.6-7.65 36.12-5.15 35.65-2.65 35.25 0L35.25 0ZM65.55 0.7L65.55 0.7Q61.85 0.7 59.52-1.7 57.2-4.1 57.2-8.65L57.2-8.65Q57.2-11.8 58.3-14.7 59.4-17.6 61.32-19.88 63.25-22.15 65.84-23.45 68.45-24.75 71.45-24.75L71.45-24.75Q74.55-24.75 76.17-23.35 77.8-21.95 77.8-19.6L77.8-19.6Q77.8-16.75 74.02-13.98 70.25-11.2 63.1-9.65L63.1-9.65Q63.25-6.4 64.65-4.9 66.05-3.4 68.5-3.4L68.5-3.4Q70.7-3.4 72.45-4.55 74.2-5.7 75.4-7.25L75.4-7.25 76.15-6.7Q75.15-4.8 73.57-3.1 72-1.4 70-0.35 68 0.7 65.55 0.7ZM70.95-23.05L70.95-23.05Q69.8-23.05 68.5-22.08 67.2-21.1 66.02-19.43 64.84-17.75 64.05-15.58 63.25-13.4 63.1-10.95L63.1-10.95Q68.7-12.6 70.97-15.05 73.25-17.5 73.25-20.25L73.25-20.25Q73.25-21.7 72.59-22.38 71.95-23.05 70.95-23.05ZM85.09 0L79.44 0.4 78.94-0.05 82.74-18.2Q83.19-20.2 81.24-21L81.24-21 80.49-21.3 80.59-22.15 89.44-24.8 89.99-24.3 88.89-18.65Q91.49-21.4 94.19-23.08 96.89-24.75 99.24-24.75L99.24-24.75Q100.84-24.75 101.87-23.78 102.89-22.8 102.89-20.8L102.89-20.8Q102.89-19.7 102.69-18.57 102.49-17.45 102.19-16.25L102.19-16.25 99.64-6Q99.44-5.2 99.32-4.63 99.19-4.05 99.19-3.65L99.19-3.65Q99.19-2.6 100.04-2.6L100.04-2.6Q101.34-2.6 103.34-4.7L103.34-4.7 104.04-4Q102.79-2.15 100.79-0.73 98.79 0.7 96.34 0.7L96.34 0.7Q94.79 0.7 93.89-0.05 92.99-0.8 92.99-2.1L92.99-2.1Q92.99-3.15 93.24-4.23 93.49-5.3 93.84-6.55L93.84-6.55 95.79-14.45Q96.19-15.95 96.44-17.15 96.69-18.35 96.69-19.3L96.69-19.3Q96.69-20.3 96.27-20.68 95.84-21.05 95.14-21.05L95.14-21.05Q93.94-21.05 92.27-20.03 90.59-19 88.49-16.8L88.49-16.8 87.14-10.65Q86.59-8 86.09-5.35 85.59-2.7 85.09 0L85.09 0ZM115.09-27.7L115.09-27.7Q113.69-27.7 112.69-28.6 111.69-29.5 111.69-31.05L111.69-31.05Q111.69-32.7 112.89-33.8 114.09-34.9 115.59-34.9L115.59-34.9Q117.04-34.9 117.99-33.98 118.94-33.05 118.94-31.6L118.94-31.6Q118.94-30 117.77-28.85 116.59-27.7 115.09-27.7ZM110.49 0.7L110.49 0.7Q108.99 0.7 108.02-0.08 107.04-0.85 107.04-2.35L107.04-2.35Q107.04-3.2 107.24-4.4 107.44-5.6 107.69-6.85L107.69-6.85 110.04-18.15Q110.49-20.25 108.49-21L108.49-21 107.79-21.3 107.89-22.2 116.89-24.8 117.39-24.3 113.59-6.45Q113.39-5.6 113.29-4.98 113.19-4.35 113.19-3.8L113.19-3.8Q113.19-2.7 114.19-2.7L114.19-2.7Q115.39-2.7 117.34-4.6L117.34-4.6 117.99-3.95Q116.74-2.1 114.87-0.7 112.99 0.7 110.49 0.7ZM130.09 0.7L130.09 0.7Q127.54 0.7 125.44-0.3 123.34-1.3 122.09-3.38 120.84-5.45 120.84-8.6L120.84-8.6Q120.84-11.8 121.91-14.7 122.99-17.6 124.91-19.88 126.84-22.15 129.41-23.45 131.99-24.75 134.94-24.75L134.94-24.75Q138.89-24.75 141.49-22.48 144.09-20.2 144.09-15.45L144.09-15.45Q144.09-12.3 143.01-9.4 141.94-6.5 140.04-4.23 138.14-1.95 135.59-0.63 133.04 0.7 130.09 0.7ZM130.69-0.7L130.69-0.7Q132.29-0.7 133.59-2.08 134.89-3.45 135.84-5.7 136.79-7.95 137.31-10.73 137.84-13.5 137.84-16.25L137.84-16.25Q137.84-20.2 136.91-21.75 135.99-23.3 134.54-23.3L134.54-23.3Q132.94-23.3 131.56-21.98 130.19-20.65 129.19-18.4 128.19-16.15 127.64-13.43 127.09-10.7 127.09-7.9L127.09-7.9Q127.09-3.85 128.11-2.27 129.14-0.7 130.69-0.7ZM147.84 0.7L147.84 0.7Q146.39 0.7 145.26-0.15 144.14-1 144.14-2.55L144.14-2.55Q144.14-3.8 144.96-4.58 145.79-5.35 146.99-5.35L146.99-5.35Q148.49-5.35 149.64-3.9L149.64-3.9Q150.94-2.15 152.29-3.9L152.29-3.9Q153.34-5.25 154.44-6.8 155.54-8.35 156.69-10L156.69-10 154.19-17.7Q153.69-19.45 153.16-20.13 152.64-20.8 151.79-20.8L151.79-20.8Q151.29-20.8 150.56-20.5 149.84-20.2 149.04-19.2L149.04-19.2 148.29-20Q151.54-24.75 154.84-24.75L154.84-24.75Q156.74-24.75 157.66-23.65 158.59-22.55 159.34-20.2L159.34-20.2 160.89-15.45Q162.29-17.7 163.44-19.35 164.59-21 165.14-21.7L165.14-21.7Q166.59-23.5 167.84-24.13 169.09-24.75 170.34-24.75L170.34-24.75Q171.59-24.75 172.54-24 173.49-23.25 173.49-21.8L173.49-21.8Q173.49-20.5 172.69-19.73 171.89-18.95 170.84-18.95L170.84-18.95Q169.19-18.95 168.19-20.25L168.19-20.25Q167.64-20.95 167.16-21.03 166.69-21.1 165.99-20.25L165.99-20.25Q165.19-19.3 163.96-17.6 162.74-15.9 161.39-13.95L161.39-13.95 163.99-6Q164.54-4.2 165.06-3.6 165.59-3 166.39-3L166.39-3Q167.69-3 169.44-4.85L169.44-4.85 170.19-4.1Q168.84-2 167.11-0.6 165.39 0.8 163.44 0.8L163.44 0.8Q161.89 0.8 160.79-0.03 159.69-0.85 158.94-3.1L158.94-3.1 157.19-8.55Q155.84-6.45 154.71-4.8 153.59-3.15 152.64-1.95L152.64-1.95Q151.59-0.55 150.46 0.08 149.34 0.7 147.84 0.7Z" opacity="1" transform="matrix(1,0,0,1,0,0)" fill="black" class="wordmark-text-0" id="SvgjsPath1761"></path></svg></g></svg></g></svg></g></svg></g><g transform="matrix(1,0,0,1,234.95458027466825,0)"><svg viewBox="0 0 127.94098310348092 64.12862781304098" height="64.12862781304098" width="127.94098310348092"><g><svg xmlns="http://www.w3.org/2000/svg" xmlns:xlink="http://www.w3.org/1999/xlink" xml:space="preserve" style="shape-rendering:geometricPrecision;text-rendering:geometricPrecision;image-rendering:optimizeQuality;" viewBox="0.0000020000000000575113 0.0000027841116459863258 14.727499 7.381952827609914" x="0" y="0" fill-rule="evenodd" clip-rule="evenodd" width="127.94098310348092" height="64.12862781304098" class="icon-icon-0" data-fill-palette-color="accent" id="SvgjsSvg1760"><g fill="black"><path class="" d="M1.757 3.091c-0.313 0.444-0.296 1.331-0.417 1.95-0.153 0.784-0.711 1.203-1.34 1.534 0.188-0.771 0.348-1.542 0.412-2.313 0.078-0.953-0.06-0.891 0.767-1.575 1.159-0.961 3.04-1.741 5.848-2.29 2.456-0.406 5.049-0.453 7.701-0.351-0.89 1.809-3.733 1.961-7.203 1.581-1.811 0.02-3.495-0.488-5.768 1.464z m8.33 2.781c-3.895 2.038-7.803-2.284-9.165 0.688 2.104-1.831 5.079 3.183 9.165-0.688z m2.489-2.547c-4.49 2.72-9.502-0.792-10.907 1.859 3.412-1.235 7.765 2.753 10.907-1.859z m0.834-1.478c-3.944 1.761-10.043-1.402-11.565 2.239 3.106-1.808 8.446 1.438 11.565-2.239z" fill="black"></path></g></svg></g></svg></g></svg></g></svg></g></svg></g><defs><mask></mask></defs></svg><rect width="320" height="360" fill="black" stroke="none" visibility="hidden"></rect></g></mask></svg><rect width="320" height="360" fill="black" stroke="none" visibility="hidden"></rect></g></mask></svg><rect width="320" height="360" fill="black" stroke="none" visibility="hidden"></rect></g></mask><linearGradient x1="0.054" x2="0.941" y1="0.5" y2="0.5" id="e27fa5d4-4355-416f-9209-0dfed9bf18fe"><stop stop-color="#9c7945" offset="0"></stop><stop stop-color="#faf3aa" offset="0.498"></stop><stop stop-color="#9c7945" offset="1"></stop></linearGradient></svg><rect width="320" height="360" fill="none" stroke="none" visibility="hidden"></rect></g></svg></g></svg>